<svg viewBox="0 0 382.94 364.19" xmlns="http://www.w3.org/2000/svg">
    <g data-name="Layer 2" id="Layer_2">
        <g data-name="Layer 1" id="Layer_1-2">
            <g id="freepik--Character--inject-20">
                <path
                    d="M0,364.19V174.13a15.7,15.7,0,0,1,15.7-15.7h15A15.73,15.73,0,0,0,45,149.3l3.23-7a15.69,15.69,0,0,1,14.25-9.12H133.7a15.68,15.68,0,0,1,13.52,7.72l3.5,5.92a15.71,15.71,0,0,0,13.53,7.77h90.83a15.7,15.7,0,0,1,15.7,15.7h0V364.19Z"
                    fill="#37474f" />
                <g opacity="0.3">
                    <path
                        d="M0,364.19V174.13a15.7,15.7,0,0,1,15.7-15.7h15A15.73,15.73,0,0,0,45,149.3l3.23-7a15.69,15.69,0,0,1,14.25-9.12H133.7a15.68,15.68,0,0,1,13.52,7.72l3.5,5.92a15.71,15.71,0,0,0,13.53,7.77h90.83a15.7,15.7,0,0,1,15.7,15.7h0V364.19Z" />
                </g>
                <path
                    d="M0,360,27.77,181.78a12.81,12.81,0,0,1,12.54-10.13H273.47a12.8,12.8,0,0,1,11.77,17.88L234.9,355.59Z"
                    fill="#ebebeb" />
                <path
                    d="M0,360,35.1,196a12.81,12.81,0,0,1,12.53-10.14H280.84a12.82,12.82,0,0,1,12.82,12.82,13,13,0,0,1-1.05,5.07L226.23,357.86Z"
                    fill="#fafafa" />
                <path
                    d="M0,364.19l56.54-160a16.68,16.68,0,0,1,15.73-11.12H312.65A11.31,11.31,0,0,1,324,204.4a11.44,11.44,0,0,1-.59,3.62l-52.6,156.17Z"
                    fill="#37474f" />
                <path
                    d="M163.28,308.22c-28.17,0-43.6-24.24-43.75-24.49a1,1,0,0,1-.06-.94c.15-.32,14.81-31.31,46.26-31.36h.11c30.41,0,43,30.43,43.17,30.74a1,1,0,0,1,0,.81,43.74,43.74,0,0,1-10.31,12.61c-6.57,5.73-18,12.57-35.32,12.61Zm-41.75-25.09c2.24,3.28,16.83,23.09,41.76,23.09h.09c16.63,0,27.63-6.57,33.93-12.06a44,44,0,0,0,9.61-11.65c-1.6-3.58-14-29.08-41.13-29.08h-.06C137.7,253.47,123.52,279.22,121.53,283.13Z"
                    fill="#fff" />
                <path
                    d="M166.24,297.69a17.08,17.08,0,1,1,17.07-17.1A17.09,17.09,0,0,1,166.24,297.69Zm0-32.15a15.08,15.08,0,1,0,15.07,15.09v0a15.09,15.09,0,0,0-15.07-15Z"
                    fill="#fff" />
                <path
                    d="M133.44,310.1a1,1,0,0,1-.76-.34,1,1,0,0,1,.1-1.41l68.51-60.09a1,1,0,0,1,1.41.15,1,1,0,0,1-.09,1.35l-68.52,60.09A1.09,1.09,0,0,1,133.44,310.1Z"
                    fill="#fff" />
                <path
                    d="M336.56,147s7,4.5,10,11.12c5.56,12.44,36.28,64.58,36.28,64.58s.23,25,0,34-3.27,30.09-3.27,30.09L344.22,276l.89-43.49-27.74-43.48Z"
                    fill="#455a64" />
                <path
                    d="M330.11,181.36c1.26-3.83,9.25-28.73,6.79-33.74s-21.6-18.22-21.6-18.22l-15.18-12.69-54.57-10.47-38,2.59-3.39,45.76,50.69.35c13.14,0,15.85,12,15.85,14v2.76h2A13.26,13.26,0,0,1,286,185V187a12,12,0,0,1,6.28,6.11h21.33c3.38,0,8.15,3.18,9.73,7.52h0c5.8-15.34,7.49-21.54,6.78-19.42Z"
                    fill="#455a64" />
                <path
                    d="M353.08,55.33C327.25,67.18,296.46,65,270.25,54c-7.82-3.27-15.7-7.64-20-14.93-1.11-1.89-2-4.12-1.43-6.24s3.06-3.79,5-2.78Z"
                    fill="#455a64" />
                <g opacity="0.3">
                    <path
                        d="M353.08,55.33C327.25,67.18,296.46,65,270.25,54c-7.82-3.27-15.7-7.64-20-14.93-1.11-1.89-2-4.12-1.43-6.24s3.06-3.79,5-2.78Z" />
                </g>
                <path
                    d="M321.77,93.39s23.81,13.49,24.79,23.44l-23.67,20.33,7.29,5.47-45.76,19.25s11.79-7.18,19.48-27.83,5.35-21.87,5.35-21.87Z"
                    fill="#455a64" />
                <g opacity="0.3">
                    <path
                        d="M321.77,93.39s23.29,13,24.79,23.44l-23.67,20.33,7.29,5.47-45.76,19.25s11.79-7.18,19.48-27.83,5.35-21.87,5.35-21.87Z" />
                </g>
                <path
                    d="M259,64.91c1.52,1.62,4.42,1.06,5.87-.62s1.78-4,1.78-6.27-.26-4.48.28-6.64c1-3.91,14.87-13.54,18.91-13.56L295,25.24c4.64-3.3,9.13-6.8,14.66-6.73,5,.06,9.44,3.16,14.31,4.32,3.55.84,7.28.64,10.86,1.35s7.28,2.7,8.43,6.16c.68,2,.42,10.13,1.12,12.15,1.43,4.19,6.54,3.8,7.44,8.13.73,3.52-1.66,3.62-2,7.2-.37,3.89,1.79,7.51,3.37,11.08s2.5,8.1,0,11.13c-2.18,2.67-6.25,3.18-8.38,5.89-1.55,2-1.72,4.65-2.44,7s-2.57,4.94-5.07,4.75l-28.74-1.38c-10.31.83-20.93,1.63-30.78-1.5S258.9,83.65,257.84,73.36a6,6,0,0,0,4.34-.51A9.93,9.93,0,0,1,259,64.91Z"
                    fill="#263238" />
                <path
                    d="M278.13,80.1c-.06-7.42-.08-14.88,1.13-22.2s3.74-14.55,8.3-20.41c.69-.88,6-6.62,7-6.18.74.32-3.21,6-3,6.77,1.68,7.49.28,15.41-2.61,22.51A100.54,100.54,0,0,1,278.12,80.1"
                    fill="#263238" />
                <path
                    d="M291.36,148.09c-10.9-3.69-25.26-31.48-25.26-31.48L286,52.89C291,35,305.61,23,323.38,28.48l1.61.61a33.25,33.25,0,0,1,20.28,40.3C340.83,84.9,335.72,102,332.58,110c-6.49,16.64-24.18,13-24.18,13s-1.35,3.92-3,8.9c-3.66,11.18-7.76,18.54-12,16.76Z"
                    fill="#ffbe9d" />
                <path d="M308.4,123a43.19,43.19,0,0,1-19.35-14.62s.74,14.16,18,18.92Z"
                    fill="#eb996e" />
                <path
                    d="M332.12,79.45a2.56,2.56,0,0,1-3.2,1.54,2.45,2.45,0,0,1-1.67-3l0-.06a2.52,2.52,0,0,1,3.2-1.54,2.44,2.44,0,0,1,1.67,3Z"
                    fill="#263238" />
                <path
                    d="M339.09,75c-.41.2-1.72-1.82-4.29-2.78s-4.94-.38-5.1-.8c-.08-.19.43-.64,1.48-.93a7,7,0,0,1,4.22.26,6.6,6.6,0,0,1,3.27,2.6C339.23,74.24,339.29,74.9,339.09,75Z"
                    fill="#263238" />
                <path
                    d="M307.9,71a2.56,2.56,0,0,1-3.2,1.54,2.45,2.45,0,0,1-1.67-3v0A2.54,2.54,0,0,1,306.25,68a2.44,2.44,0,0,1,1.67,3Z"
                    fill="#263238" />
                <path
                    d="M313.54,66.59c-.41.17-1.76-1.7-4.34-2.64s-4.89-.5-5.07-.89c-.08-.17.4-.56,1.43-.79a7.58,7.58,0,0,1,4.19.37,7.11,7.11,0,0,1,3.32,2.45C313.65,65.9,313.73,66.5,313.54,66.59Z"
                    fill="#263238" />
                <path
                    d="M315.33,89.77c0-.15,1.75.17,4.46.81.68.18,1.35.29,1.63-.12a3.57,3.57,0,0,0,.29-2.11c0-1.82,0-3.72-.06-5.72,0-8.13.23-14.71.55-14.7s.61,6.58.63,14.71v5.72a4,4,0,0,1-.63,2.7,1.77,1.77,0,0,1-1.43.56,5.32,5.32,0,0,1-1.18-.27C316.91,90.51,315.29,89.92,315.33,89.77Z"
                    fill="#263238" />
                <path
                    d="M316.71,60.32c-.52.61-3-.69-6.11-1.46s-5.89-.86-6.06-1.64c-.06-.37.61-.87,1.85-1.17a10.9,10.9,0,0,1,9.26,2.36C316.59,59.27,316.94,60,316.71,60.32Z"
                    fill="#263238" />
                <path
                    d="M340.45,71.15c-.67.41-2.21-.86-4.33-1.69s-4.07-1.08-4.26-1.85c-.07-.36.43-.84,1.43-1.1a6.42,6.42,0,0,1,3.89.38,6.23,6.23,0,0,1,3,2.48C340.74,70.25,340.76,70.94,340.45,71.15Z"
                    fill="#263238" />
                <path
                    d="M282.67,65.78c-.24-.23-10.21-7.72-14.14,3.85s8.49,13.12,8.63,12.8S282.67,65.78,282.67,65.78Z"
                    fill="#ffbe9d" />
                <path
                    d="M275.11,76.85c0-.06-.25.07-.64.11a2.15,2.15,0,0,1-1.52-.48c-1.07-.87-1.44-3.16-.78-5.26a7,7,0,0,1,1.54-2.69,2.44,2.44,0,0,1,2-1,1.06,1.06,0,0,1,1,1c0,.38-.1.59,0,.63s.32-.11.38-.62a1.42,1.42,0,0,0-.2-.88,1.55,1.55,0,0,0-1-.67,3,3,0,0,0-2.71,1.07,7.32,7.32,0,0,0-1.8,3c-.71,2.35-.26,4.94,1.24,6a2.29,2.29,0,0,0,1.95.32C275,77.12,275.15,76.88,275.11,76.85Z"
                    fill="#eb996e" />
                <path
                    d="M344.11,47.7c2.22-.41-1.41-8.35-5.33-12-5.93-5.46-15.93-10.93-23-11.22-8.46-.36-16.17,1.36-22.38,7.12S283,45.09,280.59,53.21c-.74,2.47-1.33,5.11-.7,7.62.77,3.1,3.35,5.74,2,9.23a5.08,5.08,0,0,0,0,3.94c1.38,3,4.67,1.7,6.57,0,4-3.7,6.12-9,8.06-14.16,1.38-3.64,2.78-7.37,2.91-11.27.07-2.12-.24-4.25-.05-6.36a7.31,7.31,0,0,1,2.74-5.52,6.41,6.41,0,0,1,1.25-.64,12.75,12.75,0,0,1,12.76,1.67c5.76,4.47,15.78,11.6,19.42,10.35,5.25-1.81,6.94-3.55,6.94-3.55Z"
                    fill="#263238" />
                <path
                    d="M316.94,23.13c7.08,0,14.3,2.48,19.24,7.54,2.63,2.69,4.62,6.26,4.45,10s-3,7.5-6.77,7.75l-.28.07c-5.5,0-8.49-1.69-12.86-5-3.68-2.8-6.53-6.58-10.22-9.37a24.73,24.73,0,0,0-13.66-5C302.94,25.59,309.84,23.16,316.94,23.13Z"
                    fill="#263238" />
                <path
                    d="M291.16,27.65c.07.12,1.36-.7,3.67-1.42a17.6,17.6,0,0,1,4.13-.77,11.5,11.5,0,0,1,5,.7A16.66,16.66,0,0,1,311,32.08c1.35,2,1.8,3.46,1.94,3.41s0-.4-.22-1.06a12.89,12.89,0,0,0-1.24-2.66,15.71,15.71,0,0,0-7.24-6.36,11.36,11.36,0,0,0-5.35-.7,16,16,0,0,0-4.26,1A9.11,9.11,0,0,0,291.16,27.65Z"
                    fill="#455a64" />
                <path
                    d="M288.7,31.41a10.14,10.14,0,0,0-.17,3.6,25.47,25.47,0,0,0,7,15.68A10.81,10.81,0,0,0,298.32,53c.21-.19-4.21-3.68-6.91-9.85S289,31.37,288.7,31.41Z"
                    fill="#455a64" />
                <path
                    d="M330.62,26.28a33.09,33.09,0,0,0,2.71,2.14,26.79,26.79,0,0,1,8.86,13.67,32.21,32.21,0,0,0,.85,3.35,9.71,9.71,0,0,0-.29-3.48,23.11,23.11,0,0,0-9-13.95A9.71,9.71,0,0,0,330.62,26.28Z"
                    fill="#455a64" />
                <path
                    d="M281.48,133.9s10.23,8.78,21.2,5.36l-2,4.7a29.18,29.18,0,0,1-3.3,5.21,62.41,62.41,0,0,1-13,12.71C280.58,150.72,279,142.07,281.48,133.9Z"
                    fill="#fff" />
                <path
                    d="M345.56,40.49s-1.1-8.92-2.1-16.89c-.64-5.11-5.69-19.23-12-21.08s-8.62.89-11.37.08S313.85-.94,308.76.34,297.08,4.4,294,9.71s-8.52,14.41-9.69,19.84a35.64,35.64,0,0,1-2.3,7.67S306.06,26.31,345.56,40.49Z"
                    fill="#455a64" />
                <path
                    d="M345.65,45l-1.08-12.49s-18-6.23-29.22-7.23S285,27.18,285,27.18l-2.54,11.14Z"
                    fill="#263238" />
                <path
                    d="M325.78,6.07c.09,0,.43,1.27,1.39,3.17A28.53,28.53,0,0,0,332.05,16a67.27,67.27,0,0,0,6.26,5.55A24.74,24.74,0,0,1,341,23.75a3.15,3.15,0,0,1-.81-.48c-.5-.33-1.21-.83-2.08-1.47a50.8,50.8,0,0,1-6.41-5.48,25.23,25.23,0,0,1-4.84-6.92A16.11,16.11,0,0,1,326,7,3.32,3.32,0,0,1,325.78,6.07Z"
                    fill="#263238" />
                <path
                    d="M300.92,19.93c0-.09,1.19-.36,3-1.14A23.21,23.21,0,0,0,307,17.16a24.88,24.88,0,0,0,3.38-2.57,24.41,24.41,0,0,0,2.79-3.22,22.14,22.14,0,0,0,1.78-3c.88-1.78,1.21-3,1.3-3a2.57,2.57,0,0,1-.16.86,14.12,14.12,0,0,1-.8,2.26,19.61,19.61,0,0,1-1.73,3.1,22.31,22.31,0,0,1-2.82,3.32,22.52,22.52,0,0,1-3.46,2.68,21,21,0,0,1-3.2,1.56,15.07,15.07,0,0,1-2.29.68A2.84,2.84,0,0,1,300.92,19.93Z"
                    fill="#263238" />
                <path
                    d="M374.63,51.83a2.41,2.41,0,0,1,1.55,3,2.44,2.44,0,0,1-1.47,1.52,104.25,104.25,0,0,1-55.94,4c-35.24-7.21-66.27-27.38-67.27-28-2.55-1.69-.4-2.38.46-2.61s49.69,6,67.3,7.59C332.84,38.59,362,47.71,374.63,51.83Z"
                    fill="#455a64" />
                <path
                    d="M245.55,106.24S252.22,84.57,254,80a7.26,7.26,0,0,1,6-4.76l2.21,4.53c5.49,11.85,26.68,26.44,26.68,26.44s-3.32,2.51-6.84,23.29,2.31,32.38,2.31,32.38"
                    fill="#455a64" />
                <path
                    d="M284.42,161.88a1.57,1.57,0,0,1-.14-.25,7.59,7.59,0,0,1-.35-.77,28.85,28.85,0,0,1-1.08-3.08,53.08,53.08,0,0,1-2-11.93,77.67,77.67,0,0,1,1.29-18.14c.59-3.4,1.3-7,2.23-10.66.49-1.84,1-3.71,1.64-5.58.33-.94.69-1.87,1.1-2.79A9.12,9.12,0,0,1,288.8,106v.42c-2.81-2-5.65-4.14-8.48-6.43-2.27-1.87-4.49-3.75-6.56-5.7-1.06-1-2-2-3-2.93a39.48,39.48,0,0,1-2.81-3A45.16,45.16,0,0,1,263.2,82c-1.26-2.26-2.26-4.5-3.31-6.63l.21.13a6.75,6.75,0,0,0-3.46,1.39,7.22,7.22,0,0,0-2.21,2.83c-.92,2.22-1.61,4.44-2.31,6.49l-3.48,10.71c-.95,3-1.71,5.28-2.23,6.91-.26.77-.45,1.38-.6,1.82l-.16.47a.16.16,0,0,1-.07.15v-.16l.13-.48c.13-.45.31-1.06.53-1.84l2.11-7c.92-3,2.05-6.61,3.38-10.75.7-2.06,1.35-4.26,2.29-6.54A7.44,7.44,0,0,1,260,75h.15l.07.14c1.05,2.12,2.09,4.39,3.32,6.58A44.08,44.08,0,0,0,268.27,88c.87,1,1.86,2,2.8,3s2,2,3,2.91c2.07,1.94,4.27,3.81,6.54,5.67,2.82,2.29,5.66,4.46,8.44,6.42l.24.17-.23.24a9.17,9.17,0,0,0-1.48,2.48c-.41.9-.76,1.82-1.09,2.74-.65,1.85-1.15,3.71-1.64,5.54-.94,3.66-1.65,7.23-2.26,10.62a78.62,78.62,0,0,0-1.4,18.05A55,55,0,0,0,283,157.76a31.07,31.07,0,0,0,1,3.1l.3.78A1.38,1.38,0,0,1,284.42,161.88Z"
                    fill="#263238" />
                <path d="M207.6,108.83s-17.1,4.32-24.39,30.08c-3.45,12.16-4,15.63-4,15.63l25,.08Z"
                    fill="#455a64" />
                <path
                    d="M334.94,167.16a6.32,6.32,0,0,1-.42,1.34l-1.32,3.57c-1.12,3-2.65,7.18-4.25,11.82s-3,8.86-4,11.92l-1.11,3.62a7.93,7.93,0,0,1-.48,1.31,7,7,0,0,1,.29-1.37c.22-.87.56-2.12,1-3.67.89-3.09,2.21-7.34,3.81-12s3.19-8.8,4.4-11.78c.6-1.49,1.1-2.69,1.47-3.52A7.93,7.93,0,0,1,334.94,167.16Z"
                    fill="#263238" />
                <path
                    d="M282,161.88a5.67,5.67,0,0,1-.55-.4l-1.56-1.26-1.09-.92-1.23-1.15c-.89-.83-1.91-1.77-3-2.88a134.51,134.51,0,0,1-15-18.57,126,126,0,0,1-6.68-11.24,90.43,90.43,0,0,1-4.58-9.71,54.29,54.29,0,0,1-2.21-6.9c-.15-.79-.27-1.44-.37-1.93a4,4,0,0,1-.09-.68,3,3,0,0,1,.2.66l.46,1.91a62.76,62.76,0,0,0,2.35,6.8,99.06,99.06,0,0,0,4.66,9.62c1.92,3.55,4.23,7.33,6.84,11.18A143.52,143.52,0,0,0,274.84,155c1,1.13,2,2.08,2.89,2.93l1.2,1.18,1.05.95,1.45,1.32A3.43,3.43,0,0,1,282,161.88Z"
                    fill="#263238" />
                <path
                    d="M302.11,193.22a8.71,8.71,0,0,1-.85-1.17c-.52-.78-1.25-1.91-2.14-3.32-1.78-2.81-4.18-6.73-6.73-11.12s-4.78-8.41-6.35-11.35c-.79-1.46-1.41-2.66-1.83-3.49a8.66,8.66,0,0,1-.6-1.32,7.43,7.43,0,0,1,.78,1.22c.52.89,1.18,2,2,3.42,1.71,3,4,6.9,6.48,11.26l6.57,11.24,2,3.4A7,7,0,0,1,302.11,193.22Z"
                    fill="#263238" />
                <path d="M301.84,170.59a4,4,0,0,0-5-1.59l-.84.55a3.83,3.83,0,1,0,5.84,1Z"
                    fill="#263238" />
                <circle cx="297.36" cy="172.62" fill="#455a64" r="0.69" />
                <path d="M300.13,172.59a.69.69,0,1,1-.69-.69.69.69,0,0,1,.69.69Z" fill="#455a64" />
                <path d="M310,185.59a4,4,0,0,0-5-1.59l-.85.55a3.83,3.83,0,1,0,5.84,1Z"
                    fill="#263238" />
                <circle cx="305.47" cy="187.6" fill="#455a64" r="0.69" />
                <circle cx="307.55" cy="187.6" fill="#455a64" r="0.69" />
                <path
                    d="M224.73,137.46a5,5,0,0,1-.51-1c-.36-.73-.78-1.62-1.29-2.66-1.09-2.24-2.66-5.3-4.59-8.57s-3.86-6.13-5.3-8.16l-1.71-2.41a5.24,5.24,0,0,1-.59-.91,4,4,0,0,1,.75.79c.46.53,1.09,1.32,1.85,2.31a84.71,84.71,0,0,1,9.93,16.79c.5,1.15.89,2.08,1.13,2.74A3.39,3.39,0,0,1,224.73,137.46Z"
                    fill="#263238" />
                <path
                    d="M223.75,155.05a41.2,41.2,0,0,1,.31-6.48,41.89,41.89,0,0,1,.83-6.43,40.14,40.14,0,0,1-.31,6.48A39.84,39.84,0,0,1,223.75,155.05Z"
                    fill="#263238" />
                <path
                    d="M251.9,123.29c0,.14-7.53.54-16.84.89s-16.85.51-16.85.36,7.53-.54,16.83-.88S251.89,123.15,251.9,123.29Z"
                    fill="#263238" />
                <path
                    d="M248.1,115a7.84,7.84,0,0,1-1.37,0c-.87,0-2.15-.1-3.71-.15a95.68,95.68,0,0,0-24.33,2.38c-1.53.35-2.77.65-3.62.87a8.87,8.87,0,0,1-1.34.28,6,6,0,0,1,1.28-.48c.84-.28,2.06-.63,3.59-1a80.28,80.28,0,0,1,12.12-2.13,81.61,81.61,0,0,1,12.31-.26c1.57.1,2.84.21,3.72.32A6.83,6.83,0,0,1,248.1,115Z"
                    fill="#263238" />
                <path
                    d="M333.84,159.64A15.58,15.58,0,0,1,332,158a50.12,50.12,0,0,0-4.64-3.85,47.43,47.43,0,0,0-5.08-3.24,18.08,18.08,0,0,1-2.18-1.25,9.49,9.49,0,0,1,2.35.92,33.36,33.36,0,0,1,5.22,3.15,33,33,0,0,1,4.59,4A8.87,8.87,0,0,1,333.84,159.64Z"
                    fill="#263238" />
                <path
                    d="M337.25,156.71a32.78,32.78,0,0,0-3.75-6.33,33.16,33.16,0,0,0-5.44-4.95,6.5,6.5,0,0,1,1.94,1,18.43,18.43,0,0,1,6.63,8.13A6.41,6.41,0,0,1,337.25,156.71Z"
                    fill="#263238" />
                <path
                    d="M243.78,289c-.05,13.27,0,36.5.1,49.82A10.21,10.21,0,0,0,254.09,349H322a10.21,10.21,0,0,0,10.21-10.21h0V288.22A10.21,10.21,0,0,0,322,278h-.14l-68,.86A10.21,10.21,0,0,0,243.78,289Z"
                    fill="#455a64" />
                <circle cx="289.56" cy="307.86" fill="#263238" r="8.86"
                    transform="translate(-62.46 73.96) rotate(-13.15)" />
                <path
                    d="M284.94,313.13h9.27v16.53a4,4,0,0,1-3.95,3.95h-1.42a4,4,0,0,1-3.95-3.95h0V313.13Z"
                    fill="#263238" />
                <path
                    d="M267.12,278.75h-9.28v-26a30.18,30.18,0,0,1,60.36,0v12.34h-9.36V252.72a20.86,20.86,0,1,0-41.72,0Z"
                    fill="#e0e0e0" />
                <path
                    d="M267.12,278.75v-7.94c0-2.55,0-5.68-.05-9.32v-5.84a34.65,34.65,0,0,1,.32-6.6,21.11,21.11,0,0,1,7.73-12.89,20.74,20.74,0,0,1,7.68-3.81,21,21,0,0,1,9.13-.34,21.15,21.15,0,0,1,15.23,11.75,20.81,20.81,0,0,1,1,2.44,22.52,22.52,0,0,1,.66,2.57,26.57,26.57,0,0,1,.39,5.35v10.94l-.26-.26h9.32l-.26.26v-7.19c0-2.44.07-4.94-.12-7.41a30.72,30.72,0,0,0-2.34-9.58,30.23,30.23,0,0,0-21.06-17.38c-.74-.19-1.49-.25-2.23-.38l-1.1-.17-1.12-.06c-.74,0-1.48-.11-2.21-.09l-2.2.11a29.16,29.16,0,0,0-8.33,1.91c-.32.13-.66.23-1,.37l-.94.45c-.62.32-1.26.58-1.85.93a31.83,31.83,0,0,0-6.43,4.81c-.47.45-.88,1-1.33,1.42a13.39,13.39,0,0,0-1.24,1.47,29.59,29.59,0,0,0-5.91,13,35.67,35.67,0,0,0-.53,6.53v6.09c0,7.77-.05,14.14-.06,18.82l-.1-.1,6.91.06h.06l-7,.06h-.1v-.1c0-4.68,0-11.05-.06-18.82v-6.09a38.39,38.39,0,0,1,.51-6.6,30,30,0,0,1,5.95-13.23,15.15,15.15,0,0,1,1.26-1.5c.45-.48.86-1,1.35-1.45a30.34,30.34,0,0,1,3.06-2.61,28.19,28.19,0,0,1,3.45-2.28c.59-.36,1.25-.62,1.87-.94l1-.47c.32-.14.66-.25,1-.38a29.73,29.73,0,0,1,8.47-2l2.22-.12c.75,0,1.5.06,2.26.09l1.13.06,1.12.17c.75.13,1.52.19,2.26.38a30.42,30.42,0,0,1,16.12,9.41,30.89,30.89,0,0,1,5.32,8.26,31.39,31.39,0,0,1,2.38,9.74c.19,2.53.09,5,.12,7.45v7.45h-9.84V254a26.4,26.4,0,0,0-.37-5.26c-.17-.85-.39-1.69-.64-2.51a20.29,20.29,0,0,0-7.2-10.07,20,20,0,0,0-8.63-3.83A20.66,20.66,0,0,0,267.76,249a35.08,35.08,0,0,0-.35,6.56v15.24c0,2.56,0,4.49-.05,5.84v1.5A2.4,2.4,0,0,0,267.12,278.75Z"
                    fill="#263238" />
                <path
                    d="M342.46,256.92a63.86,63.86,0,0,1-6.75,4.26,62.34,62.34,0,0,1-7,3.81,120.75,120.75,0,0,1,13.76-8.07Z"
                    fill="#263238" />
                <path
                    d="M332,251.59a34.62,34.62,0,0,1-2.14,5.52,35.37,35.37,0,0,1-2.62,5.31,33,33,0,0,1,2.14-5.52A34.91,34.91,0,0,1,332,251.59Z"
                    fill="#263238" />
                <path
                    d="M338.46,272.59a21,21,0,0,1-4.16-1.87,20.76,20.76,0,0,1-3.93-2.33,39.33,39.33,0,0,1,8.09,4.2Z"
                    fill="#263238" />
                <path
                    d="M360,266.13c2.87-2.7,8.24.3,10.71,3.37l-.88-1.22c3.59,4.7,4.84,9.34,3.31,15.05-1.24,4.63-2.76,9.64-3.92,11.54L364,303.49a7,7,0,0,1-5.32,3.39,2.09,2.09,0,0,1-1.3-.22l-3.68-.82s-4.15,2.34-6.88,3.47-8.61.34-8.61.34l-12.34,11.1a3.86,3.86,0,0,1-4.23.7,1.64,1.64,0,0,1-1-2.07.14.14,0,0,1,0-.06c.84-2.76,10.43-13,10.43-13l1.77-2.59,8.34-12h0a1.53,1.53,0,0,0-1.81-1.18,1.42,1.42,0,0,0-.72.37L336,293.33l-3.57,6.56s-3.65,2.49-6,.57l3.81-11.17,8.28-10.79s14.85-6.16,18.32-9.41C357.84,268.18,359,267.14,360,266.13Z"
                    fill="#ffbe9d" />
                <path
                    d="M348,301.24c.13.09-1.62,2.5-4.39,4.86a19.52,19.52,0,0,1-5.48,3.59c-.07-.14,2.37-1.72,5.08-4.05S347.84,301.12,348,301.24Z"
                    fill="#eb996e" />
                <path
                    d="M356.62,303.35c.15.14-1,1.33-2.7,2.4a10.43,10.43,0,0,1-3.2,1.68c-.09-.15,1.21-1.1,2.86-2.19A22.67,22.67,0,0,1,356.62,303.35Z"
                    fill="#eb996e" />
                <path
                    d="M328.91,308.68a30,30,0,0,1,2.24-3c1.41-1.83,3.31-4.39,5.32-7.29,1-1.44,1.94-2.84,2.78-4.11a12.93,12.93,0,0,0,1.76-3.55,6.06,6.06,0,0,0-.13-3.6,2.43,2.43,0,0,1,.48.91,5.39,5.39,0,0,1,.07,2.79,12.13,12.13,0,0,1-1.71,3.75c-.82,1.3-1.74,2.71-2.75,4.16-2,2.91-4,5.44-5.48,7.21A18.5,18.5,0,0,1,328.91,308.68Z"
                    fill="#eb996e" />
                <path
                    d="M340.38,289.59c.05.09-.79.53-1.93,1.49a13.22,13.22,0,0,0-3.48,4.57,17.87,17.87,0,0,1-1.42,3,4.89,4.89,0,0,1-2.15,1.74A5.43,5.43,0,0,1,329,301c0-.11.91-.3,2.22-1a4.76,4.76,0,0,0,1.87-1.66,21.3,21.3,0,0,0,1.33-2.92,12,12,0,0,1,3.77-4.66A5.48,5.48,0,0,1,340.38,289.59Z"
                    fill="#eb996e" />
                <path
                    d="M378.71,285.78a2.15,2.15,0,0,1-.18-.48c-.12-.37-.26-.83-.43-1.39-.37-1.21-.87-3-1.65-5.08a28.29,28.29,0,0,0-3.6-7,16.08,16.08,0,0,0-7.4-5.83,14,14,0,0,0-9.37.22,22,22,0,0,0-6.73,4,41.78,41.78,0,0,0-3.83,3.7l-1,1.07c-.23.24-.36.37-.37.35a2.42,2.42,0,0,1,.29-.42c.2-.26.51-.65.91-1.13a35,35,0,0,1,3.75-3.85,21.76,21.76,0,0,1,6.81-4.15,14.31,14.31,0,0,1,9.7-.27,16.49,16.49,0,0,1,7.62,6,28.11,28.11,0,0,1,3.56,7.15c.73,2.14,1.18,3.92,1.49,5.15.14.56.25,1,.34,1.42A1.61,1.61,0,0,1,378.71,285.78Z"
                    fill="#263238" />
                <path
                    d="M369.56,220.92c0,.1-1.58,0-4.1.27a31,31,0,0,0-9.47,2.7,28.62,28.62,0,0,0-8.11,5.58c-1.8,1.79-2.64,3.13-2.73,3.07a4.08,4.08,0,0,1,.56-1,8.85,8.85,0,0,1,.77-1,12,12,0,0,1,1.14-1.32,26.46,26.46,0,0,1,8.15-5.79,28.22,28.22,0,0,1,9.65-2.59,18.78,18.78,0,0,1,3,0A4.39,4.39,0,0,1,369.56,220.92Z"
                    fill="#263238" />
                <path
                    d="M334.94,102.26a28.94,28.94,0,0,1,4,3.16,32.84,32.84,0,0,1,4,4.41,24.38,24.38,0,0,1,3.76,7v.12l-.1.08L323,137.36V137l3.45,2.59,3.84,2.89.36.27-.41.17-32.55,13.6-9.74,4-2.57,1.12-.69.26c-.16.06-.24.08-.24.07l.22-.12.67-.31,2.61-1.14,9.68-4.16,32.48-13.76-.06.45L326.17,140l-3.44-2.58-.26-.2.25-.21,23.71-20.27-.06.19a23.81,23.81,0,0,0-3.64-6.86,32.47,32.47,0,0,0-3.89-4.47c-.58-.58-1.14-1-1.61-1.46s-.89-.75-1.23-1l-.77-.61A2.43,2.43,0,0,1,334.94,102.26Z"
                    fill="#263238" />
                <path
                    d="M314,99.89c-.35.28-1.85-1.06-3.79-2.51s-3.62-2.56-3.45-3,2.29.12,4.39,1.72S314.28,99.64,314,99.89Z"
                    fill="#263238" />
                <g opacity="0.3">
                    <path
                        d="M369.16,217.1c-2.88-1.91-6.77-1.08-9.9.38a28.48,28.48,0,0,0-14.11,15.11l1-1.64c5.17-6.29,13.31-9.54,21.46-9.8a2.89,2.89,0,0,0,2.69-2.1A2.09,2.09,0,0,0,369.16,217.1Z" />
                </g>
            </g>
        </g>
    </g>
</svg>