<svg xmlns="http://www.w3.org/2000/svg" viewBox="0 0 750 500"><g id="freepik--Folder--inject-20"><path d="M71.47,159.22l30.88,87.37a6.25,6.25,0,0,0,7.61,3.92l160.1-45.72a6.24,6.24,0,0,0,4.29-7.72l-19.78-69.26a6.25,6.25,0,0,0-7.76-4.28l-98.28,28.76a6.22,6.22,0,0,1-4.74-.52l-21.93-12a6.28,6.28,0,0,0-4.71-.52L75.64,151.14A6.24,6.24,0,0,0,71.47,159.22Z" style="fill:#455a64"></path><g style="opacity:0.30000000000000004"><path d="M71.47,159.22l30.88,87.37a6.25,6.25,0,0,0,7.61,3.92l160.1-45.72a6.24,6.24,0,0,0,4.29-7.72l-19.78-69.26a6.25,6.25,0,0,0-7.76-4.28l-98.28,28.76a6.22,6.22,0,0,1-4.74-.52l-21.93-12a6.28,6.28,0,0,0-4.71-.52L75.64,151.14A6.24,6.24,0,0,0,71.47,159.22Z"></path></g><path d="M123.45,252c-6.13-13.9-28-66.83-34.43-82.42a4.27,4.27,0,0,1,2.74-5.72l156.26-47a4.29,4.29,0,0,1,5.47,3.42l15.07,93a4.28,4.28,0,0,1-3.13,4.83l-137,36.38A4.28,4.28,0,0,1,123.45,252Z" style="fill:#e0e0e0"></path><path d="M115.8,261.24c-6-13.56-28.32-67.6-34.66-83A4,4,0,0,1,83.72,173L241,127.63a4,4,0,0,1,5,3.18l14.86,91.65a4,4,0,0,1-2.91,4.48L120.45,263.46A4,4,0,0,1,115.8,261.24Z" style="fill:#f5f5f5"></path><path d="M263.53,131.75,121.11,174.39,119,171a4.11,4.11,0,0,0-4.64-1.67l-44.95,13a4.07,4.07,0,0,0-2.76,5.34l1.87,4.74.73,1.85,43.72,97.48a3.94,3.94,0,0,0,4.77,2L287.55,243a3.93,3.93,0,0,0,2.84-4.46l-21.86-104A3.88,3.88,0,0,0,263.53,131.75Z" style="fill:#455a64"></path><path d="M184.52,235.28c-13,0-22.47-8.26-22.58-8.36a.47.47,0,0,1-.16-.44c0-.22,3.43-21.85,22.67-27.53,18.63-5.51,31.87,10.87,32,11a.54.54,0,0,1,.1.39c0,.18-3.07,17.64-23.35,23.65A30.58,30.58,0,0,1,184.52,235.28Zm-21.71-8.93c1.77,1.46,14.51,11.33,30.1,6.71,10.28-3,15.89-9.08,18.78-13.62a28.15,28.15,0,0,0,3.83-9c-1.46-1.72-13.84-15.54-30.78-10.53C167.25,205.07,163.27,223.87,162.81,226.35Z" style="fill:#fff"></path><path d="M190,227.47a10.8,10.8,0,1,1,10.36-13.85h0A10.81,10.81,0,0,1,193.05,227,10.7,10.7,0,0,1,190,227.47Zm0-20.61a9.8,9.8,0,1,0,9.41,7h0A9.81,9.81,0,0,0,190,206.86Z" style="fill:#fff"></path><path d="M172.43,243.6a.45.45,0,0,1-.27-.08.5.5,0,0,1-.15-.69l32.77-51.72a.5.5,0,0,1,.69-.15.49.49,0,0,1,.16.69l-32.78,51.72A.51.51,0,0,1,172.43,243.6Z" style="fill:#fff"></path></g><g id="freepik--Character--inject-20"><path d="M222.16,445.6V255.54a15.7,15.7,0,0,1,15.7-15.7h15a15.71,15.71,0,0,0,14.26-9.13l3.23-7a15.69,15.69,0,0,1,14.25-9.12h71.26a15.7,15.7,0,0,1,13.52,7.72l3.5,5.92A15.69,15.69,0,0,0,386.41,236h90.83a15.7,15.7,0,0,1,15.7,15.71V445.6Z" style="fill:#37474F"></path><g style="opacity:0.30000000000000004"><path d="M222.16,445.6V255.54a15.7,15.7,0,0,1,15.7-15.7h15a15.71,15.71,0,0,0,14.26-9.13l3.23-7a15.69,15.69,0,0,1,14.25-9.12h71.26a15.7,15.7,0,0,1,13.52,7.72l3.5,5.92A15.69,15.69,0,0,0,386.41,236h90.83a15.7,15.7,0,0,1,15.7,15.71V445.6Z"></path></g><path d="M222.16,441.44l27.77-178.25a12.82,12.82,0,0,1,12.54-10.13H495.63a12.81,12.81,0,0,1,11.77,17.88L457.06,437Z" style="fill:#ebebeb"></path><path d="M222.16,441.44l35.1-164a12.82,12.82,0,0,1,12.53-10.14H503a12.82,12.82,0,0,1,11.77,17.89L448.39,439.27Z" style="fill:#fafafa"></path><path d="M222.16,445.6l56.54-160a16.69,16.69,0,0,1,15.73-11.12H534.81a11.33,11.33,0,0,1,10.73,14.95L492.94,445.6Z" style="fill:#37474F"></path><path d="M385.44,389.63c-28.17,0-43.6-24.24-43.75-24.49a1,1,0,0,1-.06-.94c.15-.32,14.81-31.31,46.26-31.36H388c30.41,0,43,30.43,43.17,30.74a1,1,0,0,1,0,.81A43.68,43.68,0,0,1,420.86,377c-6.57,5.73-18,12.57-35.32,12.61Zm-41.75-25.09c2.24,3.28,16.83,23.09,41.76,23.09h.09c16.63,0,27.63-6.57,33.93-12.06a43.91,43.91,0,0,0,9.61-11.65c-1.6-3.58-14-29.08-41.13-29.08h-.06C359.86,334.88,345.68,360.63,343.69,364.54Z" style="fill:#fff"></path><path d="M388.4,379.1A17.08,17.08,0,1,1,405.47,362,17.1,17.1,0,0,1,388.4,379.1Zm0-32.15A15.08,15.08,0,1,0,403.47,362,15.09,15.09,0,0,0,388.4,347Z" style="fill:#fff"></path><path d="M355.6,391.51a1,1,0,0,1-.76-.34,1,1,0,0,1,.1-1.41l68.51-60.09a1,1,0,0,1,1.32,1.5l-68.52,60.09A1,1,0,0,1,355.6,391.51Z" style="fill:#fff"></path><path d="M558.72,228.44s7,4.5,10,11.12C574.28,252,605,304.14,605,304.14s.23,25,0,33.95-3.27,30.09-3.27,30.09l-35.35-10.74.89-43.49-27.74-43.48Z" style="fill:#455a64"></path><path d="M552.27,262.77c1.26-3.83,9.25-28.73,6.79-33.74s-21.6-18.22-21.6-18.22l-15.18-12.69-54.57-10.47-37.95,2.59L426.37,236l50.69.35c13.14,0,15.85,12,15.85,14l0,2.76h2a13.26,13.26,0,0,1,13.26,13.49l0,1.85a12,12,0,0,1,6.28,6.11h21.33c3.38,0,8.15,3.18,9.73,7.52h0c5.8-15.34,7.49-21.54,6.78-19.42Z" style="fill:#455a64"></path><path d="M575.24,136.74c-25.83,11.85-56.62,9.66-82.83-1.33-7.82-3.27-15.7-7.64-20-14.93-1.11-1.89-2-4.12-1.43-6.24s3.06-3.79,5-2.78Z" style="fill:#455a64"></path><g style="opacity:0.30000000000000004"><path d="M575.24,136.74c-25.83,11.85-56.62,9.66-82.83-1.33-7.82-3.27-15.7-7.64-20-14.93-1.11-1.89-2-4.12-1.43-6.24s3.06-3.79,5-2.78Z"></path></g><path d="M543.93,174.8s23.81,13.49,24.79,23.44l-23.67,20.33,7.29,5.47-45.76,19.25s11.79-7.18,19.48-27.83,5.35-21.87,5.35-21.87Z" style="fill:#455a64"></path><g style="opacity:0.30000000000000004"><path d="M543.93,174.8s23.29,13,24.79,23.44l-23.67,20.33,7.29,5.47-45.76,19.25s11.79-7.18,19.48-27.83,5.35-21.87,5.35-21.87Z"></path></g><path d="M481.18,146.32c1.52,1.62,4.42,1.06,5.87-.62s1.78-4,1.78-6.27-.26-4.48.28-6.64c1-3.91,14.87-13.54,18.91-13.56l9.12-12.58c4.64-3.3,9.13-6.8,14.66-6.73,5,.06,9.44,3.16,14.31,4.32,3.55.84,7.28.64,10.86,1.35s7.28,2.7,8.43,6.16c.68,2,.42,10.13,1.12,12.15,1.43,4.19,6.54,3.8,7.44,8.13.73,3.52-1.66,3.62-2,7.2-.37,3.89,1.79,7.51,3.37,11.08s2.5,8.1,0,11.13c-2.18,2.67-6.25,3.18-8.38,5.89-1.55,2-1.72,4.65-2.44,7s-2.57,4.94-5.07,4.75l-28.74-1.38c-10.31.83-20.93,1.63-30.78-1.5S481.06,165.06,480,154.77a5.91,5.91,0,0,0,4.34-.51A9.91,9.91,0,0,1,481.18,146.32Z" style="fill:#263238"></path><path d="M500.29,161.51c-.06-7.42-.08-14.88,1.13-22.2s3.74-14.55,8.3-20.41c.69-.88,6-6.62,7-6.18.74.32-3.21,6-3,6.77,1.68,7.49.28,15.41-2.61,22.51a100.3,100.3,0,0,1-10.83,19.51" style="fill:#263238"></path><path d="M513.52,229.5c-10.9-3.69-25.26-31.48-25.26-31.48l19.86-63.72c5-17.92,19.65-29.93,37.42-24.41l1.61.61a33.26,33.26,0,0,1,20.28,40.3c-4.44,15.51-9.55,32.58-12.69,40.62-6.49,16.64-24.18,13-24.18,13s-1.35,3.92-3,8.9c-3.66,11.18-7.76,18.54-12,16.76Z" style="fill:#ffbe9d"></path><path d="M530.56,204.37a43.12,43.12,0,0,1-19.35-14.62s.74,14.16,18,18.92Z" style="fill:#eb996e"></path><path d="M554.28,160.86a2.55,2.55,0,0,1-3.2,1.54,2.44,2.44,0,0,1-1.65-3.08,2.53,2.53,0,0,1,3.2-1.54A2.44,2.44,0,0,1,554.28,160.86Z" style="fill:#263238"></path><path d="M561.25,156.4c-.41.2-1.72-1.82-4.29-2.78s-4.94-.38-5.1-.8c-.08-.19.43-.64,1.48-.93a7,7,0,0,1,4.22.26,6.69,6.69,0,0,1,3.27,2.6C561.39,155.65,561.45,156.31,561.25,156.4Z" style="fill:#263238"></path><path d="M530.06,152.45a2.55,2.55,0,0,1-3.2,1.54,2.45,2.45,0,0,1-1.66-3.08,2.55,2.55,0,0,1,3.21-1.54A2.44,2.44,0,0,1,530.06,152.45Z" style="fill:#263238"></path><path d="M535.7,148c-.41.17-1.76-1.7-4.34-2.64s-4.89-.5-5.07-.89c-.08-.17.4-.56,1.43-.79a7.65,7.65,0,0,1,4.19.37,7.16,7.16,0,0,1,3.32,2.45C535.81,147.31,535.89,147.91,535.7,148Z" style="fill:#263238"></path><path d="M537.49,171.18c0-.15,1.75.17,4.46.81.68.18,1.35.29,1.63-.12a3.61,3.61,0,0,0,.29-2.11c0-1.82,0-3.72-.06-5.72,0-8.13.23-14.71.55-14.7s.61,6.58.63,14.71c0,2,0,3.9,0,5.72a4,4,0,0,1-.63,2.7,1.74,1.74,0,0,1-1.43.56,4.9,4.9,0,0,1-1.18-.27C539.07,171.92,537.45,171.33,537.49,171.18Z" style="fill:#263238"></path><path d="M538.87,141.73c-.52.61-3-.69-6.11-1.46s-5.89-.86-6.06-1.64c-.06-.37.61-.87,1.85-1.17a10.9,10.9,0,0,1,9.26,2.36C538.75,140.68,539.1,141.44,538.87,141.73Z" style="fill:#263238"></path><path d="M562.61,152.56c-.67.41-2.21-.86-4.33-1.69s-4.07-1.08-4.26-1.85c-.07-.36.43-.84,1.43-1.1a6.44,6.44,0,0,1,3.89.38,6.32,6.32,0,0,1,3,2.48C562.9,151.66,562.92,152.35,562.61,152.56Z" style="fill:#263238"></path><path d="M504.83,147.19c-.24-.23-10.21-7.72-14.14,3.85s8.49,13.12,8.63,12.8S504.83,147.19,504.83,147.19Z" style="fill:#ffbe9d"></path><path d="M497.27,158.26c0-.06-.25.07-.64.11a2.14,2.14,0,0,1-1.52-.48c-1.07-.87-1.44-3.16-.78-5.26a7,7,0,0,1,1.54-2.69,2.45,2.45,0,0,1,2-1,1.07,1.07,0,0,1,1,1c0,.38-.1.59-.05.63s.32-.11.38-.62a1.38,1.38,0,0,0-.2-.88,1.59,1.59,0,0,0-1-.67,3,3,0,0,0-2.71,1.07,7.29,7.29,0,0,0-1.8,3c-.71,2.35-.26,4.94,1.24,6a2.26,2.26,0,0,0,1.95.32C497.16,158.53,497.31,158.29,497.27,158.26Z" style="fill:#eb996e"></path><path d="M566.27,129.11c2.22-.41-1.41-8.35-5.33-12-5.93-5.46-15.93-10.93-23-11.22-8.46-.36-16.17,1.36-22.38,7.12s-10.38,13.49-12.81,21.61c-.74,2.47-1.33,5.11-.7,7.62.77,3.1,3.35,5.74,2,9.23a5.12,5.12,0,0,0,0,3.94c1.38,3,4.67,1.7,6.57,0,4-3.7,6.12-9,8.06-14.16,1.38-3.64,2.78-7.37,2.91-11.27.07-2.12-.24-4.25-.05-6.36a7.31,7.31,0,0,1,2.74-5.52,6.75,6.75,0,0,1,1.25-.64,12.75,12.75,0,0,1,12.76,1.67c5.76,4.47,15.78,11.6,19.42,10.35,5.25-1.81,6.94-3.55,6.94-3.55Z" style="fill:#263238"></path><path d="M539.1,104.54c7.08,0,14.3,2.48,19.24,7.54,2.63,2.69,4.62,6.26,4.45,10s-3,7.5-6.77,7.75l-.28.07c-5.5,0-8.49-1.69-12.86-5-3.68-2.8-6.53-6.58-10.22-9.37a24.79,24.79,0,0,0-13.66-5C525.1,107,532,104.57,539.1,104.54Z" style="fill:#263238"></path><path d="M513.32,109.06c.07.12,1.36-.7,3.67-1.42a18.11,18.11,0,0,1,4.13-.77,11.56,11.56,0,0,1,5,.7,16.7,16.7,0,0,1,7.06,5.92c1.35,2,1.8,3.46,1.94,3.41s0-.4-.22-1.06a13,13,0,0,0-1.24-2.66,15.72,15.72,0,0,0-7.24-6.36,11.55,11.55,0,0,0-5.35-.7,16.32,16.32,0,0,0-4.26,1A9.16,9.16,0,0,0,513.32,109.06Z" style="fill:#455a64"></path><path d="M510.86,112.82a10.2,10.2,0,0,0-.17,3.6,25.47,25.47,0,0,0,7,15.68,10.53,10.53,0,0,0,2.79,2.29c.21-.19-4.21-3.68-6.91-9.85S511.13,112.78,510.86,112.82Z" style="fill:#455a64"></path><path d="M552.78,107.69a30.82,30.82,0,0,0,2.71,2.14A26.94,26.94,0,0,1,561,116a27.23,27.23,0,0,1,3.35,7.5,32.6,32.6,0,0,0,.85,3.35,9.71,9.71,0,0,0-.29-3.48,23.17,23.17,0,0,0-9-13.95A9.76,9.76,0,0,0,552.78,107.69Z" style="fill:#455a64"></path><path d="M503.64,215.31s10.23,8.78,21.2,5.36l-2,4.7a28.69,28.69,0,0,1-3.3,5.21,62.36,62.36,0,0,1-13,12.71C502.74,232.13,501.13,223.48,503.64,215.31Z" style="fill:#fff"></path><path d="M567.72,121.9s-1.1-8.92-2.1-16.89c-.64-5.11-5.69-19.23-12-21.08s-8.62.89-11.37.08-6.24-3.54-11.33-2.26-11.68,4.06-14.74,9.37-8.52,14.41-9.69,19.84a35.46,35.46,0,0,1-2.3,7.67S528.22,107.72,567.72,121.9Z" style="fill:#455a64"></path><path d="M567.81,126.42l-1.08-12.49s-18-6.23-29.22-7.23-30.35,1.89-30.35,1.89l-2.54,11.14Z" style="fill:#263238"></path><path d="M547.94,87.48c.09,0,.43,1.27,1.39,3.17a28.54,28.54,0,0,0,4.88,6.72,66,66,0,0,0,6.26,5.55,24.29,24.29,0,0,1,2.67,2.24,3.11,3.11,0,0,1-.81-.48c-.5-.33-1.21-.83-2.08-1.47a50.46,50.46,0,0,1-6.41-5.48A25.21,25.21,0,0,1,549,90.81a16.57,16.57,0,0,1-.89-2.4A3.18,3.18,0,0,1,547.94,87.48Z" style="fill:#263238"></path><path d="M523.08,101.34c0-.09,1.19-.36,3-1.14a22.89,22.89,0,0,0,3.08-1.63A23.27,23.27,0,0,0,532.54,96a24.38,24.38,0,0,0,2.79-3.22,21.41,21.41,0,0,0,1.78-3c.88-1.78,1.21-3,1.3-3a2.49,2.49,0,0,1-.16.86,14.73,14.73,0,0,1-.8,2.26A19.71,19.71,0,0,1,535.72,93a22,22,0,0,1-2.82,3.32A22.81,22.81,0,0,1,529.44,99a20.58,20.58,0,0,1-3.2,1.56,14.52,14.52,0,0,1-2.29.68A2.69,2.69,0,0,1,523.08,101.34Z" style="fill:#263238"></path><path d="M596.79,133.24a2.4,2.4,0,0,1,.08,4.54,104.19,104.19,0,0,1-55.94,4c-35.24-7.21-66.27-27.38-67.27-28-2.55-1.69-.4-2.38.46-2.61s49.69,6,67.3,7.59C555,120,584.11,129.12,596.79,133.24Z" style="fill:#455a64"></path><path d="M467.71,187.65s6.67-21.67,8.48-26.24a7.27,7.27,0,0,1,6-4.76l2.21,4.53c5.49,11.85,26.68,26.44,26.68,26.44s-3.32,2.51-6.84,23.29,2.31,32.38,2.31,32.38" style="fill:#455a64"></path><path d="M506.58,243.29s-.06-.08-.14-.25a8,8,0,0,1-.35-.77,30.1,30.1,0,0,1-1.08-3.08,52.88,52.88,0,0,1-1.95-11.93,77.58,77.58,0,0,1,1.29-18.14c.59-3.4,1.3-7,2.23-10.66.49-1.84,1-3.71,1.64-5.58.33-.94.69-1.87,1.1-2.79a9.27,9.27,0,0,1,1.64-2.68v.42c-2.81-2-5.65-4.14-8.48-6.43-2.27-1.87-4.49-3.75-6.56-5.7-1.06-.95-2-2-3-2.93s-1.94-2-2.81-3a44.55,44.55,0,0,1-4.75-6.36c-1.26-2.26-2.26-4.5-3.31-6.63l.21.13a6.77,6.77,0,0,0-3.46,1.39,7.31,7.31,0,0,0-2.21,2.83c-.92,2.22-1.61,4.44-2.31,6.49l-3.48,10.71c-.95,2.95-1.71,5.28-2.23,6.91-.26.77-.45,1.38-.6,1.82l-.16.47c0,.1-.06.15-.07.15l0-.16.13-.48c.13-.45.31-1.06.53-1.84l2.11-6.95c.92-3,2.05-6.61,3.38-10.75.7-2.06,1.35-4.26,2.29-6.54a7.47,7.47,0,0,1,6-4.51h.15l.07.14c1.05,2.12,2.09,4.39,3.32,6.58a43.52,43.52,0,0,0,4.71,6.27c.87,1,1.86,2,2.8,3s2,2,3,2.91c2.07,1.94,4.27,3.81,6.54,5.67,2.82,2.29,5.66,4.46,8.44,6.42l.24.17-.23.24a9.06,9.06,0,0,0-1.48,2.48c-.41.9-.76,1.82-1.09,2.74-.65,1.85-1.15,3.71-1.64,5.54-.94,3.66-1.65,7.23-2.26,10.62a78.56,78.56,0,0,0-1.4,18.05,55.06,55.06,0,0,0,1.79,11.89,31.76,31.76,0,0,0,1,3.1l.3.78A1.63,1.63,0,0,1,506.58,243.29Z" style="fill:#263238"></path><path d="M429.76,190.24s-17.1,4.32-24.39,30.08c-3.45,12.16-4,15.63-4,15.63l25,.08Z" style="fill:#455a64"></path><path d="M557.1,248.57a6.68,6.68,0,0,1-.42,1.34l-1.32,3.57c-1.12,3-2.65,7.18-4.25,11.82s-3,8.86-4,11.92L546,280.84a8.18,8.18,0,0,1-.48,1.31,6.76,6.76,0,0,1,.29-1.37c.22-.87.56-2.12,1-3.67.89-3.09,2.21-7.34,3.81-12s3.19-8.8,4.4-11.78c.6-1.49,1.1-2.69,1.47-3.52A7.82,7.82,0,0,1,557.1,248.57Z" style="fill:#263238"></path><path d="M504.11,243.29s-.2-.12-.55-.4L502,241.63l-1.09-.92-1.23-1.15c-.89-.83-1.91-1.77-3-2.88a133.87,133.87,0,0,1-15-18.57A124,124,0,0,1,475,206.87a91,91,0,0,1-4.58-9.71,54.33,54.33,0,0,1-2.21-6.9c-.15-.79-.27-1.44-.37-1.93a3.79,3.79,0,0,1-.09-.68,2.93,2.93,0,0,1,.2.66l.46,1.91a63.48,63.48,0,0,0,2.35,6.8,98.93,98.93,0,0,0,4.66,9.62c1.92,3.55,4.23,7.33,6.84,11.18A142.71,142.71,0,0,0,497,236.42c1,1.13,2,2.08,2.89,2.93l1.2,1.18,1.05.95,1.45,1.32A4.31,4.31,0,0,1,504.11,243.29Z" style="fill:#263238"></path><path d="M524.27,274.63a7.91,7.91,0,0,1-.85-1.17c-.52-.78-1.25-1.91-2.14-3.32-1.78-2.81-4.18-6.73-6.73-11.12s-4.78-8.41-6.35-11.35c-.79-1.46-1.41-2.66-1.83-3.49a8.31,8.31,0,0,1-.6-1.32,8.26,8.26,0,0,1,.78,1.22c.52.89,1.18,2,2,3.42,1.71,3,4,6.9,6.48,11.26L521.6,270l2,3.4A7.17,7.17,0,0,1,524.27,274.63Z" style="fill:#263238"></path><path d="M524,252a4,4,0,0,0-5-1.59l-.84.55a3.83,3.83,0,1,0,5.84,1Z" style="fill:#263238"></path><circle cx="519.52" cy="254.03" r="0.69" style="fill:#455a64"></circle><path d="M522.29,254a.69.69,0,1,1-.69-.69A.69.69,0,0,1,522.29,254Z" style="fill:#455a64"></path><path d="M532.11,267a4,4,0,0,0-5-1.59l-.85.55a3.83,3.83,0,1,0,5.84,1Z" style="fill:#263238"></path><circle cx="527.63" cy="269.01" r="0.69" style="fill:#455a64"></circle><circle cx="529.71" cy="269.01" r="0.69" style="fill:#455a64"></circle><path d="M446.89,218.87a4.94,4.94,0,0,1-.51-1c-.36-.73-.78-1.62-1.29-2.66-1.09-2.24-2.66-5.3-4.59-8.57s-3.86-6.13-5.3-8.16l-1.71-2.41a5.22,5.22,0,0,1-.59-.91,4.16,4.16,0,0,1,.75.79c.46.53,1.09,1.32,1.85,2.31a84.83,84.83,0,0,1,9.93,16.79c.5,1.15.89,2.08,1.13,2.74A3.61,3.61,0,0,1,446.89,218.87Z" style="fill:#263238"></path><path d="M445.91,236.46a41.7,41.7,0,0,1,.31-6.48,41.83,41.83,0,0,1,.83-6.43,40.26,40.26,0,0,1-.31,6.48A39.07,39.07,0,0,1,445.91,236.46Z" style="fill:#263238"></path><path d="M474.06,204.7c0,.14-7.53.54-16.84.89s-16.85.51-16.85.36,7.53-.54,16.83-.88S474.05,204.56,474.06,204.7Z" style="fill:#263238"></path><path d="M470.26,196.39a6.55,6.55,0,0,1-1.37,0c-.87,0-2.15-.1-3.71-.15a95.72,95.72,0,0,0-24.33,2.38c-1.53.35-2.77.65-3.62.87a7.66,7.66,0,0,1-1.34.28,6.08,6.08,0,0,1,1.28-.48c.84-.28,2.06-.63,3.59-1a81.18,81.18,0,0,1,12.12-2.13,82.8,82.8,0,0,1,12.31-.26c1.57.1,2.84.21,3.72.32A7.24,7.24,0,0,1,470.26,196.39Z" style="fill:#263238"></path><path d="M556,241.05a14.76,14.76,0,0,1-1.85-1.69,50.51,50.51,0,0,0-4.64-3.85,49.17,49.17,0,0,0-5.08-3.24,17.25,17.25,0,0,1-2.18-1.25,9.68,9.68,0,0,1,2.35.92,34.15,34.15,0,0,1,5.22,3.15,33.2,33.2,0,0,1,4.59,4A9.31,9.31,0,0,1,556,241.05Z" style="fill:#263238"></path><path d="M559.41,238.12a32.62,32.62,0,0,0-3.75-6.33,33.34,33.34,0,0,0-5.44-4.95,6.75,6.75,0,0,1,1.94,1,18.48,18.48,0,0,1,6.63,8.13A6.49,6.49,0,0,1,559.41,238.12Z" style="fill:#263238"></path><path d="M465.94,370.45c-.05,13.27,0,36.5.1,49.82a10.21,10.21,0,0,0,10.21,10.16h67.89a10.21,10.21,0,0,0,10.21-10.21V369.63A10.21,10.21,0,0,0,544,359.42l-68,.86A10.21,10.21,0,0,0,465.94,370.45Z" style="fill:#455a64"></path><circle cx="511.73" cy="389.24" r="8.86" transform="translate(-109.64 224.08) rotate(-22.37)" style="fill:#263238"></circle><path d="M507.1,394.54h9.27a0,0,0,0,1,0,0v16.53a3.95,3.95,0,0,1-3.95,3.95H511a3.95,3.95,0,0,1-3.95-3.95V394.54A0,0,0,0,1,507.1,394.54Z" style="fill:#263238"></path><path d="M489.28,360.16H480v-26a30.18,30.18,0,0,1,60.36,0v12.34H531V334.13a20.86,20.86,0,0,0-41.72,0Z" style="fill:#e0e0e0"></path><path d="M489.28,360.16s0-.19,0-.53l0-1.53c0-1.36,0-3.33,0-5.88s0-5.68-.05-9.32c0-1.82,0-3.77,0-5.84a34.92,34.92,0,0,1,.32-6.6,21.08,21.08,0,0,1,7.73-12.89,20.82,20.82,0,0,1,7.68-3.81,21.2,21.2,0,0,1,9.13-.34,20.61,20.61,0,0,1,8.84,3.9,20.52,20.52,0,0,1,6.39,7.85,20.7,20.7,0,0,1,1,2.44,24.82,24.82,0,0,1,.66,2.57,26.57,26.57,0,0,1,.39,5.35q0,5.37,0,10.94l-.26-.26h9.32l-.26.26v-7.19c0-2.44.07-4.94-.12-7.41a30.65,30.65,0,0,0-2.34-9.58,30.25,30.25,0,0,0-21.06-17.38c-.74-.19-1.49-.25-2.23-.38l-1.1-.17-1.12-.06c-.74,0-1.48-.11-2.21-.09l-2.2.11a29.32,29.32,0,0,0-8.33,1.91c-.32.13-.66.23-1,.37l-.94.45c-.62.32-1.26.58-1.85.93a32.24,32.24,0,0,0-6.43,4.81c-.47.45-.88.95-1.33,1.42a13.22,13.22,0,0,0-1.24,1.47,29.66,29.66,0,0,0-5.91,13,35.86,35.86,0,0,0-.53,6.53l0,6.09c0,7.77-.05,14.14-.06,18.82l-.1-.1,6.91.06,1.79,0,.62,0-.59,0-1.76,0-7,.06h-.1v-.1c0-4.68,0-11.05-.06-18.82,0-1.95,0-4,0-6.09a37.7,37.7,0,0,1,.51-6.6,30.07,30.07,0,0,1,5.95-13.23,14.93,14.93,0,0,1,1.26-1.5c.45-.48.86-1,1.35-1.45a32.11,32.11,0,0,1,3.06-2.61,29,29,0,0,1,3.45-2.28c.59-.36,1.25-.62,1.87-.94l1-.47c.32-.14.66-.25,1-.38a29.89,29.89,0,0,1,8.47-2l2.22-.12c.75,0,1.5.06,2.26.09l1.13.06,1.12.17c.75.13,1.52.19,2.26.38a30.45,30.45,0,0,1,16.12,9.41,30.76,30.76,0,0,1,5.32,8.26,31.33,31.33,0,0,1,2.38,9.74c.19,2.53.09,5,.12,7.45v7.45h-9.84v-.25q0-5.57,0-10.94a26.94,26.94,0,0,0-.37-5.26c-.17-.85-.39-1.69-.64-2.51a20.34,20.34,0,0,0-7.2-10.07,20.12,20.12,0,0,0-8.63-3.83,21,21,0,0,0-8.94.3,20.74,20.74,0,0,0-15.19,16.36,35.12,35.12,0,0,0-.35,6.56c0,2.09,0,4.05,0,5.89,0,3.65,0,6.79,0,9.35s0,4.49-.05,5.84v1.5C489.29,360,489.28,360.16,489.28,360.16Z" style="fill:#263238"></path><path d="M564.62,338.33a62.72,62.72,0,0,1-6.75,4.26,60.22,60.22,0,0,1-7,3.81,122.54,122.54,0,0,1,13.76-8.07Z" style="fill:#263238"></path><path d="M554.12,333a34.29,34.29,0,0,1-2.14,5.52,35,35,0,0,1-2.62,5.31,33.18,33.18,0,0,1,2.14-5.52A35,35,0,0,1,554.12,333Z" style="fill:#263238"></path><path d="M560.62,354a20.53,20.53,0,0,1-4.16-1.87,20.23,20.23,0,0,1-3.93-2.33,39.81,39.81,0,0,1,8.09,4.2Z" style="fill:#263238"></path><path d="M582.2,347.54c2.87-2.7,8.24.3,10.71,3.37l-.88-1.22c3.59,4.7,4.84,9.34,3.31,15.05-1.24,4.63-2.76,9.64-3.92,11.54l-5.29,8.62a7,7,0,0,1-5.32,3.39,2,2,0,0,1-1.3-.22l-3.68-.82s-4.15,2.34-6.88,3.47-8.61.34-8.61.34L548,402.16a3.85,3.85,0,0,1-4.23.7,1.63,1.63,0,0,1-1-2.13c.84-2.76,10.43-13,10.43-13l1.77-2.59,8.34-12h0a1.53,1.53,0,0,0-2.53-.81l-2.63,2.41-3.57,6.56s-3.65,2.49-6,.57l3.81-11.17,8.28-10.79s14.85-6.16,18.32-9.41C580,349.59,581.11,348.55,582.2,347.54Z" style="fill:#ffbe9d"></path><path d="M570.16,382.65c.13.09-1.62,2.5-4.39,4.86s-5.41,3.73-5.48,3.59,2.37-1.72,5.08-4.05S570,382.53,570.16,382.65Z" style="fill:#eb996e"></path><path d="M578.78,384.76c.15.14-1,1.33-2.7,2.4a10.17,10.17,0,0,1-3.2,1.68c-.09-.15,1.21-1.1,2.86-2.19A22.84,22.84,0,0,1,578.78,384.76Z" style="fill:#eb996e"></path><path d="M551.07,390.09a31,31,0,0,1,2.24-3c1.41-1.83,3.31-4.39,5.32-7.29,1-1.44,1.94-2.84,2.78-4.11a12.68,12.68,0,0,0,1.76-3.55,6.08,6.08,0,0,0-.13-3.6s.27.27.48.91a5.35,5.35,0,0,1,.07,2.79,12,12,0,0,1-1.71,3.75c-.82,1.3-1.74,2.71-2.75,4.16-2,2.91-4,5.44-5.48,7.21A18.25,18.25,0,0,1,551.07,390.09Z" style="fill:#eb996e"></path><path d="M562.54,371c.05.09-.79.53-1.93,1.49a13.23,13.23,0,0,0-3.48,4.57,17.45,17.45,0,0,1-1.42,3,4.85,4.85,0,0,1-2.15,1.74,5.25,5.25,0,0,1-2.41.59c0-.11.91-.3,2.22-1a4.69,4.69,0,0,0,1.87-1.66,20.67,20.67,0,0,0,1.33-2.92,12,12,0,0,1,3.77-4.66A5.64,5.64,0,0,1,562.54,371Z" style="fill:#eb996e"></path><path d="M600.87,367.19a1.81,1.81,0,0,1-.18-.48c-.12-.37-.26-.83-.43-1.39-.37-1.21-.87-3-1.65-5.08a28.55,28.55,0,0,0-3.6-7,16.11,16.11,0,0,0-7.4-5.83,14,14,0,0,0-9.37.22,22.14,22.14,0,0,0-6.73,4,42.89,42.89,0,0,0-3.83,3.7l-1,1.07c-.23.24-.36.37-.37.35a2.64,2.64,0,0,1,.29-.42c.2-.26.51-.65.91-1.13a36.24,36.24,0,0,1,3.75-3.85,21.84,21.84,0,0,1,6.81-4.15,14.33,14.33,0,0,1,9.7-.27,16.49,16.49,0,0,1,7.62,6,28.1,28.1,0,0,1,3.56,7.15c.73,2.14,1.18,3.92,1.49,5.15.14.56.25,1,.34,1.42A1.71,1.71,0,0,1,600.87,367.19Z" style="fill:#263238"></path><path d="M591.72,302.33c0,.1-1.58,0-4.1.27a31,31,0,0,0-9.47,2.7,28.74,28.74,0,0,0-8.11,5.58c-1.8,1.79-2.64,3.13-2.73,3.07a4.51,4.51,0,0,1,.56-1,9.77,9.77,0,0,1,.77-1.05,13.81,13.81,0,0,1,1.14-1.32,26.55,26.55,0,0,1,8.15-5.79,28.43,28.43,0,0,1,9.65-2.59,19.83,19.83,0,0,1,3,0A4.85,4.85,0,0,1,591.72,302.33Z" style="fill:#263238"></path><path d="M557.1,183.67a29.62,29.62,0,0,1,4,3.16,33.07,33.07,0,0,1,4,4.41,24.38,24.38,0,0,1,3.76,6.95l0,.12-.1.08-23.63,20.38,0-.41,3.45,2.59,3.84,2.89.36.27-.41.17-32.55,13.6-9.74,4L507.51,243l-.69.26c-.16.06-.24.08-.24.07l.22-.12.67-.31,2.61-1.14,9.68-4.16,32.48-13.76-.06.45-3.85-2.89-3.44-2.58-.26-.2.25-.21,23.71-20.27-.06.19a23.87,23.87,0,0,0-3.64-6.86A33.48,33.48,0,0,0,561,187c-.58-.58-1.14-1.05-1.61-1.46s-.89-.75-1.23-1l-.77-.61A1.55,1.55,0,0,1,557.1,183.67Z" style="fill:#263238"></path><path d="M536.11,181.3c-.35.28-1.85-1.06-3.79-2.51s-3.62-2.56-3.45-3,2.29.12,4.39,1.72S536.44,181.05,536.11,181.3Z" style="fill:#263238"></path><g style="opacity:0.30000000000000004"><path d="M591.32,298.51c-2.88-1.91-6.77-1.08-9.9.38A28.54,28.54,0,0,0,567.31,314l1-1.64c5.17-6.29,13.31-9.54,21.46-9.8a2.89,2.89,0,0,0,2.69-2.1A2.09,2.09,0,0,0,591.32,298.51Z"></path></g></g></svg>