<svg style="enable-background:new 0 0 512 512" height="512" width="512"
    xmlns="http://www.w3.org/2000/svg" xml:space="preserve"><path style="fill:#4d5a68" d="M392 76v45l-30 30H30L0 121V76c0-24.901 20.099-46 45-46h302c24.901 0 45 21.099 45 46z"/>
    <path style="fill:#304653" d="M392 76v45l-30 30H196V30h151c24.901 0 45 21.099 45 46z" />
    <path style="fill:#ffca42"
        d="M392 121v345c0 24.899-20.099 46-45 46H45c-24.901 0-45-21.101-45-46V121h392z" />
    <path style="fill:#ffaf3e" d="M392 121v345c0 24.899-20.099 46-45 46H196V121h196z" />
    <path style="fill:#cad4e4"
        d="M75 91c-8.291 0-15-6.709-15-15V15c0-8.291 6.709-15 15-15s15 6.709 15 15v61c0 8.291-6.709 15-15 15zM136 91c-8.291 0-15-6.709-15-15V15c0-8.291 6.709-15 15-15s15 6.709 15 15v61c0 8.291-6.709 15-15 15zM211 15v61c0 8.399-6.599 15-15 15s-15-6.601-15-15V15c0-8.401 6.599-15 15-15s15 6.599 15 15z" />
    <path style="fill:#adb5cc"
        d="M257 91c-8.291 0-15-6.709-15-15V15c0-8.291 6.709-15 15-15s15 6.709 15 15v61c0 8.291-6.709 15-15 15zM317 91c-8.291 0-15-6.709-15-15V15c0-8.291 6.709-15 15-15s15 6.709 15 15v61c0 8.291-6.709 15-15 15z" />
    <path style="fill:#dd864d"
        d="M211 406c0 8.399-6.599 15-15 15H75c-8.401 0-15-6.601-15-15 0-8.401 6.599-15 15-15h121c8.401 0 15 6.599 15 15zM166 331H75c-8.291 0-15-6.709-15-15s6.709-15 15-15h91c8.291 0 15 6.709 15 15s-6.709 15-15 15zM136 241H75c-8.291 0-15-6.709-15-15s6.709-15 15-15h61c8.291 0 15 6.709 15 15s-6.709 15-15 15z" />
    <path style="fill:#304653"
        d="M409.935 324.164c5.067-84.618 64.045-132.937 67.493-137.79 6.776-6.997 5.152-18.541-3.293-23.417l-18.686-10.789c-7.18-4.146-9.636-13.31-5.49-20.49 4.146-7.18 13.31-9.636 20.49-5.49l18.686 10.789c25.341 14.63 30.214 49.185 9.847 70.248-4.853 6.77-54.64 44.06-59.098 118.737-.497 8.272-7.602 14.572-15.874 14.076-8.342-.524-14.558-7.661-14.075-15.874z" />
    <path style="fill:#4d5a68"
        d="m505.944 94.719-22.5 38.971-38.902 12.181-30.139-17.401-8.902-39.781 22.5-38.971c12.45-21.564 39.907-28.921 61.471-16.471s28.922 39.908 16.472 61.472z" />
    <path style="fill:#304653"
        d="m444.542 145.871-15.069-8.7 60-103.923c21.564 12.45 28.921 39.907 16.471 61.471l-22.5 38.971-38.902 12.181z" />
    <path style="fill:#e9336d"
        d="m342.543 380.737-80.54-46.5c4.252-43.963 20.175-85.346 47.532-120.128 4.639-5.635 85.286-108.723 89.067-113.469l6.899-11.95 77.942 45-6.75 11.692c-.45.779-52.003 129.671-53.883 134.127-16.443 41.083-44.32 75.565-80.267 101.228z" />
    <path style="fill:#b12e65"
        d="m342.543 380.737-40.27-23.25 142.2-246.297 38.971 22.5-6.75 11.692c-.45.779-52.003 129.671-53.883 134.127-16.444 41.083-44.321 75.565-80.268 101.228z" />
    <path style="fill:#cad4e4"
        d="M318.773 328.909c-16.108-9.3-35.496-8.717-51.172 1.632l-5.598 3.697c-.162 2.678-.842 5.058-1.002 7.735l-3.818 63.615-13.2 22.863c-4.199 7.274-1.785 16.29 5.49 20.49s16.291 1.783 20.49-5.49l13.2-22.863 53.182-35.114c2.238-1.478 3.958-3.256 6.197-4.735l.403-6.696c1.125-18.751-8.064-35.834-24.172-45.134z" />
    <path style="fill:#adb5cc"
        d="m318.773 328.909-39.3 68.069-30 51.962c7.275 4.2 16.291 1.783 20.49-5.49l13.2-22.863 53.182-35.114c2.238-1.478 3.958-3.256 6.197-4.735l.403-6.696c1.125-18.75-8.064-35.833-24.172-45.133zM196 91V0c8.401 0 15 6.599 15 15v61c0 8.399-6.599 15-15 15z" />
    <path style="fill:#d36836" d="M211 406c0 8.399-6.599 15-15 15v-30c8.401 0 15 6.599 15 15z" /></svg>