<?xml version="1.0" encoding="UTF-8"?>
<svg height="16px" viewBox="0 0 16 16" width="16px" xmlns="http://www.w3.org/2000/svg">
    <g id="surface20742565">
        <path style=" stroke:none;fill-rule:nonzero;fill:rgb(58.431375%,64.705884%,65.098041%);fill-opacity:1;"
              d="M 8 0.960938 C 5.875 0.960938 4.160156 2.675781 4.160156 4.800781 L 4.160156 6.398438 L 2.878906 6.398438 C 2.355469 6.398438 1.921875 6.832031 1.921875 7.359375 L 1.921875 15.039062 C 1.921875 15.566406 2.355469 16 2.878906 16 L 13.121094 16 C 13.644531 16 14.078125 15.566406 14.078125 15.039062 L 14.078125 7.359375 C 14.078125 6.832031 13.644531 6.398438 13.121094 6.398438 L 11.839844 6.398438 L 11.839844 4.800781 C 11.839844 2.675781 10.125 0.960938 8 0.960938 Z M 8 1.601562 C 9.78125 1.601562 11.199219 3.019531 11.199219 4.800781 L 11.199219 6.398438 L 4.800781 6.398438 L 4.800781 4.800781 C 4.800781 3.019531 6.21875 1.601562 8 1.601562 Z M 2.878906 7.039062 L 13.121094 7.039062 C 13.296875 7.039062 13.441406 7.183594 13.441406 7.359375 L 13.441406 15.039062 C 13.441406 15.21875 13.296875 15.359375 13.121094 15.359375 L 2.878906 15.359375 C 2.703125 15.359375 2.558594 15.21875 2.558594 15.039062 L 2.558594 7.359375 C 2.558594 7.183594 2.703125 7.039062 2.878906 7.039062 Z M 8 9.601562 C 7.457031 9.601562 7.039062 10.015625 7.039062 10.558594 C 7.039062 10.847656 7.167969 11.101562 7.359375 11.261719 L 7.359375 12.160156 C 7.359375 12.511719 7.648438 12.800781 8 12.800781 C 8.351562 12.800781 8.640625 12.511719 8.640625 12.160156 L 8.640625 11.261719 C 8.832031 11.101562 8.960938 10.847656 8.960938 10.558594 C 8.960938 10.015625 8.542969 9.601562 8 9.601562 Z M 8 9.601562 "/>
    </g>
</svg>
