<?xml version="1.0" encoding="UTF-8"?>
<svg height="16px" viewBox="0 0 16 16" width="16px" xmlns="http://www.w3.org/2000/svg">
    <g id="surface21621190">
        <path
            style=" stroke:none;fill-rule:nonzero;fill:rgb(58.431375%,64.705884%,65.098041%);fill-opacity:1;"
            d="M 3.863281 2 C 2.285156 2 1 3.300781 1 4.886719 L 1 13 L 8 13 L 8 15 L 9 15 L 9 13 L 15 13 L 15 4.886719 C 15.003906 3.300781 13.714844 2 12.136719 2 Z M 3.863281 3 L 4.136719 3 C 5.171875 3 6 3.835938 6 4.886719 L 6 12 L 2 12 L 2 4.882812 C 2.003906 3.835938 2.832031 3 3.863281 3 Z M 6.28125 3 L 12.136719 3 C 13.167969 3 14 3.835938 14 4.886719 L 14 12 L 7 12 L 7 4.886719 C 7 4.164062 6.722656 3.507812 6.28125 3 Z M 8 5 L 8 6 L 12 6 L 12 7 L 13 7 L 13 5 Z M 3 6 L 3 7 L 5 7 L 5 6 Z M 3 6 "/>
    </g>
</svg>
