<svg xmlns="http://www.w3.org/2000/svg" viewBox="0 0 91.21 128.78"><g id="Layer_2" data-name="Layer 2"><g id="OBJECTS"><path d="M79.19,104.16c-1.61-1.29-7.74-2.9-14.32-4.33a37.83,37.83,0,0,1-3.69,9.32c-.89,1.4-1.76,2.07-2.63,2.07h-.11c-3.27-.22-11.64-9.86-13.7-12.28C42.68,101.36,34.31,111,31,111.22h-.11c-.87,0-1.74-.67-2.64-2.07a38.93,38.93,0,0,1-3.79-9.73c-4.65,1.9-12,5.06-15.21,7.23-4,2.72-6.88,10.55-7.82,13.42,3,1.15,22.51,5.75,46.07,7.21,1.72.11,3.47.16,5.19.16A83.55,83.55,0,0,0,89.65,119C88.48,116.65,83.87,107.91,79.19,104.16Z" fill="#6cc1ec"/><path d="M91.14,119c-.22-.46-5.48-11.34-11.11-15.84-1.83-1.47-8.26-3.16-14.82-4.59.84-3.4,1.25-6.47.84-7.7-.32-3-4-4.52-8-5.29-.23-.85-.43-1.73-.62-2.63a29.45,29.45,0,0,0,6.85-4.85A40.07,40.07,0,0,0,75.77,57.61l.37,0c.35,0,.71,0,1.06,0a7.08,7.08,0,0,0,3-.57c3.07-1.4,4.75-6.11,5.25-8.67a10.76,10.76,0,0,0-1.44-8.11,8.09,8.09,0,0,0-1.9-1.93c.09-.36.18-.71.25-1.09,1.8-9.48-.77-27-15.33-33.63A41.34,41.34,0,0,0,49.78,0C36.18,0,23.61,6.08,17.69,11.74,12,17.15,10.06,30.81,11.24,38.67A11.17,11.17,0,0,0,8,44.09c-1.37,5-.47,11.21,4.73,13a10.81,10.81,0,0,0,3,.52c.35,0,.7,0,1.05,0h.15a56.86,56.86,0,0,0,6.85,16.56A25.78,25.78,0,0,0,32,82.33c-.12,1.4-.26,2.94-.44,4.52-3.25.84-5.91,1.91-7.44,3.19a1.34,1.34,0,0,0-.62.61h0s0,0,0,.07c-.44,1.12-.08,4.06.72,7.37-4.68,1.91-12.28,5.15-15.63,7.44-4.4,3-7.38,11.12-8.46,14.48l0,.14a.8.8,0,0,0,.09.62c.85,1.26,23.2,6.34,47.34,7.84,1.74.1,3.52.16,5.27.16h0c22.32,0,38-8.86,38.13-9A.65.65,0,0,0,91.14,119Zm-38.41,8.48c-1.72,0-3.47,0-5.19-.16C24,125.82,4.46,121.22,1.47,120.07c.94-2.87,3.83-10.7,7.82-13.42,3.18-2.17,10.56-5.33,15.21-7.23a38.93,38.93,0,0,0,3.79,9.73c.9,1.4,1.77,2.07,2.64,2.07H31c3.27-.22,11.64-9.86,13.7-12.28,2.06,2.42,10.43,12.06,13.7,12.28h.11c.87,0,1.74-.67,2.63-2.07a37.83,37.83,0,0,0,3.69-9.32c6.58,1.43,12.71,3,14.32,4.33,4.68,3.75,9.29,12.49,10.46,14.81A83.55,83.55,0,0,1,52.73,127.44Zm-43.44-83a10.17,10.17,0,0,1,2.25-4.18h0c.66,2.86,1.78,4.55,3.31,5l.12,0a67.64,67.64,0,0,0,1.6,11l-.78,0a10,10,0,0,1-2.61-.45C8.78,54.32,8.08,48.86,9.29,44.44Zm9.32-31.73c4.79-4.57,17-11.37,31.17-11.37A40,40,0,0,1,66.52,4.89c13.12,6,16.42,22.42,14.57,32.17-.71,3.71-2.13,6.15-3.63,6.23h-.17c-4.91,0-10-11.64-11.59-16.12a.67.67,0,0,0-1-.34A24.88,24.88,0,0,1,51.05,30.4c-11.64,0-23.17-5.61-23.29-5.67a.65.65,0,0,0-.53,0,.66.66,0,0,0-.38.37C23.61,33,17.92,44,15.4,44a.4.4,0,0,1-.15,0c-1-.31-1.87-1.75-2.41-4C11.21,33,13,18.11,18.61,12.71ZM84.18,48.18c-.59,3-2.25,6.69-4.5,7.71a5.73,5.73,0,0,1-2.48.45c-.33,0-.65,0-1,0l-.16,0a64.66,64.66,0,0,0,1.3-11.66h.16c1.78-.09,3.27-1.84,4.24-4.85a6.53,6.53,0,0,1,1.17,1.3A9.43,9.43,0,0,1,84.18,48.18Zm-67.88-3c4.09-1.82,9.81-14.85,11.52-18.93,2.63,1.19,12.87,5.5,23.23,5.5A26.65,26.65,0,0,0,64.72,28.4c1.18,3.14,5.77,14.48,11.32,16-.34,14.22-4.48,24.91-12.68,32.65A26.78,26.78,0,0,1,45,84.62,23.52,23.52,0,0,1,24.89,73.51C20,65.93,16.88,55.16,16.3,45.16ZM45,86h0a27.3,27.3,0,0,0,11.2-2.46,56.06,56.06,0,0,0,2.66,8.74l-.44.23c-4.16,2.2-9.33,4.93-13.51,4.93a.76.76,0,0,0-.16,0,.53.53,0,0,0-.12,0C40.71,97.4,36,95,32,92.94a98.4,98.4,0,0,0,1.29-9.87A24.76,24.76,0,0,0,45,86Zm15.09,22.47c-.69,1.07-1.24,1.46-1.51,1.46v.67l0-.67c-2.08-.14-8.28-6.59-12.27-11.24,4.19-.47,8.89-3,12.75-5,2.4-1.27,4.67-2.46,5.63-2.46h.15C65.53,92.86,62.9,104,60.06,108.43Zm0-16.82C59.52,90.28,59,88.7,58.46,87c3,.65,5,1.65,5.86,2.92A14.79,14.79,0,0,0,60,91.61Zm-29.3.68a36.68,36.68,0,0,0-4.45-2.12,24,24,0,0,1,5.07-1.9C31.18,89.65,31,91,30.74,92.29Zm-6.06-1.07a.41.41,0,0,1,.16,0c1,0,3.23,1.19,5.63,2.46,3.86,2,8.56,4.52,12.75,5-4,4.65-10.2,11.1-12.27,11.24l0,.67v-.67c-.27,0-.82-.39-1.51-1.46C26.57,104,24,92.84,24.68,91.22Z" fill="#826355"/><path d="M30.74,92.29c.23-1.27.44-2.64.62-4a24,24,0,0,0-5.07,1.9A36.68,36.68,0,0,1,30.74,92.29Z" fill="#5ea6cb"/><path d="M58.46,87C59,88.7,59.52,90.28,60,91.61a14.79,14.79,0,0,1,4.28-1.72C63.49,88.62,61.46,87.62,58.46,87Z" fill="#5ea6cb"/><path d="M32,92.94C36,95,40.71,97.4,44.6,97.4a.53.53,0,0,1,.12,0,.76.76,0,0,1,.16,0c4.18,0,9.35-2.73,13.51-4.93l.44-.23a56.06,56.06,0,0,1-2.66-8.74A27.3,27.3,0,0,1,45,86h0a24.76,24.76,0,0,1-11.71-2.89A98.4,98.4,0,0,1,32,92.94Z" fill="#fdce9f"/><path d="M13.18,55.86a10,10,0,0,0,2.61.45l.78,0a67.64,67.64,0,0,1-1.6-11l-.12,0c-1.53-.48-2.65-2.17-3.31-5h0a10.17,10.17,0,0,0-2.25,4.18C8.08,48.86,8.78,54.32,13.18,55.86Z" fill="#fdce9f"/><path d="M81.77,39.78c-1,3-2.46,4.76-4.24,4.85h-.16a64.66,64.66,0,0,1-1.3,11.66l.16,0c.32,0,.64,0,1,0a5.73,5.73,0,0,0,2.48-.45c2.25-1,3.91-4.72,4.5-7.71a9.43,9.43,0,0,0-1.24-7.1A6.53,6.53,0,0,0,81.77,39.78Z" fill="#fdce9f"/><path d="M24.89,73.51A23.52,23.52,0,0,0,45,84.62a26.78,26.78,0,0,0,18.39-7.53C71.56,69.35,75.7,58.66,76,44.44c-5.55-1.56-10.14-12.9-11.32-16a26.65,26.65,0,0,1-13.67,3.33c-10.36,0-20.6-4.31-23.23-5.5-1.71,4.08-7.43,17.11-11.52,18.93C16.88,55.16,20,65.93,24.89,73.51Z" fill="#fdce9f"/><path d="M29.42,108.43c.69,1.07,1.24,1.46,1.51,1.46v.67l0-.67c2.07-.14,8.28-6.59,12.27-11.24-4.19-.47-8.89-3-12.75-5-2.4-1.27-4.67-2.46-5.63-2.46a.41.41,0,0,0-.16,0C24,92.84,26.57,104,29.42,108.43Z" fill="#6cc1ec"/><path d="M64.79,91.21h-.15c-1,0-3.23,1.19-5.63,2.46-3.86,2-8.56,4.52-12.75,5,4,4.65,10.19,11.1,12.27,11.24l0,.67v-.67c.27,0,.82-.39,1.51-1.46C62.9,104,65.53,92.86,64.79,91.21Z" fill="#6cc1ec"/><path d="M12.84,40c.54,2.3,1.39,3.74,2.41,4a.4.4,0,0,0,.15,0c2.52,0,8.21-11.09,11.45-19a.66.66,0,0,1,.38-.37.65.65,0,0,1,.53,0c.12.06,11.65,5.67,23.29,5.67a24.88,24.88,0,0,0,13.66-3.56.67.67,0,0,1,1,.34c1.56,4.48,6.68,16.12,11.59,16.12h.17c1.5-.08,2.92-2.52,3.63-6.23,1.85-9.75-1.45-26.18-14.57-32.17A40,40,0,0,0,49.78,1.34c-14.13,0-26.38,6.8-31.17,11.37C13,18.11,11.21,33,12.84,40Z" fill="#a4958c"/><path d="M64.72,28.4a26.65,26.65,0,0,1-13.67,3.33c-10.36,0-20.6-4.31-23.23-5.5-1.71,4.08-7.43,17.11-11.52,18.93,0,.58.11,1.18.16,1.77a20,20,0,0,0,4.74-2.52c3.8-2.73,6.68-6.54,9.2-10.47a34,34,0,0,0,29.4.65c1,4.74,4.63,8.53,8.82,10.93a24,24,0,0,0,7.22,2.74c.09-1.25.16-2.51.2-3.82C70.49,42.88,65.9,31.54,64.72,28.4Z" fill="#fab381"/><path d="M16.57,56.33a67.64,67.64,0,0,1-1.6-11l-.12,0c-1.53-.48-2.65-2.17-3.31-5h0A9.71,9.71,0,0,0,9.6,43.52a20.86,20.86,0,0,1,6.83,12.81Z" fill="#fab381"/><path d="M82.94,41.08a6.53,6.53,0,0,0-1.17-1.3c-1,3-2.46,4.76-4.24,4.85h-.16a64.66,64.66,0,0,1-1.3,11.66l.16,0c.32,0,.64,0,1,0a7.14,7.14,0,0,0,1.46-.13,19,19,0,0,1,3.21-12.92,7,7,0,0,1,1.46-1.57C83.21,41.5,83.08,41.29,82.94,41.08Z" fill="#fab381"/><path d="M56.28,84c0-.15-.08-.3-.11-.45A27.3,27.3,0,0,1,45,86h0a24.76,24.76,0,0,1-11.71-2.89A98.4,98.4,0,0,1,32,92.94l.64.33c1.42-.22,2.83-.5,4.23-.78A58.15,58.15,0,0,0,47.31,89.7,29.27,29.27,0,0,0,56.28,84Z" fill="#fab381"/><path d="M74.74,27.72A26.56,26.56,0,0,1,70,19.66c-6.41,2.55-13.13,4.6-20,4.84s-14-1.48-19.41-5.81a2.69,2.69,0,0,0-2.07-.88A2.56,2.56,0,0,0,27.14,19a61.29,61.29,0,0,1-8.45,9.4c-1.55,1.41-3.3,2.79-5.38,3.08a4.66,4.66,0,0,1-1,0A32,32,0,0,0,12.84,40c.54,2.3,1.39,3.74,2.41,4a.4.4,0,0,0,.15,0c2.52,0,8.21-11.09,11.45-19a.66.66,0,0,1,.38-.37.65.65,0,0,1,.53,0c.12.06,11.65,5.67,23.29,5.67a24.88,24.88,0,0,0,13.66-3.56.67.67,0,0,1,1,.34c1.56,4.48,6.68,16.12,11.59,16.12h.17c1.5-.08,2.92-2.52,3.63-6.23a30.1,30.1,0,0,0,.46-5.64A11.62,11.62,0,0,1,74.74,27.72Z" fill="#90837c"/><path d="M43.22,98.65a18.89,18.89,0,0,1-3.54-.8,13.76,13.76,0,0,1-8.31,6.93,12.81,12.81,0,0,1-3.53.5,20.48,20.48,0,0,0,1.58,3.15c.69,1.07,1.24,1.46,1.51,1.46v.67l0-.67C33,109.75,39.23,103.3,43.22,98.65Z" fill="#5ea6cb"/><path d="M59.13,106.15c-4.3-.54-7.26-4.35-9.15-8.36a18.78,18.78,0,0,1-3.72.86c4,4.65,10.19,11.1,12.27,11.24l0,.67v-.67c.27,0,.82-.39,1.51-1.46a17.53,17.53,0,0,0,1.21-2.31A8.06,8.06,0,0,1,59.13,106.15Z" fill="#5ea6cb"/><path d="M57.47,114.14a4.84,4.84,0,0,0,2.5-1.45c2.58-2.53,3.54-6.08,4-9.76a29.89,29.89,0,0,1-2.74,6.22c-.89,1.4-1.76,2.07-2.63,2.07h-.11c-3.27-.22-11.64-9.86-13.7-12.28C42.68,101.36,34.31,111,31,111.22h-.11c-.87,0-1.74-.67-2.64-2.07a38.93,38.93,0,0,1-3.79-9.73c-2.32.94-5.31,2.2-8.12,3.5A22.83,22.83,0,0,0,20,109.7a28.56,28.56,0,0,0,5.57,4.7c1.78,1.25,3.73,2.56,5.91,2.49a8.36,8.36,0,0,0,4.16-1.59,25.25,25.25,0,0,0,9.12-10.39,28.58,28.58,0,0,1,6.83,5.61C53.19,112.32,55.09,114.55,57.47,114.14Z" fill="#5ea6cb"/><path d="M44.46,102.26c-2.94,0-2.94,4.55,0,4.55S47.39,102.26,44.46,102.26Z" fill="#826355"/><path d="M44.46,118.61c-2.94,0-2.94,4.55,0,4.55S47.39,118.61,44.46,118.61Z" fill="#826355"/><path d="M37,43.58c-.62-2.62-5.89-1.9-7.18-.26a1,1,0,0,0,.92,1.57,11.22,11.22,0,0,1,2.7-.59c1,0,1.91.78,2.9.43A1,1,0,0,0,37,43.58Z" fill="#90837c"/><path d="M34.9,47.55a2.53,2.53,0,0,0-.22-.13,1.77,1.77,0,0,0-2.46.09l-.06,0c-1.24,1.11-.62,3-.42,4.4l.06,0A1.7,1.7,0,0,0,33,53.25,1.86,1.86,0,0,0,35.32,52C35.52,50.52,36.14,48.66,34.9,47.55Z" fill="#826355"/><path d="M53.06,43.58c.61-2.62,5.89-1.9,7.17-.26a.94.94,0,0,1-.91,1.57,11.22,11.22,0,0,0-2.7-.59c-1,0-1.91.78-2.9.43A1,1,0,0,1,53.06,43.58Z" fill="#90837c"/><path d="M55.19,47.55a2.39,2.39,0,0,1,.21-.13,1.79,1.79,0,0,1,2.47.09l.06,0c1.24,1.11.62,3,.42,4.4l-.06,0a1.7,1.7,0,0,1-1.24,1.32A1.85,1.85,0,0,1,54.77,52C54.57,50.52,54,48.66,55.19,47.55Z" fill="#826355"/><path d="M45.81,59.21c-.73,0-1.58.9-2.29.32a.71.71,0,0,0-1.1.86,2.69,2.69,0,0,0,1.93,1.38c1,.18,2.46-.36,2.43-1.6A1,1,0,0,0,45.81,59.21Z" fill="#fab381"/><path d="M48,66.35c-1.17-.37-2.1.43-3.21.68a3.47,3.47,0,0,1-2.7-.49A1.55,1.55,0,0,0,40.22,69a7.08,7.08,0,0,0,4.74,2c1.74.09,4.29-1,4.25-3A1.69,1.69,0,0,0,48,66.35Z" fill="#f48a6d"/><path d="M34.09,47.58a.87.87,0,0,0,0,1.73A.87.87,0,0,0,34.09,47.58Z" fill="#fff"/><path d="M57.28,47.58a.87.87,0,0,0,0,1.73A.87.87,0,0,0,57.28,47.58Z" fill="#fff"/></g></g></svg>