<svg xmlns="http://www.w3.org/2000/svg" viewBox="0 0 747.25 1048.86">
    <defs>
        <clipPath id="clip-path">
            <circle cx="373.62" cy="373.62" r="373.62" fill="none" />
        </clipPath>
    </defs>
    <g id="Layer_2" data-name="Layer 2">
        <g id="Design">
            <g clip-path="url(#clip-path)">
                <circle cx="373.62" cy="373.62" r="373.62" fill="#f1f1f1" />
                <path
                    d="M333.77,143.22s-26.17-21.87-43.17,4.63-2.66,60.5,2.42,74,20.08,80.72,20.08,80.72,3,11.28,25,26.28,18-27.22,18-27.22Z"
                    fill="#120283" />
                <path
                    d="M716.92,1040l-121.79,1.51-7.08.08-383.35,4.75-39.64.49-165,2H0s.31-8.24,1.07-22.85q.18-3.51.4-7.5c.25-4.64.54-9.77.88-15.33q.21-3.57.45-7.38c.06-.84.11-1.7.16-2.56.54-8.63,1.17-18.1,1.9-28.29q.22-3.06.45-6.2c.16-2.1.31-4.22.47-6.37s.33-4.32.5-6.53.34-4.43.52-6.68.36-4.53.54-6.83.38-4.63.57-7C14.33,847.86,25.44,745.28,44,652.1q2.1-10.59,4.87-20.39,1.1-3.93,2.3-7.72t2.49-7.48q1.93-5.52,4.08-10.78,2.85-7,6-13.56,2.38-4.9,4.95-9.57T74,573.51c.61-1,1.22-2,1.83-2.92q1.85-2.9,3.76-5.69c.64-.93,1.28-1.85,1.93-2.76q4.85-6.85,10.08-13.07c.7-.83,1.4-1.66,2.1-2.47q4.22-4.89,8.64-9.39l2.22-2.23c67.56-67,163.9-70.93,176.68-74l.55-.14c.63-.16,1.27-.35,1.91-.55l.89-.29.9-.31.89-.34.9-.36c.28-.11.57-.23.85-.36a49.86,49.86,0,0,0,9.15-5.22c.5-.36,1-.73,1.5-1.12l.92-.72c.61-.49,1.22-1,1.82-1.52.3-.26.6-.52.9-.8l.88-.81.91-.88c.59-.58,1.17-1.18,1.76-1.8.3-.31.58-.62.86-.94l.86-1c.29-.33.57-.66.85-1s.56-.68.83-1l0,0,.8-1c7.76-10.15,14-24.21,16.5-42.73,5.34-39.41-.27-125.74-.27-125.74L358.33,291l61.77,36.32c-1,24.85-1.36,44.83-.42,61.08,1.54,26.63,6.61,43.28,18.33,55h0c.86.87,1.76,1.71,2.69,2.51.46.42.94.82,1.42,1.2s1,.79,1.48,1.17,1,.77,1.54,1.13,1.06.75,1.6,1.1a73.73,73.73,0,0,0,8.9,5.07l.05,0c.63.31,1.27.62,1.92.91s1.35.63,2,.92,1.39.61,2.1.9,1.37.57,2.08.85l2.32.9q2.38.9,4.94,1.77c.61.22,1.23.42,1.86.63,2,.66,4.08,1.32,6.22,2l2,.58.75.22,3.18.91,5,1.34c8.46,2.24,17.67,5,27.34,8.24q3.61,1.23,7.32,2.55h0q3.71,1.33,7.47,2.77h0q3.76,1.44,7.59,3c63.71,25.75,136.85,74.49,148.3,160.48C702.75,754.64,716.92,1040,716.92,1040Z"
                    fill="#ffe6e6" />
                <path
                    d="M716.92,1040l-37.64.47-84.15,1-7.08.08-383.35,4.75-13.63.17-26,.32-80.43,1-84.62,1s.1-2.75.34-7.89c.1-2.22.22-4.9.37-8,.11-2.13.22-4.45.35-7q.19-3.51.4-7.5c.26-4.64.55-9.77.88-15.33q.23-3.57.45-7.38c.06-.84.11-1.7.16-2.56.55-8.63,1.18-18.1,1.9-28.29q.22-3.06.45-6.2c.16-2.1.31-4.22.47-6.37,0-.45.07-.91.11-1.37.12-1.7.26-3.42.39-5.16.07-.93.14-1.87.22-2.81q.15-1.92.3-3.87.27-3.37.54-6.83t.57-7c1.65-19.91,3.61-41.47,5.92-64.1.27-2.63.54-5.28.83-8,2.74-26.18,6-53.67,9.72-81.6.35-2.64.72-5.28,1.09-7.93,3.72-27,8-54.43,12.8-81.35q.7-4,1.44-7.92Q41.78,663.23,44,652.1q2.1-10.59,4.87-20.39,1.1-3.93,2.3-7.72t2.49-7.48c1.29-3.68,2.66-7.27,4.08-10.78q2.46-6.06,5.2-11.79c.27-.59.56-1.18.84-1.77,1-2,2-4,3-6,.63-1.22,1.27-2.42,1.93-3.61q2.57-4.67,5.28-9.09c.61-1,1.22-2,1.83-2.92q1.86-2.9,3.76-5.69c.64-.93,1.28-1.85,1.93-2.76q4.86-6.85,10.08-13.07c.7-.83,1.4-1.66,2.1-2.47q4.23-4.89,8.64-9.39l2.22-2.23a217.42,217.42,0,0,1,32.29-26.31q5.78-3.87,11.62-7.29c59.43-34.95,122.59-38,132.77-40.43.18,0,.36-.08.55-.14l.15-.05c.58-.15,1.17-.32,1.76-.5l.89-.29.9-.31.89-.34.9-.36c.29-.11.57-.23.85-.36a49.86,49.86,0,0,0,9.15-5.22c.5-.36,1-.73,1.5-1.12l.92-.72c.61-.48,1.22-1,1.82-1.52.3-.26.6-.52.9-.8s.59-.53.88-.81l.91-.88c.6-.58,1.19-1.18,1.76-1.8.3-.31.58-.62.86-.94s.58-.64.86-1,.57-.66.85-1,.56-.68.83-1l0,0,.81-1c75.11,32.09,115.05,11.86,127.8,2.72h0c.86.86,1.76,1.7,2.69,2.51.46.41.94.81,1.42,1.2s1,.78,1.48,1.17,1,.76,1.54,1.13,1.06.74,1.6,1.1a78.22,78.22,0,0,0,8.9,5.07l.05,0c.63.31,1.27.61,1.92.91s1.35.63,2,.92,1.39.61,2.1.9h0q1,.44,2,.84l2.32.9q2.38.9,4.94,1.77c.61.22,1.23.42,1.86.63,2,.66,4.08,1.32,6.22,2l.25.07,1.74.51.75.22,3.18.91,5,1.34c8.46,2.24,17.67,5,27.34,8.24,2.41.81,4.86,1.66,7.32,2.55h0q3.71,1.33,7.47,2.77h0q3.76,1.44,7.59,3a355.89,355.89,0,0,1,44.51,21.55q6,3.47,12,7.27c29.62,19,56.74,43.88,74,76.26q2,3.75,3.83,7.63a162.35,162.35,0,0,1,14,47.77c1.28,9.63,2.56,20.61,3.83,32.62q.41,3.9.81,7.95.69,6.74,1.36,13.83s0,0,0,0c2,20.8,3.91,43.76,5.77,67.64.2,2.65.41,5.31.61,8,2,26.82,4,54.61,5.76,81.66.17,2.67.35,5.34.52,8,1.88,29,3.58,57,5,81.72.15,2.71.31,5.38.46,8,2.32,40.35,3.91,71,4.45,81.77C716.85,1038.53,716.92,1040,716.92,1040Z"
                    fill="#5661e1" />
                <path
                    d="M596.3,512.92c-59,3.77-119.81,5.21-178.37,5.21-61.25,0-120-1.57-171.46-3.71-39-1.62-76-3.63-109.62-5.75q5.78-3.87,11.62-7.29c30.58,1.86,63.68,3.61,98.39,5.05,97.27,4,220.56,6.07,337.45-.78Q590.36,509.12,596.3,512.92Z"
                    fill="#3547c9" />
                <path
                    d="M674.15,596.81c-81.75,8.75-171.39,11.77-256.22,11.77-61.25,0-120-1.57-171.46-3.71-70.26-2.91-133.91-7.1-183.54-10.93.27-.59.56-1.18.84-1.77,1-2,2-4,3-6C115.87,590,178.2,594,246.86,596.88c121.6,5,283.88,7,423.46-7.7Q672.33,592.93,674.15,596.81Z"
                    fill="#3547c9" />
                <path
                    d="M692.74,685.15C606.12,695.53,509.24,699,417.93,699c-61.25,0-120-1.57-171.46-3.71C164,691.9,90.56,686.71,38.27,682.43q.7-4,1.44-7.92c52.15,4.27,125.14,9.42,207.15,12.82,127.93,5.31,300.89,7.16,445.07-10.13Q692.34,681.1,692.74,685.15Z"
                    fill="#3547c9" />
                <path
                    d="M700.49,774.65C611.92,785.77,512,789.48,417.93,789.48c-61.25,0-120-1.57-171.46-3.71-90.1-3.74-169.35-9.58-222.09-14.06.35-2.64.72-5.28,1.09-7.93,52.66,4.46,131.62,10.28,221.39,14,130.29,5.41,307.28,7.22,453-11.11C700.08,769.32,700.29,772,700.49,774.65Z"
                    fill="#3547c9" />
                <path
                    d="M706.77,864.3C616.66,876,514.2,879.93,417.93,879.93c-61.25,0-120-1.57-171.46-3.71-96.33-4-180.25-10.4-232.64-15,.27-2.63.54-5.28.83-8,52.32,4.55,136.06,10.94,232.2,14.92,132.19,5.48,312.47,7.28,459.39-11.92C706.42,859,706.6,861.65,706.77,864.3Z"
                    fill="#3547c9" />
                <path
                    d="M712.25,954c-91.42,12.31-196.09,16.36-294.32,16.36-61.25,0-120-1.57-171.46-3.71C145.12,962.47,57.5,955.6,5.89,951c.12-1.7.26-3.42.39-5.16.07-.93.14-1.87.22-2.81,51.51,4.57,139.06,11.44,240.36,15.64,133.86,5.55,317,7.32,464.93-12.66C711.94,948.73,712.1,951.4,712.25,954Z"
                    fill="#3547c9" />
                <path
                    d="M.72,1033c41.37,3.73,109.38,9.26,190.35,13.53l-26,.32-80.43,1c-34-2.48-62.71-4.9-84.28-6.84C.45,1038.75.57,1036.07.72,1033Z"
                    fill="#3547c9" />
                <path
                    d="M716.92,1040l-37.64.47q19-2.12,37.42-4.67C716.85,1038.53,716.92,1040,716.92,1040Z"
                    fill="#3547c9" />
                <path
                    d="M330.19,287.39s2.67,43.35,34,83.43c20.47,26.21,42.65,23,55.54,17.6-.95-16.25-.57-36.23.41-61.08L358.33,291Z"
                    fill="#120283" />
                <path
                    d="M305.52,243.09c7.75-1,12.83,1,15.84,3.06-.48-40.6,3.54-90,3.54-90H476.23l-.4,89.35s-.28,4.42,0,32.45C476.17,312,448.47,364,411.37,364c-57.07,0-78-41.91-86-74.33-9,2-23.11,3.16-28-7.25C290,266.65,291.48,244.91,305.52,243.09Z"
                    fill="#ffe6e6" />
                <circle cx="388.53" cy="270.48" r="4.46" fill="#120283" />
                <circle cx="435.14" cy="270.48" r="4.46" fill="#120283" />
                <path
                    d="M407.05,240.65s-2.76.74-15.15.74-17.9,1.2-17.67,0c1-5.16,23.06-7.74,26.76-7.19S408.58,237.33,407.05,240.65Z"
                    fill="#120283" />
                <path
                    d="M426.53,240.65s2.76.74,15.15.74,17.9,1.2,17.67,0c-1-5.16-23.06-7.74-26.76-7.19S425,237.33,426.53,240.65Z"
                    fill="#120283" />
                <path
                    d="M317.8,241.93,327,274s.68-38.39,5.1-62.85,18-30.57,31.76-32.95a4.48,4.48,0,0,1,1.37,0h99.35s28.81-9.43.46-41.55c-2.83-1.44-19.22-4.57-22.42-5.44-38.91-10.53-98.28-25.74-108.82,12,0,0-16-13.82-21.4,17.9S317.8,241.93,317.8,241.93Z"
                    fill="#120283" />
                <path
                    d="M281.94,460.76c92.71,55.91,159.84,18,184.22-.62-12.1-4.57-21.27-9.79-28.14-16.69-12.74,9.13-52.68,29.38-127.81-2.72C301.67,451.87,291.28,458.31,281.94,460.76Z"
                    fill="#3547c9" />
                <path
                    d="M415.57,301.63a15.27,15.27,0,0,1,2.31-.47c3.16-.52,7.1-1.17,7.72-3.39.34-1.2-.35-2.51-2.1-4-6.52-5.59-5.38-17.9-5.36-18l-1.35-.14c-.06.54-1.22,13.14,5.82,19.19,1.26,1.08,1.86,2,1.68,2.61-.39,1.39-4.45,2.06-6.63,2.42a8.94,8.94,0,0,0-2.84.68Z"
                    fill="#120283" />
                <path
                    d="M415.8,308.42s-11.54-1.15-19.45-5.85C396.35,302.57,398.28,316.48,415.8,308.42Z"
                    fill="#120283" />
                <path
                    d="M476.23,234.13s-4.43-28.63-20.74-44.93c0,0-40.2-14.5-59.5,33.06s-78.19,19.67-78.19,19.67l7.7-3.91s44,15.94,59.12-14.85c0,0-19.43,26.45-63.28,11l8.85-74.83,149.51-9S493.34,180.32,476.23,234.13Z"
                    fill="#120283" />
                <path
                    d="M316.43,147.55s-17.33-29.2,7.67-47.2,74-8.5,88.5,0,42.76-18,63.63,4.5-2.13,64.5-2.13,64.5Z"
                    fill="#120283" />
                <path d="M455.49,189.2s-7.6,48.06,22,60.85c0,0,21.14-52.66,2.21-99.76Z"
                    fill="#120283" />
                <path
                    d="M204.7,1046.33l-39.64.49C176.66,924,213.47,600.2,214.34,592.59,213.82,600.15,192.71,910.1,204.7,1046.33Z"
                    fill="#120283" />
                <polygon points="595.13 1041.5 588.05 1041.58 551.37 599.95 595.13 1041.5"
                    fill="#120283" />
                <path
                    d="M694.1,699c-24.54-148.54-164.73-215.15-214.67-234.4l1.74.51.75.22,3.18.91,5,1.34c8.46,2.24,17.67,5,27.34,8.24,2.41.81,4.86,1.66,7.32,2.55h0q3.71,1.33,7.47,2.77h0q3.76,1.44,7.59,3a355.89,355.89,0,0,1,44.51,21.55q6,3.47,12,7.27c29.62,19,56.74,43.88,74,76.26q2,3.75,3.83,7.63a162.35,162.35,0,0,1,14,47.77c1.28,9.63,2.56,20.61,3.83,32.62q.41,3.9.81,7.95Q693.43,691.89,694.1,699Z"
                    fill="#120283" />
            </g>
        </g>
    </g>
</svg>