<svg viewBox="0 0 747.25 1048.86" xmlns="http://www.w3.org/2000/svg">
    <defs>
        <clipPath id="clip-path" transform="translate(0)">
            <circle cx="373.62" cy="373.62" fill="none" r="373.62" />
        </clipPath>
    </defs>
    <g data-name="Layer 2" id="Layer_2">
        <g id="Design">
            <g clip-path="url(#clip-path)">
                <circle cx="373.62" cy="373.62" fill="#e9e9e9" r="373.62" />
                <path
                    d="M333.77,143.22s-26.17-21.87-43.17,4.63-2.66,60.5,2.42,74,20.08,80.72,20.08,80.72,3,11.28,25,26.28,18-27.22,18-27.22Z"
                    fill="#4d4d4d" transform="translate(0)" />
                <path
                    d="M716.92,1040l-37.64.47-56.54.7-10.58.13-17,.21-7.08.08-99.46,1.23-63.68.79-116.75,1.45-103.46,1.28-13.63.17-26,.32-13.31.16-16.13.2-51,.63-84.62,1H0s0-.69.09-2c0-.39,0-.85.05-1.36,0-.34,0-.71,0-1.11a.14.14,0,0,0,0-.09c.11-2.56.28-6.18.5-10.74l0-.57c.06-1.06.11-2.18.17-3.34,0-.73.07-1.49.11-2.27,0-.44.05-.89.07-1.35q.18-3.51.4-7.5c.07-1.16.13-2.35.2-3.57s.14-2.47.21-3.75q.21-3.84.47-8c0-.59.07-1.19.11-1.8.11-1.81.22-3.67.34-5.58.06-.84.11-1.7.16-2.56.07-1.08.14-2.17.21-3.28.14-2.2.28-4.47.44-6.78q.45-6.93,1-14.44c.09-1.25.18-2.52.27-3.79q.22-3.06.45-6.2c.16-2.1.31-4.22.47-6.37,0-.45.07-.91.11-1.37.12-1.7.26-3.42.39-5.16.07-.93.14-1.87.22-2.81q.15-1.92.3-3.87.27-3.37.54-6.83t.57-7c.83-10,1.73-20.32,2.71-31q.38-4,.76-8.1c.25-2.71.52-5.45.78-8.21s.54-5.53.82-8.33.56-5.6.85-8.43c.27-2.63.54-5.28.83-8q.77-7.37,1.59-14.86,1.37-12.48,2.89-25.28c.21-1.8.43-3.6.64-5.4.36-2.91.71-5.83,1.07-8.76q.72-5.81,1.47-11.64.67-5.21,1.36-10.43c.23-1.74.46-3.48.7-5.23.35-2.64.72-5.28,1.09-7.93q.59-4.29,1.2-8.59c.38-2.68.76-5.37,1.16-8.06q.42-3,.87-5.94c1.46-10,3-19.93,4.64-29.87.46-2.88.93-5.75,1.42-8.63.56-3.38,1.14-6.77,1.73-10.14.53-3.1,1.08-6.2,1.63-9.28l.15-.84.15-.83c.42-2.36.85-4.73,1.29-7.09q1.38-7.54,2.83-15,.72-3.71,1.45-7.39,2.1-10.59,4.87-20.39,1.1-3.93,2.3-7.72t2.49-7.48c1.29-3.68,2.66-7.27,4.08-10.78.47-1.17,1-2.33,1.45-3.47.4-1,.81-1.89,1.23-2.83s.77-1.74,1.17-2.6.9-1.94,1.35-2.89c.27-.59.56-1.18.84-1.77.49-1,1-2,1.49-3s1-2,1.53-3l.66-1.26c.42-.79.84-1.57,1.27-2.35q2.57-4.67,5.28-9.09c.61-1,1.22-2,1.83-2.92q1.85-2.9,3.76-5.69c.64-.93,1.28-1.85,1.93-2.76.81-1.14,1.63-2.27,2.45-3.39s1.66-2.21,2.5-3.3q1.89-2.46,3.83-4.81c.43-.53.87-1,1.3-1.57.7-.83,1.4-1.66,2.1-2.47q4.22-4.89,8.64-9.39l2.22-2.23c.64-.63,1.28-1.26,1.93-1.88q1.92-1.87,3.9-3.68c.65-.6,1.31-1.19,2-1.78q3-2.65,6-5.16c.62-.52,1.23-1,1.85-1.52.22-.19.45-.37.68-.55q1.66-1.35,3.36-2.66c.74-.57,1.49-1.15,2.25-1.71q2.05-1.54,4.12-3l2.08-1.48,1.78-1.24c.8-.55,1.59-1.09,2.39-1.62l.08-.05,2.2-1.46,1.22-.79,2.2-1.4,3-1.85,2.8-1.67.12-.07,2-1.16,1.19-.68.51-.29,2.3-1.28,1.39-.76,1.27-.69q2.15-1.14,4.27-2.23l.73-.37,2.73-1.36.24-.12,1.84-.9,1.78-.85.51-.23,1.09-.51c.1-.06.21-.1.31-.15l1.84-.84.58-.26q1.88-.84,3.75-1.65l1.34-.59,1.67-.7.69-.28c1-.42,2-.82,3-1.22s2.06-.83,3.09-1.22l2.34-.9.33-.12,1.84-.69,1.42-.52,1.15-.42.64-.23,1.78-.63,1.77-.61,1.77-.6.77-.26,1.67-.55.83-.26,2.07-.67L207,476l2.5-.77.36-.11,2.68-.78,2.51-.73h0l2.42-.66,2.17-.59.56-.15,3.06-.79,1.11-.28.5-.12,1.16-.28,2.85-.69,2.94-.68.55-.12.3-.07h0l.57-.13.47-.1.45-.1,1.94-.42,1-.22,1.75-.37,2.6-.52.62-.12,2.68-.52.82-.15,1-.18,1.8-.33.33-.06,1-.17,1-.17,1.22-.21,2.39-.4.49-.08,2.47-.39,1.21-.19.37-.06,2-.3.18,0,3.06-.44,3.77-.53,2.2-.3,2-.26,1.35-.18.82-.11.72-.1.73-.1,1.16-.17c2-.28,3.47-.53,4.47-.77l.55-.14c.34-.09.69-.18,1-.29l.88-.26.89-.29.9-.31.89-.34.9-.36c.28-.11.57-.23.85-.36a49.86,49.86,0,0,0,9.15-5.22c.5-.36,1-.73,1.5-1.12l.92-.72c.61-.49,1.22-1,1.82-1.52.3-.26.6-.52.9-.8l.88-.81.91-.88c.29-.29.59-.58.88-.88l.88-.92c.3-.31.58-.62.86-.94l.86-1c.29-.33.57-.66.85-1s.56-.68.83-1l0,0,.8-1c7.69-10.05,13.87-23.94,16.42-42.2,0-.17.06-.35.08-.53,2.63-19.37,2.6-50.09,1.91-76.31-.23-8.36-.52-16.28-.82-23.21-.67-15.55-1.36-26.22-1.36-26.22l.06,0,.52.31,27.26,16,4.06,2.39,61.77,36.32c-.52,13.29-.88,25.18-.94,35.86q-.06,7.92.11,15c0,1.79.1,3.53.17,5.24s.14,3.37.24,5c.31,5.3.75,10.2,1.37,14.75,2.45,18.32,7.57,30.87,17,40.28h0c.86.87,1.76,1.71,2.69,2.51.46.42.94.82,1.42,1.2s1,.79,1.48,1.17,1,.77,1.54,1.13,1.06.75,1.6,1.1a69.39,69.39,0,0,0,6.53,3.87q1.16.61,2.37,1.2l.05,0,.52.25,1.4.66c.67.32,1.35.63,2,.92s1.39.61,2.1.9h0c.67.29,1.34.57,2,.84l2.32.9q2.38.9,4.94,1.77c.61.22,1.23.42,1.86.63,2,.66,4.08,1.32,6.22,2l.25.07,1.74.51.75.22,3.18.91,4.07,1.1.89.24c2.18.58,4.42,1.19,6.7,1.83l3.12.9,2.3.68,2.91.88q6,1.81,12.31,3.95c2.41.81,4.86,1.66,7.32,2.55h0l.85.31,2.24.82q2.17.79,4.38,1.64h0q3.76,1.44,7.59,3c5.05,2,10.17,4.23,15.3,6.57h0q3.52,1.59,7,3.3l2.63,1.28c5.59,2.74,11.19,5.68,16.74,8.81l2.77,1.58,1.78,1c.72.41,1.44.84,2.15,1.27s1.57.93,2.35,1.41l2,1.22q1.88,1.16,3.73,2.34l.22.14,1.51,1,2.09,1.38c1,.65,2,1.3,2.93,2,1.18.8,2.35,1.6,3.51,2.43l1.74,1.24q1.77,1.25,3.51,2.55,1.17.85,2.31,1.74c2,1.52,4,3.09,6,4.7.92.74,1.84,1.49,2.75,2.25l2.72,2.3q5.16,4.42,10.06,9.18l1.63,1.6a.57.57,0,0,1,.11.11l1.13,1.13c.72.73,1.44,1.46,2.15,2.2l1.66,1.74q4.92,5.25,9.48,10.85c.55.68,1.11,1.38,1.65,2.07l.59.75c.53.68,1.05,1.36,1.57,2,.68.9,1.35,1.8,2,2.71s1.32,1.84,2,2.76,1.29,1.86,1.92,2.8q1.89,2.82,3.68,5.73c.59,1,1.18,1.94,1.76,2.93s1.14,2,1.7,3,1.11,2,1.65,3c.34.63.67,1.25,1,1.88s.65,1.27,1,1.9c.64,1.27,1.26,2.55,1.87,3.85.31.66.61,1.32.91,2,.19.41.38.83.56,1.25a.61.61,0,0,1,0,.12c.32.71.63,1.42.93,2.14s.73,1.73,1.08,2.6l.12.29c.36.91.72,1.82,1.06,2.73s.72,1.91,1.06,2.87c.7,1.92,1.35,3.87,2,5.83.31,1,.6,1.92.89,2.89a.24.24,0,0,0,0,.08c.29,1,.58,2,.85,3,.23.83.45,1.66.67,2.5l.24.95c.22.88.44,1.76.64,2.65.17.7.33,1.4.48,2.11,0,.15.07.29.09.44.09.36.16.72.24,1.09.18.87.35,1.74.52,2.6s.36,1.92.53,2.89.34,2,.5,3c.06.41.13.82.19,1.23.12.83.24,1.66.35,2.5,1,7.82,2.08,16.54,3.12,26,.09.93.2,1.87.3,2.81.14,1.27.27,2.55.41,3.84q.41,3.9.81,7.95.35,3.36.68,6.82c.12,1.16.23,2.32.34,3.48s.23,2.35.34,3.53c0,0,0,0,0,0q.55,5.85,1.11,11.92c.22,2.4.43,4.82.65,7.27.66,7.41,1.31,15,2,22.8q.33,3.88.64,7.82c.11,1.31.22,2.63.32,3.95l.18,2.27a.13.13,0,0,0,0,.06c0,.54.08,1.09.13,1.64,0,.33,0,.67.08,1,.11,1.47.23,3,.35,4.44s.23,3,.35,4.47c.2,2.65.41,5.31.61,8,1,13.41,2,27.06,3,40.74q.36,5.13.71,10.26c0,.23,0,.46.05.69l.54,7.81q.29,4.38.59,8.73c.16,2.36.31,4.72.47,7.08l.42,6.35c.17,2.67.35,5.34.52,8,.12,1.81.23,3.62.35,5.43q.32,4.93.63,9.83.25,4,.5,8t.48,7.73c0,.37,0,.74.07,1.11.22,3.49.43,7,.64,10.38,0,.11,0,.21,0,.32q.46,7.54.9,14.87.57,9.43,1.1,18.43.16,2.85.33,5.64c0,.45.05.91.08,1.36.13,2.22.25,4.42.38,6.59v0c0,.63.07,1.26.11,1.88.07,1.25.14,2.48.21,3.7s.14,2.47.21,3.69.15,2.69.23,4l.09,1.57c.06,1.12.12,2.22.18,3.31.1,1.74.2,3.46.29,5.14,0,.76.09,1.51.13,2.26q.24,4.45.48,8.64c0,.68.07,1.36.11,2,0,.51.05,1,.08,1.53,0,1,.11,1.88.16,2.8s.1,2,.16,3c0,.43,0,.86.07,1.28l.09,1.67c0,.7.07,1.39.11,2.07s.09,1.62.13,2.41c.07,1.19.13,2.35.19,3.49,0,.44.05.88.07,1.32,0,.84.09,1.66.13,2.46q0,.86.09,1.68c.07,1.4.15,2.76.21,4.06,0,.51.06,1,.08,1.5s0,.87.07,1.3,0,.6.05.9c0,.6.06,1.18.09,1.75s.06,1.06.08,1.57c.06,1.22.12,2.38.18,3.46,0,.27,0,.54,0,.8s0,.51,0,.77,0,.5,0,.74,0,.65,0,1c0,.61.06,1.19.09,1.73s0,.81.06,1.18,0,.74.05,1.07c0,0,0,.09,0,.13,0,.44,0,.85.07,1.22v.13c0,.12,0,.22,0,.33C716.88,1039.17,716.92,1040,716.92,1040Z"
                    fill="#ffe6e6" transform="translate(0)" />
                <path
                    d="M716.92,1040l-37.64.47-56.54.7-10.58.13-17,.21-7.08.08-99.46,1.23-63.68.79-109,1.35-7.76.1-103.46,1.28-13.63.17-26,.32-13.31.16-16.13.2-51,.63-84.62,1s0-.69.08-2c0-.39,0-.85.05-1.36,0-.34,0-.71,0-1.11a.14.14,0,0,0,0-.09c0-1,.1-2.06.16-3.31.09-2.08.21-4.57.34-7.43l0-.57c.06-1.06.11-2.18.17-3.34,0-.73.07-1.49.11-2.27,0-.44.05-.89.07-1.35q.19-3.51.4-7.5c.07-1.16.13-2.35.2-3.57s.14-2.47.21-3.75c.15-2.56.3-5.23.47-8,0-.59.07-1.19.11-1.8.12-1.81.23-3.67.34-5.58.06-.84.11-1.7.16-2.56.07-1.08.14-2.17.21-3.28.14-2.2.29-4.47.44-6.78q.47-6.93,1-14.44c.09-1.25.18-2.52.27-3.79q.22-3.06.45-6.2c.16-2.1.31-4.22.47-6.37,0-.45.07-.91.11-1.37.12-1.7.26-3.42.39-5.16.07-.93.14-1.87.22-2.81q.15-1.92.3-3.87.27-3.37.54-6.83t.57-7c.83-10,1.73-20.32,2.71-31q.38-4,.76-8.1c.25-2.71.52-5.45.78-8.21s.54-5.53.82-8.33.56-5.6.85-8.43c.27-2.63.54-5.28.83-8q.77-7.37,1.59-14.86,1.38-12.48,2.89-25.28c.21-1.8.43-3.6.64-5.4.36-2.91.71-5.83,1.07-8.76q.72-5.81,1.47-11.64.67-5.21,1.36-10.43c.23-1.74.46-3.48.7-5.23.35-2.64.72-5.28,1.09-7.93q.59-4.29,1.2-8.59c.38-2.68.76-5.37,1.16-8.06q.42-3,.87-5.94c1.46-10,3-19.93,4.64-29.87.46-2.88.93-5.75,1.42-8.63.56-3.38,1.14-6.77,1.73-10.14.53-3.1,1.08-6.2,1.63-9.28l.15-.84.15-.83c.42-2.36.85-4.73,1.29-7.09q1.38-7.54,2.83-15,.72-3.71,1.45-7.39,2.1-10.59,4.87-20.39,1.1-3.93,2.3-7.72t2.49-7.48c1.29-3.68,2.66-7.27,4.08-10.78.47-1.17,1-2.33,1.45-3.47.4-1,.81-1.89,1.23-2.83s.77-1.74,1.17-2.6.9-1.94,1.35-2.89c.27-.59.56-1.18.84-1.77.49-1,1-2,1.49-3s1-2,1.53-3l.66-1.26c.42-.79.84-1.57,1.27-2.35q2.57-4.67,5.28-9.09c.61-1,1.22-2,1.83-2.92q1.86-2.9,3.76-5.69c.64-.93,1.28-1.85,1.93-2.76.81-1.14,1.63-2.27,2.45-3.39s1.66-2.21,2.5-3.3q1.89-2.46,3.83-4.81c.43-.53.87-1,1.3-1.57.7-.83,1.4-1.66,2.1-2.47q4.23-4.89,8.64-9.39l2.22-2.23c.64-.63,1.28-1.26,1.93-1.88q1.92-1.87,3.9-3.68c.65-.6,1.31-1.19,2-1.78q3-2.65,6-5.16c.62-.52,1.23-1,1.85-1.52.22-.19.45-.37.68-.55,1.11-.9,2.24-1.78,3.36-2.66.74-.57,1.49-1.15,2.25-1.71q2.05-1.54,4.12-3l2.08-1.48,1.78-1.24c.8-.55,1.59-1.09,2.39-1.62l.08-.05,2.2-1.46,1.22-.79,2.2-1.4,3-1.85,2.8-1.67.12-.07,2-1.16,1.19-.68.51-.29,2.3-1.28,1.39-.76.81-.43.46-.26q2.15-1.14,4.27-2.23l.73-.37,2.73-1.36.24-.12,1.84-.9.66-.31,1.12-.54.51-.23,1.09-.51c.1-.06.21-.1.31-.15l1.84-.84.58-.26q1.88-.84,3.75-1.65l1.34-.59.33-.13c.45-.2.89-.39,1.34-.57l.69-.28c1-.42,2-.82,3-1.22l.41-.16,2.68-1.06,2.34-.9.33-.12,1.84-.69,1.42-.52,1.15-.42.64-.23,1.78-.63,1-.34.77-.27,1.77-.6.17-.05.6-.21,1.67-.55.33-.1,2.57-.83c1.65-.52,3.3-1,4.92-1.51l2.68-.78,2.51-.73h0l2.42-.66,2.17-.59.56-.15,1.45-.37.66-.17.95-.25,1.11-.28.32-.07.18,0,1.16-.28,2.85-.69.47-.1,2.29-.53.18-.05.55-.12.3-.07.6-.13.47-.1.45-.1,1.94-.42,1-.22,1.75-.37.48-.09,2.12-.43.62-.12,2.68-.52.89-.17.9-.16,1.8-.33.33-.06,1-.17,1-.17,1.22-.21,2.39-.4.49-.08,2.47-.39,1.21-.19.37-.06,2-.3.18,0,3.06-.44,3.77-.53,2.2-.3,2-.26,1.35-.18.82-.11.72-.1.73-.1,1.16-.17c2-.28,3.47-.53,4.47-.77.18,0,.36-.08.55-.14l.15-.05.88-.24.88-.26.89-.29.9-.31.89-.34.9-.36c.28-.11.57-.23.85-.36a49.86,49.86,0,0,0,9.15-5.22c.5-.36,1-.73,1.5-1.12l.92-.72c.61-.48,1.22-1,1.82-1.52.3-.26.6-.52.9-.8l.88-.81.91-.88c.29-.29.59-.58.88-.88s.59-.61.88-.92.58-.62.86-.94l.86-1c.29-.33.57-.66.85-1s.56-.68.83-1l0,0,.81-1c75.11,32.09,115.05,11.86,127.8,2.72h0c.86.86,1.76,1.7,2.69,2.51.46.42.94.82,1.42,1.2s1,.79,1.48,1.17,1,.76,1.54,1.13,1.06.74,1.6,1.1a75.46,75.46,0,0,0,6.53,3.87c.78.4,1.56.8,2.37,1.2l.05,0,.52.25,1.4.66c.67.32,1.35.63,2,.92s1.39.61,2.1.9h0q1,.44,2,.84l2.32.9q2.38.9,4.94,1.77c.61.22,1.23.42,1.86.63,2,.66,4.08,1.32,6.22,2l.25.07,1.74.51.75.22,3.18.91,4.07,1.1.89.24c2.18.58,4.42,1.19,6.7,1.83l3.12.9,2.3.68,2.91.88q6,1.81,12.31,3.95c2.41.81,4.86,1.66,7.32,2.55h0l.85.31,2.24.82q2.17.79,4.38,1.64h0q3.76,1.44,7.59,3c5.05,2,10.17,4.23,15.3,6.57h0q3.52,1.59,7,3.3l2.63,1.28c5.59,2.74,11.19,5.68,16.74,8.81l2.77,1.58,1.78,1c.72.41,1.44.84,2.15,1.27s1.57.93,2.35,1.41l2,1.22q1.88,1.16,3.73,2.34l.22.14,1.51,1,2.09,1.38c1,.65,2,1.3,2.93,2,1.18.8,2.35,1.6,3.51,2.43l1.74,1.24q1.77,1.25,3.51,2.55,1.17.85,2.31,1.74c2,1.52,4,3.09,6,4.7.92.74,1.84,1.49,2.75,2.25l2.72,2.3q5.16,4.42,10.06,9.18l1.63,1.6a.57.57,0,0,1,.11.11l1.13,1.13c.72.73,1.44,1.46,2.15,2.2l1.66,1.74q4.92,5.25,9.48,10.85c.55.68,1.11,1.38,1.65,2.07l.59.75c.53.68,1.05,1.36,1.57,2,.68.9,1.35,1.8,2,2.71s1.32,1.84,2,2.76,1.29,1.86,1.92,2.8q1.89,2.82,3.68,5.73c.59,1,1.18,1.94,1.76,2.93s1.14,2,1.7,3,1.11,2,1.65,3c.34.63.67,1.25,1,1.88s.65,1.27,1,1.9c.64,1.27,1.26,2.55,1.87,3.85.31.66.61,1.32.91,2,.19.41.38.83.56,1.25a.61.61,0,0,1,0,.12c.32.71.63,1.42.93,2.14s.73,1.73,1.08,2.6l.12.29c.36.91.72,1.82,1.06,2.73s.72,1.91,1.06,2.87c.69,1.92,1.35,3.87,2,5.83.31,1,.6,1.92.89,2.89a.24.24,0,0,0,0,.08c.29,1,.58,2,.85,3,.23.83.45,1.66.67,2.5l.24.95c.22.88.44,1.76.64,2.65.17.7.33,1.4.48,2.11,0,.15.07.29.09.44.09.36.16.72.24,1.09.18.87.35,1.74.52,2.6s.36,1.92.53,2.89.34,2,.5,3c.06.41.13.82.19,1.23.12.83.24,1.66.35,2.5,1,7.82,2.08,16.54,3.12,26,.09.93.2,1.87.3,2.81.14,1.27.27,2.55.41,3.84q.41,3.9.81,7.95c.23,2.24.46,4.52.68,6.82.12,1.16.23,2.32.34,3.48s.23,2.35.34,3.53c0,0,0,0,0,0q.55,5.85,1.11,11.92.33,3.6.65,7.27c.66,7.41,1.31,15,2,22.8q.33,3.88.64,7.82c.11,1.31.22,2.63.32,3.95.06.78.13,1.55.19,2.33a.17.17,0,0,0,0,.07l.12,1.57c0,.33,0,.67.08,1,.12,1.48.23,3,.35,4.44s.23,3,.35,4.47c.2,2.65.41,5.31.61,8,1,13.41,2,27.06,3,40.74q.36,5.13.71,10.26c0,.23,0,.46.05.69l.54,7.81q.29,4.38.59,8.73c.16,2.36.31,4.72.47,7.08l.42,6.35c.17,2.67.35,5.34.52,8,.12,1.81.23,3.62.35,5.43q.32,4.93.63,9.83.25,4,.5,8t.48,7.73c0,.37,0,.74.07,1.11q.33,5.24.64,10.38c0,.11,0,.21,0,.32q.46,7.54.9,14.87.57,9.43,1.1,18.43.16,2.85.33,5.64c0,.45.05.91.08,1.36q.18,3.35.38,6.59v0c0,.63.07,1.26.11,1.88.07,1.24.14,2.48.21,3.7s.14,2.47.21,3.69.15,2.69.23,4l.09,1.57c.06,1.11.12,2.22.18,3.31.1,1.74.2,3.46.29,5.14,0,.76.09,1.51.13,2.26q.24,4.45.48,8.64c0,.68.07,1.36.11,2,0,.51.05,1,.08,1.53,0,.94.1,1.88.16,2.8s.1,2,.16,3c0,.43,0,.86.07,1.28l.09,1.67c0,.7.07,1.39.11,2.07s.09,1.62.13,2.41c.07,1.19.13,2.35.19,3.49,0,.44.05.88.07,1.32,0,.84.09,1.66.13,2.46q0,.86.09,1.68c.07,1.4.15,2.76.21,4.06,0,.51.06,1,.08,1.5s0,.88.07,1.3,0,.6.05.9c0,.6.06,1.18.09,1.75s.06,1.06.08,1.57c.06,1.22.12,2.38.18,3.46,0,.27,0,.54,0,.8s0,.51,0,.77,0,.5,0,.74,0,.65,0,1c0,.61.06,1.19.09,1.73s0,.81.06,1.18,0,.73.05,1.07c0,0,0,.09,0,.13,0,.44,0,.85.07,1.22v.13c0,.11,0,.22,0,.33C716.88,1039.17,716.92,1040,716.92,1040Z"
                    fill="#666" transform="translate(0)" />
                <path
                    d="M315.92,1045l-7.76.1-103.46,1.28-13.63.17-26,.32-13.31.16-16.13.2-51,.63-84.62,1s0-.69.08-2c0-.39,0-.85.05-1.36,0-.34,0-.71,0-1.11a.14.14,0,0,0,0-.09c0-1,.1-2.06.16-3.31.09-2.08.21-4.57.34-7.43l0-.57c.06-1.06.11-2.18.17-3.34,0-.73.07-1.49.11-2.27,0-.44.05-.89.07-1.35q.19-3.51.4-7.5c.07-1.16.13-2.35.2-3.57s.14-2.47.21-3.75c.15-2.56.3-5.23.47-8,0-.59.07-1.19.11-1.8.12-1.81.23-3.67.34-5.58.06-.84.11-1.7.16-2.56.07-1.08.14-2.17.21-3.28.14-2.2.29-4.47.44-6.78q.47-6.93,1-14.44c.09-1.25.18-2.52.27-3.79q.22-3.06.45-6.2c.16-2.1.31-4.22.47-6.37,0-.45.07-.91.11-1.37.12-1.7.26-3.42.39-5.16.07-.93.14-1.87.22-2.81q.15-1.92.3-3.87.27-3.37.54-6.83t.57-7c.83-10,1.73-20.32,2.71-31q.38-4,.76-8.1c.25-2.71.52-5.45.78-8.21s.54-5.53.82-8.33.56-5.6.85-8.43c.27-2.63.54-5.28.83-8q.77-7.37,1.59-14.86,1.38-12.48,2.89-25.28c.21-1.8.43-3.6.64-5.4.36-2.91.71-5.83,1.07-8.76q.72-5.81,1.47-11.64.67-5.21,1.36-10.43c.23-1.74.46-3.48.7-5.23.35-2.64.72-5.28,1.09-7.93q.59-4.29,1.2-8.59c.38-2.68.76-5.37,1.16-8.06q.42-3,.87-5.94c1.46-10,3-19.93,4.64-29.87.46-2.88.93-5.75,1.42-8.63.56-3.38,1.14-6.77,1.73-10.14.53-3.1,1.08-6.2,1.63-9.28l.15-.84.15-.83c.42-2.36.85-4.73,1.29-7.09q1.38-7.54,2.83-15,.72-3.71,1.45-7.39,2.1-10.59,4.87-20.39,1.1-3.93,2.3-7.72t2.49-7.48c1.29-3.68,2.66-7.27,4.08-10.78.47-1.17,1-2.33,1.45-3.47.4-1,.81-1.89,1.23-2.83s.77-1.74,1.17-2.6.9-1.94,1.35-2.89c.27-.59.56-1.18.84-1.77.49-1,1-2,1.49-3s1-2,1.53-3l.66-1.26c.42-.79.84-1.57,1.27-2.35q2.57-4.67,5.28-9.09c.61-1,1.22-2,1.83-2.92q1.86-2.9,3.76-5.69c.64-.93,1.28-1.85,1.93-2.76.81-1.14,1.63-2.27,2.45-3.39s1.66-2.21,2.5-3.3q1.89-2.46,3.83-4.81c.43-.53.87-1,1.3-1.57.7-.83,1.4-1.66,2.1-2.47q4.23-4.89,8.64-9.39l2.22-2.23c.64-.63,1.28-1.26,1.93-1.88q1.92-1.87,3.9-3.68c.65-.6,1.31-1.19,2-1.78q3-2.65,6-5.16c.62-.52,1.23-1,1.85-1.52.22-.19.45-.37.68-.55,1.11-.9,2.24-1.78,3.36-2.66.74-.57,1.49-1.15,2.25-1.71q2.05-1.54,4.12-3l2.08-1.48,1.78-1.24c.8-.55,1.59-1.09,2.39-1.62l.08-.05,2.2-1.46,1.22-.79,2.2-1.4,3-1.85,2.8-1.67.12-.07,2-1.16,1.19-.68.51-.29,2.3-1.28,1.39-.76.81-.43.46-.26q2.15-1.14,4.27-2.23l.73-.37,2.73-1.36.24-.12,1.84-.9.66-.31,1.12-.54.51-.23,1.09-.51c.1-.06.21-.1.31-.15l1.84-.84.58-.26q1.88-.84,3.75-1.65l1.34-.59.33-.13c.45-.2.89-.39,1.34-.57l.69-.28c1-.42,2-.82,3-1.22l.41-.16,2.68-1.06,2.34-.9.33-.12,1.84-.69,1.42-.52,1.15-.42.64-.23,1.78-.63,1-.34.77-.27,1.77-.6.17-.05.6-.21,1.67-.55.33-.1,2.57-.83c1.65-.52,3.3-1,4.92-1.51l2.68-.78,2.51-.73h0l2.42-.66,2.17-.59.56-.15,1.45-.37.66-.17.95-.25,1.11-.28.32-.07.18,0,1.16-.28,2.85-.69.47-.1,2.29-.53.18-.05.55-.12.3-.07.6-.13.47-.1.45-.1,1.94-.42,1-.22,1.75-.37.48-.09,2.12-.43.62-.12,2.68-.52.89-.17.9-.16,1.8-.33.33-.06,1-.17,1-.17,1.22-.21,2.39-.4.49-.08,2.47-.39s46.29,137.36,50.89,178.36C311.5,672.59,314.52,914.4,315.92,1045Z"
                    fill="#4d4d4d" transform="translate(0)" />
                <path
                    d="M716.92,1040l-37.64.47-56.54.7-10.58.13-17,.21-7.08.08-99.46,1.23-63.68.79c45.85-129.38,41.75-368.36,40.85-390.75-1-25,22.64-174.45,22.64-174.45L502.18,471l2.91.88q6,1.81,12.31,3.95c2.41.81,4.86,1.66,7.32,2.55h0l.85.31,2.24.82q2.17.79,4.38,1.64h0q3.76,1.44,7.59,3c5.05,2,10.17,4.23,15.3,6.57h0q3.52,1.59,7,3.3l2.63,1.28c5.59,2.74,11.19,5.68,16.74,8.81l2.77,1.58,1.78,1c.72.41,1.44.84,2.15,1.27s1.57.93,2.35,1.41l2,1.22q1.88,1.16,3.73,2.34l.22.14,1.51,1,2.09,1.38c1,.65,2,1.3,2.93,2,1.18.8,2.35,1.6,3.51,2.43l1.74,1.24q1.77,1.25,3.51,2.55,1.17.85,2.31,1.74c2,1.52,4,3.09,6,4.7.92.74,1.84,1.49,2.75,2.25l2.72,2.3q5.16,4.42,10.06,9.18l1.63,1.6a.57.57,0,0,1,.11.11l1.13,1.13c.72.73,1.44,1.46,2.15,2.2l1.66,1.74q4.92,5.25,9.48,10.85c.55.68,1.11,1.38,1.65,2.07l.59.75c.53.68,1.05,1.36,1.57,2,.68.9,1.35,1.8,2,2.71s1.32,1.84,2,2.76,1.29,1.86,1.92,2.8q1.89,2.82,3.68,5.73c.59,1,1.18,1.94,1.76,2.93s1.14,2,1.7,3,1.11,2,1.65,3c.34.63.67,1.25,1,1.88s.65,1.27,1,1.9c.64,1.27,1.26,2.55,1.87,3.85.31.66.61,1.32.91,2,.19.41.38.83.56,1.25a.61.61,0,0,1,0,.12c.32.71.63,1.42.93,2.14s.73,1.73,1.08,2.6l.12.29c.36.91.72,1.82,1.06,2.73s.72,1.91,1.06,2.87c.69,1.92,1.35,3.87,2,5.83.31,1,.6,1.92.89,2.89a.24.24,0,0,0,0,.08c.29,1,.58,2,.85,3,.23.83.45,1.66.67,2.5l.24.95c.22.88.44,1.76.64,2.65.17.7.33,1.4.48,2.11,0,.15.07.29.09.44.09.36.16.72.24,1.09.18.87.35,1.74.52,2.6s.36,1.92.53,2.89.34,2,.5,3c.06.41.13.82.19,1.23.12.83.24,1.66.35,2.5,1,7.82,2.08,16.54,3.12,26,.09.93.2,1.87.3,2.81.14,1.27.27,2.55.41,3.84q.41,3.9.81,7.95c.23,2.24.46,4.52.68,6.82.12,1.16.23,2.32.34,3.48s.23,2.35.34,3.53c0,0,0,0,0,0q.55,5.85,1.11,11.92.33,3.6.65,7.27c.66,7.41,1.31,15,2,22.8q.33,3.88.64,7.82c.11,1.31.22,2.63.32,3.95.06.78.13,1.55.19,2.33a.17.17,0,0,0,0,.07l.12,1.57c0,.33,0,.67.08,1,.12,1.48.23,3,.35,4.44s.23,3,.35,4.47c.2,2.65.41,5.31.61,8,1,13.41,2,27.06,3,40.74q.36,5.13.71,10.26c0,.23,0,.46.05.69l.54,7.81q.29,4.38.59,8.73c.16,2.36.31,4.72.47,7.08l.42,6.35c.17,2.67.35,5.34.52,8,.12,1.81.23,3.62.35,5.43q.32,4.93.63,9.83.25,4,.5,8t.48,7.73c0,.37,0,.74.07,1.11q.33,5.24.64,10.38c0,.11,0,.21,0,.32q.46,7.54.9,14.87.57,9.43,1.1,18.43.16,2.85.33,5.64c0,.45.05.91.08,1.36q.18,3.35.38,6.59v0c0,.63.07,1.26.11,1.88.07,1.24.14,2.48.21,3.7s.14,2.47.21,3.69.15,2.69.23,4l.09,1.57c.06,1.11.12,2.22.18,3.31.1,1.74.2,3.46.29,5.14,0,.76.09,1.51.13,2.26q.24,4.45.48,8.64c0,.68.07,1.36.11,2,0,.51.05,1,.08,1.53,0,.94.1,1.88.16,2.8s.1,2,.16,3c0,.43,0,.86.07,1.28l.09,1.67c0,.7.07,1.39.11,2.07s.09,1.62.13,2.41c.07,1.19.13,2.35.19,3.49,0,.44.05.88.07,1.32,0,.84.09,1.66.13,2.46q0,.86.09,1.68c.07,1.4.15,2.76.21,4.06,0,.51.06,1,.08,1.5s0,.88.07,1.3,0,.6.05.9c0,.6.06,1.18.09,1.75s.06,1.06.08,1.57c.06,1.22.12,2.38.18,3.46,0,.27,0,.54,0,.8s0,.51,0,.77,0,.5,0,.74,0,.65,0,1c0,.61.06,1.19.09,1.73s0,.81.06,1.18,0,.73.05,1.07c0,0,0,.09,0,.13,0,.44,0,.85.07,1.22v.13c0,.11,0,.22,0,.33C716.88,1039.17,716.92,1040,716.92,1040Z"
                    fill="#4d4d4d" transform="translate(0)" />
                <path
                    d="M330.19,287.39s2.67,43.35,34,83.43c20.47,26.21,42.65,23,55.54,17.6-.95-16.25-.57-36.23.41-61.08L358.33,291Z"
                    fill="#4d4d4d" transform="translate(0)" />
                <path
                    d="M305.52,243.09c7.75-1,12.83,1,15.84,3.06-.48-40.6,3.54-90,3.54-90H476.23l-.4,89.35s-.28,4.42,0,32.45C476.17,312,448.47,364,411.37,364c-57.07,0-78-41.91-86-74.33-9,2-23.11,3.16-28-7.25C290,266.65,291.48,244.91,305.52,243.09Z"
                    fill="#ffe6e6" transform="translate(0)" />
                <circle cx="388.53" cy="270.48" fill="#333" r="4.46" />
                <circle cx="435.14" cy="270.48" fill="#333" r="4.46" />
                <path
                    d="M407.05,240.65s-2.76.74-15.15.74-17.9,1.2-17.67,0c1-5.16,23.06-7.74,26.76-7.19S408.58,237.33,407.05,240.65Z"
                    fill="#333" transform="translate(0)" />
                <path
                    d="M426.53,240.65s2.76.74,15.15.74,17.9,1.2,17.67,0c-1-5.16-23.06-7.74-26.76-7.19S425,237.33,426.53,240.65Z"
                    fill="#333" transform="translate(0)" />
                <path
                    d="M317.8,241.93,327,274s.68-38.39,5.1-62.85,18-30.57,31.76-32.95a4.48,4.48,0,0,1,1.37,0h99.35s28.81-9.43.46-41.55c-2.83-1.44-19.22-4.57-22.42-5.44-38.91-10.53-98.28-25.74-108.82,12,0,0-16-13.82-21.4,17.9S317.8,241.93,317.8,241.93Z"
                    fill="#4d4d4d" transform="translate(0)" />
                <path
                    d="M415.57,301.63a15.27,15.27,0,0,1,2.31-.47c3.16-.52,7.1-1.17,7.72-3.39.34-1.2-.35-2.51-2.1-4-6.52-5.59-5.38-17.9-5.36-18l-1.35-.14c-.06.54-1.22,13.14,5.82,19.19,1.26,1.08,1.86,2,1.68,2.61-.39,1.39-4.45,2.06-6.63,2.42a8.94,8.94,0,0,0-2.84.68Z"
                    fill="#333" transform="translate(0)" />
                <path
                    d="M415.8,308.42s-11.54-1.15-19.45-5.85C396.35,302.57,398.28,316.48,415.8,308.42Z"
                    fill="#333" transform="translate(0)" />
                <path
                    d="M456.22,455.91c-20.15,19-66.48,37.54-170.73,3.75l.89-.34.9-.36c.28-.11.57-.23.85-.36a49.86,49.86,0,0,0,9.15-5.22c.5-.36,1-.73,1.5-1.12l.92-.72c.61-.49,1.22-1,1.82-1.52.3-.26.6-.52.9-.8l.88-.81.91-.88c.59-.58,1.17-1.18,1.76-1.8.3-.31.58-.62.86-.94l.86-1c.29-.33.57-.66.85-1s.56-.68.83-1l0,0,.8-1c7.69-10.05,13.87-23.94,16.42-42.2,20.23,7,57.19,15.84,94.43,4.64,2.45,18.32,7.57,30.87,17,40.28h0c.86.87,1.76,1.71,2.69,2.51.46.42.94.82,1.42,1.2s1,.79,1.48,1.17,1,.77,1.54,1.13,1.06.75,1.6,1.1a73.73,73.73,0,0,0,8.9,5.07l.05,0Z"
                    fill="#4d4d4d" transform="translate(0)" />
                <path
                    d="M308.16,1045.05l-103.46,1.28-13.63.17-26,.32-13.31.16-16.13.2-51,.63-84.62,1s.1-2.75.34-7.89c.1-2.22.22-4.9.37-8,.11-2.13.22-4.45.35-7q.19-3.51.4-7.5c.26-4.64.55-9.77.88-15.33q.23-3.57.45-7.38c.06-.84.11-1.7.16-2.56.55-8.63,1.18-18.1,1.9-28.29q.22-3.06.45-6.2c.16-2.1.31-4.22.47-6.37,0-.45.07-.91.11-1.37.12-1.7.26-3.42.39-5.16.07-.93.14-1.87.22-2.81q.15-1.92.3-3.87.27-3.37.54-6.83t.57-7c1.65-19.91,3.61-41.47,5.92-64.1.27-2.63.54-5.28.83-8,2.74-26.18,6-53.67,9.72-81.6.35-2.64.72-5.28,1.09-7.93,3.72-27,8-54.43,12.8-81.35q.7-4,1.44-7.92Q41.78,663.23,44,652.1q2.1-10.59,4.87-20.39,1.1-3.93,2.3-7.72t2.49-7.48c1.29-3.68,2.66-7.27,4.08-10.78q2.46-6.06,5.2-11.79c.27-.59.56-1.18.84-1.77,1-2,2-4,3-6,.63-1.22,1.27-2.42,1.93-3.61q2.57-4.67,5.28-9.09c.61-1,1.22-2,1.83-2.92q1.86-2.9,3.76-5.69c.64-.93,1.28-1.85,1.93-2.76q4.86-6.85,10.08-13.07c.7-.83,1.4-1.66,2.1-2.47q4.23-4.89,8.64-9.39l2.22-2.23a217.42,217.42,0,0,1,32.29-26.31q5.78-3.87,11.62-7.29c29-17.07,59-26.53,83.17-32,.71-.17,1.41-.32,2.1-.47,7.71-1.7,14.81-3,21.06-4,21.05,50.72,39.91,148.81,44.73,175a79.41,79.41,0,0,1,1.3,13l1,51.25.08,4.41Z"
                    fill="gray" transform="translate(0)" />
                <path
                    d="M716.92,1040l-37.64.47-56.54.7-10.58.13-17,.21-7.08.08-99.46,1.23L477.52,694.74l-.14-4.55-.78-24.5a232.44,232.44,0,0,1,.44-23.46L488.4,478.4l.77-11.08.89.24c2.18.58,4.42,1.19,6.7,1.83l3.12.9,2.3.68,2.91.88q6,1.81,12.31,3.95c2.41.81,4.86,1.66,7.32,2.55h0l.85.31,2.24.82q2.17.79,4.38,1.64h0q3.76,1.44,7.59,3c5.05,2,10.17,4.23,15.3,6.57h0q3.52,1.59,7,3.3l2.63,1.28c5.59,2.74,11.19,5.68,16.74,8.81l2.77,1.58,1.78,1c.72.41,1.44.84,2.15,1.27s1.57.93,2.35,1.41l2,1.22q1.88,1.16,3.73,2.34l.22.14,1.51,1,2.09,1.38c1,.65,2,1.3,2.93,2,1.18.8,2.35,1.6,3.51,2.43l1.74,1.24q1.77,1.25,3.51,2.55,1.17.85,2.31,1.74c2,1.52,4,3.09,6,4.7.92.74,1.84,1.49,2.75,2.25l2.72,2.3q5.16,4.42,10.06,9.18l1.63,1.6a.57.57,0,0,1,.11.11l1.13,1.13c.72.73,1.44,1.46,2.15,2.2l1.66,1.74q4.92,5.25,9.48,10.85c.55.68,1.11,1.38,1.65,2.07l.59.75c.53.68,1.05,1.36,1.57,2,.68.9,1.35,1.8,2,2.71s1.32,1.84,2,2.76,1.29,1.86,1.92,2.8q1.89,2.82,3.68,5.73c.59,1,1.18,1.94,1.76,2.93s1.14,2,1.7,3,1.11,2,1.65,3c.34.63.67,1.25,1,1.88s.65,1.27,1,1.9c.64,1.27,1.26,2.55,1.87,3.85.31.66.61,1.32.91,2,.19.41.38.83.56,1.25a.61.61,0,0,1,0,.12c.32.71.63,1.42.93,2.14s.73,1.73,1.08,2.6l.12.29c.36.91.72,1.82,1.06,2.73s.72,1.91,1.06,2.87c.69,1.92,1.35,3.87,2,5.83.31,1,.6,1.92.89,2.89a.24.24,0,0,0,0,.08c.29,1,.58,2,.85,3,.23.83.45,1.66.67,2.5l.24.95c.22.88.44,1.76.64,2.65.17.7.33,1.4.48,2.11,0,.15.07.29.09.44.09.36.16.72.24,1.09.18.87.35,1.74.52,2.6s.36,1.92.53,2.89.34,2,.5,3c.06.41.13.82.19,1.23.12.83.24,1.66.35,2.5,1,7.82,2.08,16.54,3.12,26,.09.93.2,1.87.3,2.81.14,1.27.27,2.55.41,3.84q.41,3.9.81,7.95c.23,2.24.46,4.52.68,6.82.12,1.16.23,2.32.34,3.48s.23,2.35.34,3.53c0,0,0,0,0,0q.55,5.85,1.11,11.92.33,3.6.65,7.27c.66,7.41,1.31,15,2,22.8q.33,3.88.64,7.82c.11,1.31.22,2.63.32,3.95.06.78.13,1.55.19,2.33a.17.17,0,0,0,0,.07l.12,1.57c0,.33,0,.67.08,1,.12,1.48.23,3,.35,4.44s.23,3,.35,4.47c.2,2.65.41,5.31.61,8,1,13.41,2,27.06,3,40.74q.36,5.13.71,10.26c0,.23,0,.46.05.69l.54,7.81q.29,4.38.59,8.73c.16,2.36.31,4.72.47,7.08l.42,6.35c.17,2.67.35,5.34.52,8,.12,1.81.23,3.62.35,5.43q.32,4.93.63,9.83.25,4,.5,8t.48,7.73c0,.37,0,.74.07,1.11q.33,5.24.64,10.38c0,.11,0,.21,0,.32q.46,7.54.9,14.87.57,9.43,1.1,18.43.16,2.85.33,5.64c0,.45.05.91.08,1.36q.18,3.35.38,6.59v0c0,.63.07,1.26.11,1.88.07,1.24.14,2.48.21,3.7s.14,2.47.21,3.69.15,2.69.23,4l.09,1.57c.06,1.11.12,2.22.18,3.31.1,1.74.2,3.46.29,5.14,0,.76.09,1.51.13,2.26q.24,4.45.48,8.64c0,.68.07,1.36.11,2,0,.51.05,1,.08,1.53,0,.94.1,1.88.16,2.8s.1,2,.16,3c0,.43,0,.86.07,1.28l.09,1.67c0,.7.07,1.39.11,2.07s.09,1.62.13,2.41c.07,1.19.13,2.35.19,3.49,0,.44.05.88.07,1.32,0,.84.09,1.66.13,2.46q0,.86.09,1.68c.07,1.4.15,2.76.21,4.06,0,.51.06,1,.08,1.5s0,.88.07,1.3,0,.6.05.9c0,.6.06,1.18.09,1.75s.06,1.06.08,1.57c.06,1.22.12,2.38.18,3.46,0,.27,0,.54,0,.8s0,.51,0,.77,0,.5,0,.74,0,.65,0,1c0,.61.06,1.19.09,1.73s0,.81.06,1.18,0,.73.05,1.07c0,0,0,.09,0,.13,0,.44,0,.85.07,1.22v.13c0,.11,0,.22,0,.33C716.88,1039.17,716.92,1040,716.92,1040Z"
                    fill="gray" transform="translate(0)" />
                <path
                    d="M539.92,555.71l-.25.55L477.52,694.74l-.14-4.55L537.6,556l-26.34-33.43,21.36-12.21-7-31.69,2.24.82,7.08,31.87-20.64,11.79Z"
                    fill="#666" transform="translate(0)" />
                <path
                    d="M222.63,559.08l23.65-34.46-21.54-10.5,6.9-44.75c.71-.17,1.41-.32,2.1-.47L226.94,513l22.3,10.87L225,559.21l76.83,144.9.08,4.41Z"
                    fill="#666" transform="translate(0)" />
                <polygon fill="#d3722a"
                    points="622.74 1041.16 612.16 1041.29 581.2 650.95 622.74 1041.16" />
                <path d="M151.75,1047l-16.13.2c-1.47-100,1.6-364.73,1.6-364.73Z" fill="#d3722a"
                    transform="translate(0)" />
                <path
                    d="M699,755.12a.13.13,0,0,1,0-.06c-24.53-200.28-142-263.4-143.84-264.38q3.52,1.59,7,3.3l2.63,1.28c5.59,2.74,11.19,5.68,16.74,8.81l2.77,1.58,1.78,1c.72.41,1.44.84,2.15,1.27s1.57.93,2.35,1.41l2,1.22q1.88,1.16,3.73,2.34l.22.14,1.51,1,2.09,1.38c1,.65,2,1.3,2.93,2,1.18.8,2.35,1.6,3.51,2.43l1.74,1.24q1.77,1.25,3.51,2.55,1.17.85,2.31,1.74c2,1.52,4,3.09,6,4.7.92.74,1.84,1.49,2.75,2.25l2.72,2.3q5.16,4.42,10.06,9.18l1.63,1.6a.57.57,0,0,1,.11.11l1.13,1.13c.72.73,1.44,1.46,2.15,2.2l1.66,1.74q4.92,5.25,9.48,10.85c.55.68,1.11,1.38,1.65,2.07l.59.75c.53.68,1.05,1.36,1.57,2,.68.9,1.35,1.8,2,2.71s1.32,1.84,2,2.76,1.29,1.86,1.92,2.8q1.89,2.82,3.68,5.73c.59,1,1.18,1.94,1.76,2.93s1.14,2,1.7,3,1.11,2,1.65,3c.34.63.67,1.25,1,1.88s.65,1.27,1,1.9c.64,1.27,1.26,2.55,1.87,3.85.31.66.61,1.32.91,2,.19.41.38.83.56,1.25a.61.61,0,0,1,0,.12c.32.71.63,1.42.93,2.14s.73,1.73,1.08,2.6l.12.29c.36.91.72,1.82,1.06,2.73s.72,1.91,1.06,2.87c.7,1.92,1.35,3.87,2,5.83.31,1,.6,1.92.89,2.89a.24.24,0,0,0,0,.08c.29,1,.58,2,.85,3,.23.83.45,1.66.67,2.5l.24.95c.22.88.44,1.76.64,2.65.17.7.33,1.4.48,2.11,0,.15.07.29.09.44.09.36.16.72.24,1.09.18.87.35,1.74.52,2.6s.36,1.92.53,2.89.34,2,.5,3c.06.41.13.82.19,1.23.12.83.24,1.66.35,2.5,1,7.82,2.08,16.54,3.12,26,.09.93.2,1.87.3,2.81.14,1.27.27,2.55.41,3.84q.41,3.9.81,7.95.35,3.36.68,6.82c.12,1.16.23,2.32.34,3.48s.23,2.35.34,3.53c0,0,0,0,0,0q.55,5.85,1.11,11.92.33,3.6.65,7.27c.66,7.41,1.31,15,2,22.8q.33,3.88.64,7.82c.11,1.31.22,2.63.32,3.95C698.84,753.57,698.91,754.34,699,755.12Z"
                    fill="#4d4d4d" transform="translate(0)" />
                <path
                    d="M484.09,204.52c2,22.66-8.26,41-8.26,41-24.94,6.63-32.19-32.94-37.69-51.13-8.63-28.5-23.32-10.5-23.32-10.5-25.31-16.25-30.06,10-47.56,38s-45.93,20.07-45.93,20.07l-38.8-53.57c-4.74-29.5-.27-66,24.73-69.25s36.5-7.75,67.89-20.75,45,6,45,6c42.21-14,63.57,24.05,69,48.25a.06.06,0,0,0,0,0C495,192.36,484.09,204.52,484.09,204.52Z"
                    fill="#4d4d4d" transform="translate(0)" />
                <path
                    d="M414.82,183.85s-12.88-9.34-18.47,0-22.59,90.66-58.26,70.66c0,0,14.13,3.48,25-20.38s14.88-52.62,28.44-58.28S411.54,173.18,414.82,183.85Z"
                    fill="#4d4d4d" transform="translate(0)" />
            </g>
        </g>
    </g>
</svg>