<svg xmlns="http://www.w3.org/2000/svg" viewBox="0 0 84.53 127.31"><g id="Layer_2" data-name="Layer 2"><g id="OBJECTS"><path d="M43,89.79h0a25.18,25.18,0,0,1-8.39-1.42c-.79,4.81-2.35,11.12-5.29,14.55a25.76,25.76,0,0,0,14.63,4.94,23.57,23.57,0,0,0,12.94-4.06A51.72,51.72,0,0,1,51,88.56,26.72,26.72,0,0,1,43,89.79Z" fill="#fdce9f"/><path d="M11,59.69a9.74,9.74,0,0,0,2.62.45c.32,0,.64,0,1,0h0A63.64,63.64,0,0,1,12.9,44.05a13.15,13.15,0,0,1-3.59,0,10.26,10.26,0,0,0-2.25,4.19C5.85,52.69,6.56,58.15,11,59.69Z" fill="#fdce9f"/><path d="M78.65,46.37a6.49,6.49,0,0,1-1.72.22,8.13,8.13,0,0,1-1.52-.17c0,.51,0,1,0,1.52a64.83,64.83,0,0,1-1.33,12.2c.31,0,.61,0,.91,0a6,6,0,0,0,2.49-.45C79.71,58.7,81.36,55,82,52a9.52,9.52,0,0,0-1-6.78A6.11,6.11,0,0,1,78.65,46.37Z" fill="#fdce9f"/><path d="M61.36,80.93c8.27-7.81,12.42-18.61,12.69-33,0-.61,0-1.23,0-1.85a13,13,0,0,1-1.6-.64c-5.32-2.61-9.3-8.15-11.08-15.35a14.33,14.33,0,0,1-9.81,6.09A4.28,4.28,0,0,1,49.45,36a3.39,3.39,0,0,1-1.9-3.18,6,6,0,0,1,.1-1.05A27.94,27.94,0,0,1,36.88,36.7c-1.87.4-3,.2-3.89-.57-1.07-1-1-2.35-1-3.62A29.61,29.61,0,0,1,14.91,43.69l-.66.12c-.44,11.3,2.93,24.63,8.64,33.53A23.53,23.53,0,0,0,43,88.46,26.82,26.82,0,0,0,61.36,80.93Z" fill="#fdce9f"/><path d="M8.2,42.5a12.74,12.74,0,0,0,6.42-.11A28.3,28.3,0,0,0,32.17,30a.69.69,0,0,1,.71-.3.66.66,0,0,1,.52.56,10,10,0,0,1,0,2.12c-.09,1.18-.17,2.21.49,2.8.5.46,1.33.54,2.71.25a26.5,26.5,0,0,0,12-6.07.67.67,0,0,1,1.07.76,7.35,7.35,0,0,0-.75,2.76A2.08,2.08,0,0,0,50,34.78a3.07,3.07,0,0,0,1.44.07A12.94,12.94,0,0,0,61.08,28a.67.67,0,0,1,.6-.37h.09a.66.66,0,0,1,.56.53c1.48,7.6,5.39,13.45,10.73,16.07a7.58,7.58,0,0,0,5.24.86c2.89-.76,4.45-4,4.5-6.81,0-3.11-1.3-6.19-2.5-8.91l-2.72-6.19a20.41,20.41,0,0,0-2.74-5,6.33,6.33,0,0,0-4.51-2.46.65.65,0,0,1-.64-.55.66.66,0,0,1,.41-.74c.57-.22,3.4-1.44,2.92-3.05-.3-1-1.66-1.22-2.74-1.22a9.92,9.92,0,0,0-1.11.06l-2.7.32a4.22,4.22,0,0,1-2.13-.19,3.81,3.81,0,0,1-1.26-1.11C59,4.43,54.8,1.77,50.56,1.38a7,7,0,0,0-.8,0,4.49,4.49,0,0,0-3.23,1.1,2.37,2.37,0,0,0-.6,1.87,1.57,1.57,0,0,0,.63,1.16l.2.11a.67.67,0,0,1,.26.89.66.66,0,0,1-.88.29,1.78,1.78,0,0,1-.3-.17A12.78,12.78,0,0,0,40,5.5h-.45A46.14,46.14,0,0,0,9.07,17.72C4.53,21.94,2,26.29,1.42,30.65.86,35.26,3.28,41.1,8.2,42.5Z" fill="#a87372"/><path d="M7.82,43.79a11.85,11.85,0,0,0-2.05,4.13c-1.36,5-.47,11.21,4.74,13a11.19,11.19,0,0,0,3,.52c.35,0,.71,0,1.06,0h.36a57.14,57.14,0,0,0,6.86,16.56A25.23,25.23,0,0,0,33.3,87.87C32.51,92.74,31,99.28,28,102.39,8.27,105.21,2.33,122.7,2.27,122.88a.66.66,0,0,0,.42.84c7.14,2.38,18.79,3.59,34.62,3.59,22.7,0,46.38-2.53,46.62-2.56a.67.67,0,0,0,.56-.88c-5.14-14.79-23.72-19.81-26.3-20.44a51.86,51.86,0,0,1-5.93-15.32,29.11,29.11,0,0,0,10-6.21A40.11,40.11,0,0,0,73.77,61.46l.15,0q.52,0,1,0A7.21,7.21,0,0,0,78,61c3.08-1.41,4.75-6.12,5.26-8.68a10.77,10.77,0,0,0-1.37-8,9.53,9.53,0,0,0,2.23-6c.06-3.41-1.35-6.64-2.6-9.48l-2.72-6.19a21.26,21.26,0,0,0-3-5.27,8.48,8.48,0,0,0-3.49-2.54C74,13.75,74.71,12.41,74.31,11c-.3-1-1.24-2.18-4-2.18-.43,0-.86,0-1.26.07l-2.7.32a2.92,2.92,0,0,1-1.41-.07,2.91,2.91,0,0,1-.82-.77C59.79,3.29,55.28.47,50.69,0c-.31,0-.62,0-.93,0a5.67,5.67,0,0,0-4.19,1.5,3.75,3.75,0,0,0-1,3l0,.23A16.86,16.86,0,0,0,40,4.16h-.47A47.49,47.49,0,0,0,8.16,16.74C3.38,21.18.67,25.81.09,30.49-.55,35.75,2.16,42.17,7.82,43.79ZM1.42,30.65C2,26.29,4.53,21.94,9.07,17.72A46.14,46.14,0,0,1,39.56,5.5H40a12.78,12.78,0,0,1,5.83,1.09,1.78,1.78,0,0,0,.3.17A.66.66,0,0,0,47,6.47a.67.67,0,0,0-.26-.89l-.2-.11a1.57,1.57,0,0,1-.63-1.16,2.37,2.37,0,0,1,.6-1.87,4.49,4.49,0,0,1,3.23-1.1,7,7,0,0,1,.8,0c4.24.39,8.44,3.05,12.52,7.9a3.81,3.81,0,0,0,1.26,1.11,4.22,4.22,0,0,0,2.13.19l2.7-.32a9.92,9.92,0,0,1,1.11-.06c1.08,0,2.44.21,2.74,1.22.48,1.61-2.35,2.83-2.92,3.05a.66.66,0,0,0-.41.74.65.65,0,0,0,.64.55,6.33,6.33,0,0,1,4.51,2.46,20.41,20.41,0,0,1,2.74,5l2.72,6.19c1.2,2.72,2.55,5.8,2.5,8.91,0,2.81-1.61,6-4.5,6.81a7.58,7.58,0,0,1-5.24-.86c-5.34-2.62-9.25-8.47-10.73-16.07a.66.66,0,0,0-.56-.53h-.09a.67.67,0,0,0-.6.37,12.94,12.94,0,0,1-9.68,6.87A3.07,3.07,0,0,1,50,34.78a2.08,2.08,0,0,1-1.07-1.94,7.35,7.35,0,0,1,.75-2.76.67.67,0,0,0-1.07-.76,26.5,26.5,0,0,1-12,6.07c-1.38.29-2.21.21-2.71-.25-.66-.59-.58-1.62-.49-2.8a10,10,0,0,0,0-2.12.66.66,0,0,0-.52-.56.69.69,0,0,0-.71.3A28.3,28.3,0,0,1,14.62,42.39a12.74,12.74,0,0,1-6.42.11C3.28,41.1.86,35.26,1.42,30.65ZM82,52c-.59,3-2.24,6.69-4.49,7.72a6,6,0,0,1-2.49.45c-.3,0-.6,0-.91,0a64.83,64.83,0,0,0,1.33-12.2c0-.5,0-1,0-1.52a8.13,8.13,0,0,0,1.52.17,6.49,6.49,0,0,0,1.72-.22,6.11,6.11,0,0,0,2.26-1.14A9.52,9.52,0,0,1,82,52ZM37.31,126c-15.2,0-26.48-1.11-33.53-3.3,1.25-3.09,7.61-16.54,24.35-19a26.71,26.71,0,0,0,15.79,5.48,24.88,24.88,0,0,0,14-4.46c2.41.61,19.8,5.46,25,18.77C78.49,124,57.51,126,37.31,126Zm6.61-18.11a25.76,25.76,0,0,1-14.63-4.94c2.94-3.43,4.5-9.74,5.29-14.55A25.18,25.18,0,0,0,43,89.79h0a26.72,26.72,0,0,0,8-1.23,51.72,51.72,0,0,0,5.89,15.24A23.57,23.57,0,0,1,43.92,107.86Zm-1-19.4A23.53,23.53,0,0,1,22.89,77.34c-5.71-8.9-9.08-22.23-8.64-33.53l.66-.12A29.61,29.61,0,0,0,32,32.51c-.09,1.27-.12,2.66,1,3.62.85.77,2,1,3.89.57a27.94,27.94,0,0,0,10.77-4.91,6,6,0,0,0-.1,1.05A3.39,3.39,0,0,0,49.45,36a4.28,4.28,0,0,0,2.13.15,14.33,14.33,0,0,0,9.81-6.09c1.78,7.2,5.76,12.74,11.08,15.35a13,13,0,0,0,1.6.64c0,.62,0,1.24,0,1.85-.27,14.4-4.42,25.2-12.69,33A26.82,26.82,0,0,1,43,88.46ZM7.06,48.28a10.26,10.26,0,0,1,2.25-4.19,13.15,13.15,0,0,0,3.59,0,63.64,63.64,0,0,0,1.67,16.12h0c-.33,0-.65,0-1,0A9.74,9.74,0,0,1,11,59.69C6.56,58.15,5.85,52.69,7.06,48.28Z" fill="#826355"/><path d="M57.89,104.74a24.88,24.88,0,0,1-14,4.46,26.71,26.71,0,0,1-15.79-5.48c-16.74,2.41-23.1,15.86-24.35,19,7.05,2.19,18.33,3.3,33.53,3.3,20.2,0,41.18-2,45.62-2.46C77.69,110.2,60.3,105.35,57.89,104.74Z" fill="#f48a6d"/><path d="M61.39,30.08a14.33,14.33,0,0,1-9.81,6.09A4.28,4.28,0,0,1,49.45,36a3.39,3.39,0,0,1-1.9-3.18,6,6,0,0,1,.1-1.05A27.94,27.94,0,0,1,36.88,36.7c-1.87.4-3,.2-3.89-.57-1.07-1-1-2.35-1-3.62A29.61,29.61,0,0,1,14.91,43.69l-.66.12c-.06,1.52,0,3.07,0,4.64A61.59,61.59,0,0,0,33,39.58C34.54,41.67,37.45,42.39,40,42a22.3,22.3,0,0,0,7.25-2.87c-.37,1.29,1.34,2.12,2.67,2.27a23,23,0,0,0,9.22-.9,22.29,22.29,0,0,0,14.7,11.15c.09-1.23.15-2.48.18-3.76,0-.61,0-1.23,0-1.85a13,13,0,0,1-1.6-.64C67.15,42.82,63.17,37.28,61.39,30.08Z" fill="#fab381"/><path d="M51,88.6v0a26.72,26.72,0,0,1-8,1.23h0a25.18,25.18,0,0,1-8.39-1.42,50.68,50.68,0,0,1-2.2,8.79l.56-.06c3.38-.38,6.82-.77,9.93-2.16A25.37,25.37,0,0,0,51,88.6Z" fill="#fab381"/><path d="M9.31,44.09a10.17,10.17,0,0,0-1.64,2.54A10.39,10.39,0,0,1,9.5,48.71a24.88,24.88,0,0,1,4.27,11.44c.26,0,.51,0,.77,0h0A63.64,63.64,0,0,1,12.9,44.05,13.15,13.15,0,0,1,9.31,44.09Z" fill="#fab381"/><path d="M81.79,47.27a8.28,8.28,0,0,0-.88-2,6.11,6.11,0,0,1-2.26,1.14,6.49,6.49,0,0,1-1.72.22,8.13,8.13,0,0,1-1.52-.17c0,.51,0,1,0,1.52a64.83,64.83,0,0,1-1.33,12.2c.31,0,.61,0,.91,0A7.42,7.42,0,0,0,76.56,60a2.46,2.46,0,0,0,0-.26,24.43,24.43,0,0,1,1.35-8.08A8.74,8.74,0,0,1,81.79,47.27Z" fill="#fab381"/><path d="M73.06,44.22a7.58,7.58,0,0,0,5.24.86A5,5,0,0,0,80,44.24a7.72,7.72,0,0,1-4.29-1.58,10.1,10.1,0,0,1-2.3-3.43Q69.56,31.28,66.53,23c-2.43,1.16-4.89,2.25-7.37,3.29-1.28.53-2.72,1.06-4,.56s-1.93-2.55-.74-3.26a31.09,31.09,0,0,1-13.62,4.65A4.55,4.55,0,0,1,38.35,28c-1.92-.92-1.85-3.64-1.48-5.74L25.54,28.56C20,31.64,13.84,34.83,7.67,33.44c-2-.46-4.1-1.55-5-3.46a6.87,6.87,0,0,1-.51-2.59h0a15.93,15.93,0,0,0-.78,3.26C.86,35.26,3.28,41.1,8.2,42.5a12.74,12.74,0,0,0,6.42-.11A28.3,28.3,0,0,0,32.17,30a.69.69,0,0,1,.71-.3.66.66,0,0,1,.52.56,10,10,0,0,1,0,2.12c-.09,1.18-.17,2.21.49,2.8.5.46,1.33.54,2.71.25a26.5,26.5,0,0,0,12-6.07.67.67,0,0,1,1.07.76,7.35,7.35,0,0,0-.75,2.76A2.08,2.08,0,0,0,50,34.78a3.07,3.07,0,0,0,1.44.07A12.94,12.94,0,0,0,61.08,28a.67.67,0,0,1,.6-.37h.09a.66.66,0,0,1,.56.53C63.81,35.75,67.72,41.6,73.06,44.22Z" fill="#936564"/><path d="M47.7,115.31A23.56,23.56,0,0,0,53.86,114a19.3,19.3,0,0,0,9-7.67,46.52,46.52,0,0,0-5-1.61,24.88,24.88,0,0,1-14,4.46,26.71,26.71,0,0,1-15.79-5.48,29.23,29.23,0,0,0-2.93.56c.85,1.58,1.73,3.15,2.66,4.69a13.65,13.65,0,0,0,3.37,4.12A12.55,12.55,0,0,0,36.82,115,45.53,45.53,0,0,0,47.7,115.31Z" fill="#f8af8f"/><path d="M36.12,47.39c-.85-3.83-6.11-2-8.33-.83-1.3.67-.15,2.62,1.15,2a8.6,8.6,0,0,1,3.38-1.15,4.76,4.76,0,0,1,2.53,1A.87.87,0,0,0,36.12,47.39Z" fill="#936564"/><path d="M34.37,52.59a2.29,2.29,0,1,0-4.57,0,12.76,12.76,0,0,0,.28,2.81,2.09,2.09,0,0,0,2.56,1.45A1.91,1.91,0,0,0,34,55.38l.07,0A12.76,12.76,0,0,0,34.37,52.59Z" fill="#826355"/><path d="M49.32,47.39c.85-3.83,6.1-2,8.32-.83,1.31.67.16,2.62-1.15,2a8.5,8.5,0,0,0-3.37-1.15,4.79,4.79,0,0,0-2.54,1A.87.87,0,0,1,49.32,47.39Z" fill="#936564"/><path d="M51.07,52.59a2.28,2.28,0,1,1,4.56,0,12.75,12.75,0,0,1-.27,2.81,2.09,2.09,0,0,1-2.56,1.45,1.88,1.88,0,0,1-1.38-1.47l-.07,0A12.18,12.18,0,0,1,51.07,52.59Z" fill="#826355"/><path d="M44.1,63.61c-.48,0-.76.28-1.19.41a1.37,1.37,0,0,1-1.18-.29c-.53-.38-1,.42-.66.87a2.8,2.8,0,0,0,1.86.9c.72.09,1.69-.19,1.87-1A.74.74,0,0,0,44.1,63.61Z" fill="#fab381"/><path d="M45.92,70.88c-1.18-.43-2.31.4-3.47.54s-2-.65-3.1-.82a.61.61,0,0,0-.74.42c-.29,1.69,1.73,3,3.1,3.53,1.92.7,5.18.38,5.3-2.23A1.51,1.51,0,0,0,45.92,70.88Z" fill="#f48a6d"/><path d="M32.75,51a.84.84,0,0,0,0,1.67A.84.84,0,0,0,32.75,51Z" fill="#fff"/><path d="M54.05,51a.84.84,0,0,0,0,1.67A.84.84,0,0,0,54.05,51Z" fill="#fff"/></g></g></svg>