<svg xmlns="http://www.w3.org/2000/svg" viewBox="0 0 441.99 409.13"><g id="Layer_2" data-name="Layer 2"><g id="Layer_1-2" data-name="Layer 1"><g id="freepik--Device--inject-12"><path d="M281.5,401.12,151.82,401c-15.6,0-28.24-13.3-28.23-29.69l.06-341.67C123.65,13.28,136.29,0,151.92,0L281.6.08c15.6,0,28.24,13.3,28.23,29.69l-.06,341.69C309.77,387.84,297.11,401.13,281.5,401.12Z" fill="#263238"/><path d="M281.46,12.16H256.29c-3.37,0-6.11,3-6.11,6.7v4.79c0,3.71-2.73,6.71-6.1,6.71h-49c-3.38,0-6.11-3-6.11-6.71v-4.8c0-3.7-2.73-6.71-6.1-6.71H152.05c-10.93,0-19.8,9.3-19.8,20.79l-.06,333.5c0,11.48,8.85,20.79,19.77,20.79l129.43.08c10.93,0,19.79-9.3,19.79-20.79L301.29,33C301.29,21.46,292.39,12.17,281.46,12.16Z" fill="#fff" opacity="0.21"/><path d="M240.49,175.93a9,9,0,1,1-9-9A9,9,0,0,1,240.49,175.93Z" fill="#6b8085"/><ellipse cx="204.71" cy="175.93" rx="9.6" ry="9.62" fill="#6b8085"/><ellipse cx="184.14" cy="158.91" rx="10.19" ry="10.21" fill="#6b8085"/><ellipse cx="179.97" cy="132.73" rx="10.64" ry="10.67" fill="#6b8085"/><ellipse cx="193" cy="109.82" rx="11" ry="11.03" fill="#6b8085"/><ellipse cx="218.05" cy="100.76" rx="11.99" ry="12.02" fill="#6b8085"/><path d="M260.07,158.7a8.71,8.71,0,1,1-8.71-8.73A8.71,8.71,0,0,1,260.07,158.7Z" fill="#6b8085"/><ellipse cx="256.02" cy="132.44" rx="8.08" ry="8.1" fill="#6b8085"/><ellipse cx="242.58" cy="109.51" rx="7.38" ry="7.4" fill="#6b8085"/><g opacity="0.5"><path d="M240.49,175.93a9,9,0,1,1-9-9A9,9,0,0,1,240.49,175.93Z" fill="#fff"/></g><g opacity="0.4"><ellipse cx="204.71" cy="175.93" rx="9.6" ry="9.62" fill="#fff"/></g><g opacity="0.3"><ellipse cx="184.14" cy="158.91" rx="10.19" ry="10.21" fill="#fff"/></g><g opacity="0.2"><ellipse cx="179.97" cy="132.73" rx="10.64" ry="10.67" fill="#fff"/></g><g opacity="0.1"><ellipse cx="193" cy="109.82" rx="11" ry="11.03" fill="#fff"/></g><g opacity="0.2"><ellipse cx="218.05" cy="100.76" rx="11.99" ry="12.02" fill="#fff"/></g><g opacity="0.6"><path d="M260.07,158.7a8.71,8.71,0,1,1-8.71-8.73A8.71,8.71,0,0,1,260.07,158.7Z" fill="#fff"/></g><g opacity="0.7"><ellipse cx="256.02" cy="132.44" rx="8.08" ry="8.1" fill="#fff"/></g><g opacity="0.8"><ellipse cx="242.58" cy="109.51" rx="7.38" ry="7.4" fill="#fff"/></g><path d="M189.29,262.46a3.17,3.17,0,0,1,3.11-3.23h.21a3.11,3.11,0,0,1,2.32.93l-.43.42a2.52,2.52,0,0,0-1.87-.75,2.63,2.63,0,0,0,0,5.26,2.53,2.53,0,0,0,1.87-.76l.43.42a3.08,3.08,0,0,1-2.33.94,3.19,3.19,0,0,1-3.31-3h0Z" fill="#263238"/><path d="M201.67,259.23v6.35H201v-2.93h-4v2.93h-.67v-6.35H197v2.84h4v-2.84Z" fill="#263238"/><path d="M208.29,265v.58h-4.48v-6.35h4.34v.58h-3.67v2.26h3.28v.58h-3.28V265Z" fill="#263238"/><path d="M209.19,262.46a3.17,3.17,0,0,1,3.11-3.23h.21a3.11,3.11,0,0,1,2.32.93l-.43.42a2.52,2.52,0,0,0-1.87-.75,2.63,2.63,0,0,0,0,5.26,2.53,2.53,0,0,0,1.87-.76l.43.42a3.08,3.08,0,0,1-2.33.94,3.19,3.19,0,0,1-3.31-3h0Z" fill="#263238"/><path d="M218.29,262.6l-1.3,1.32v1.66h-.7v-6.35H217v3.84l3.72-3.84h.77l-2.74,2.88,2.93,3.47h-.79Z" fill="#263238"/><path d="M222.69,259.23h.67v6.35h-.67Z" fill="#263238"/><path d="M230.71,259.23v6.35h-.55l-4.07-5.12v5.15h-.67v-6.35H226l4.08,5.16v-5.16Z" fill="#263238"/><path d="M237.29,262.46h.64v2.42a3.5,3.5,0,0,1-2.32.81,3.23,3.23,0,0,1,0-6.46h0a3.11,3.11,0,0,1,2.36.92l-.42.42a2.68,2.68,0,1,0-1.92,4.52,2.72,2.72,0,0,0,1.66-.49Z" fill="#263238"/><path d="M239.29,265.13a.47.47,0,0,1,.45-.49h0a.49.49,0,0,1,.49.49.51.51,0,0,1-.49.5.5.5,0,0,1-.48-.5h0Z" fill="#263238"/><path d="M241.29,265.13a.47.47,0,0,1,.45-.49h0a.49.49,0,0,1,.49.49.51.51,0,0,1-.49.5.47.47,0,0,1-.48-.46v0Z" fill="#263238"/><path d="M243.15,265.13a.47.47,0,0,1,.45-.49h0a.47.47,0,0,1,.48.48h0a.5.5,0,0,1-.48.5h0a.47.47,0,0,1-.48-.46v0Z" fill="#263238"/><rect x="155.73" y="222.49" width="122.07" height="24.3" rx="11.22" fill="#f5f5f5"/><rect x="155.73" y="222.49" width="67.86" height="24.3" rx="11.22" fill="#6b8085"/><path d="M252.77,236.46c0,1.26-.87,2.22-2.63,2.22a3.6,3.6,0,0,1-2.64-1l.28-.42a3.17,3.17,0,0,0,2.35.93c1.39,0,2.1-.7,2.1-1.7s-.66-1.73-2.7-1.73H248l.4-3.65h4v.5h-3.52l-.29,2.65h1.07C251.94,234.21,252.77,235.08,252.77,236.46Z" fill="#6b8085"/><path d="M258.71,236.46c0,1.26-.87,2.22-2.63,2.22a3.6,3.6,0,0,1-2.64-1l.28-.42a3.17,3.17,0,0,0,2.35.93c1.39,0,2.09-.7,2.09-1.7s-.65-1.73-2.69-1.73H254l.39-3.65h4v.5h-3.53l-.28,2.65h1.07C257.87,234.21,258.71,235.08,258.71,236.46Z" fill="#6b8085"/><path d="M259.53,233.05c0-1.22.68-2,1.65-2a2,2,0,0,1,0,4C260.2,235.05,259.53,234.28,259.53,233.05Zm2.91,0c0-1-.51-1.66-1.26-1.66s-1.24.63-1.24,1.66.5,1.67,1.24,1.67S262.44,234.09,262.44,233.05Zm3.32-2h.53l-5.13,7.53h-.46ZM264,236.59c0-1.23.68-2,1.66-2s1.65.8,1.65,2-.67,2-1.65,2S264,237.83,264,236.59Zm2.9,0c0-1-.5-1.67-1.24-1.67s-1.26.63-1.26,1.67.51,1.67,1.26,1.67,1.24-.63,1.24-1.66Z" fill="#6b8085"/><g opacity="0.2"><polygon points="185.24 222.49 176.12 246.5 182.82 246.5 191.33 222.49 185.24 222.49" fill="#fff"/></g><g opacity="0.2"><polygon points="201.7 222.49 192.57 246.5 199.28 246.5 207.78 222.49 201.7 222.49" fill="#fff"/></g><g opacity="0.2"><path d="M217.82,224.3l-8.53,22.35h4a15.83,15.83,0,0,0,3.08-1l5.92-16.56A12.93,12.93,0,0,0,217.82,224.3Z" fill="#fff"/></g><g opacity="0.2"><path d="M169.29,222.46l-8.39,22.08a12,12,0,0,0,6,1.93l8.51-24Z" fill="#fff"/></g><path d="M266.36,246.79a16.8,16.8,0,0,0,2.73-.4,11.39,11.39,0,0,0,6.4-4.35,11.14,11.14,0,0,0,2.07-5.24,21,21,0,0,0,.08-3.27,11.49,11.49,0,0,0-.68-3.43,11.27,11.27,0,0,0-8.8-7.27,30.59,30.59,0,0,0-4.49-.15l-96.5.08a12.55,12.55,0,0,0-3.39.52,11.79,11.79,0,0,0-3.05,1.53,11.2,11.2,0,0,0-4,5.3c-1.35,4.21-.91,9.29,2,12.55a11.09,11.09,0,0,0,5.36,3.44c2,.62,4.23.39,6.37.44H183l43.38.05,29.25.09h0l-29.25.08-43.38.06H167.29a12.55,12.55,0,0,1-3.28-.46,11.7,11.7,0,0,1-8.38-9.78,20.93,20.93,0,0,1-.08-3.45,11.19,11.19,0,0,1,.69-3.43,11.76,11.76,0,0,1,4.25-5.56,12.69,12.69,0,0,1,3.19-1.59,13,13,0,0,1,3.55-.55l96.5.07a30.23,30.23,0,0,1,4.56.34,11.53,11.53,0,0,1,9,7.52c1.46,4.76.6,9.41-1.58,12.16a11.43,11.43,0,0,1-6.54,4.34,8,8,0,0,1-1.19.21,5.1,5.1,0,0,1-.87.07A6.36,6.36,0,0,1,266.36,246.79Z" fill="#263238"/><path d="M167.54,355.77v8.16a.9.9,0,0,1-.9.9h0a.89.89,0,0,1-.47-.14l-6.42-4.08a.91.91,0,0,1,0-1.52l6.42-4.08a.9.9,0,0,1,1.38.76Z" fill="#e0e0e0"/><path d="M220.29,359.77a5.63,5.63,0,1,1-5.63-5.64,5.62,5.62,0,0,1,5.63,5.64Z" fill="#e0e0e0"/><rect x="260.69" y="354.87" width="10.38" height="10.41" rx="1.87" fill="#e0e0e0"/></g><g id="freepik--character-2--inject-12"><path d="M388.8,221.35a72.08,72.08,0,0,0,.68-12.37,25.15,25.15,0,0,0-3.39-11.8c-.33-.53-2.94-4-3.54-3.84-.43.13,1.43,3.5,1.28,3.93A21.25,21.25,0,0,0,384,209.9a55.23,55.23,0,0,0,4.85,11.45" fill="#263238"/><path d="M370.62,248.46c-.61-2.86-1.1-5.11-1.12-5.1s-10,1-12.64-8.61c-1.26-4.64-3.08-14.4-4.63-23.25a18.53,18.53,0,0,1,13.62-21.14l.93-.24c10.17-2,17.56,5.51,19.29,15.73l7.22,35.53L377.5,258.13Z" fill="#ffbe9d"/><path d="M369.5,243.31a24.1,24.1,0,0,0,11.58-7s-1.16,7.93-11,9.55Z" fill="#eb996e"/><path d="M357.29,219.07a1.43,1.43,0,0,0,1.69,1,1.36,1.36,0,0,0,1.1-1.56h0a1.41,1.41,0,0,0-1.68-1,1.37,1.37,0,0,0-1.11,1.49Z" fill="#263238"/><path d="M355.29,214.91c.22.14,1.06-.9,2.54-1.28s2.76.08,2.88-.15-.2-.38-.77-.6a3.85,3.85,0,0,0-2.35-.11,3.78,3.78,0,0,0-2,1.25A1.61,1.61,0,0,0,355.29,214.91Z" fill="#263238"/><path d="M370.64,216.39a1.43,1.43,0,0,0,1.69,1,1.33,1.33,0,0,0,1.1-1.54h0v-.05a1.44,1.44,0,0,0-1.69-1,1.37,1.37,0,0,0-1.12,1.58h0S370.63,216.37,370.64,216.39Z" fill="#263238"/><path d="M370,211.75c.22.14,1.06-.9,2.54-1.28s2.76.08,2.87-.14-.2-.38-.76-.6a4,4,0,0,0-4.36,1.13C370,211.33,369.87,211.7,370,211.75Z" fill="#263238"/><path d="M367.62,224.46a11.23,11.23,0,0,0-2.52.19c-.39.06-.77.08-.9-.16a2,2,0,0,1,0-1.19c.12-1,.25-2.06.38-3.17.49-4.5.74-8.16.56-8.17s-.73,3.61-1.22,8.11c-.11,1.11-.22,2.16-.32,3.17a2.28,2.28,0,0,0,.19,1.54,1,1,0,0,0,.76.39,2.51,2.51,0,0,0,.67-.08A9.87,9.87,0,0,0,367.62,224.46Z" fill="#263238"/><path d="M372.29,224.4c-.25,0,.17,1.66-.91,3.15s-2.84,1.77-2.79,2,.46.22,1.19,0a4.15,4.15,0,0,0,2.31-1.55,3.59,3.59,0,0,0,.66-2.62C372.63,224.71,372.34,224.36,372.29,224.4Z" fill="#263238"/><path d="M368.5,205.73c.25.36,1.68-.21,3.47-.45s3.32-.13,3.46-.55c.06-.2-.29-.52-.95-.76a6,6,0,0,0-5.28.77C368.63,205.15,368.39,205.55,368.5,205.73Z" fill="#263238"/><path d="M354.66,209.83c.35.27,1.28-.34,2.5-.68s2.32-.36,2.47-.77c.06-.2-.19-.49-.73-.69a3.7,3.7,0,0,0-4,1.17C354.56,209.32,354.5,209.7,354.66,209.83Z" fill="#263238"/><path d="M387.13,213.14c.15-.11,6.11-3.67,7.61,3s-5.48,6.77-5.54,6.58S387.13,213.14,387.13,213.14Z" fill="#ffbe9d"/><path d="M390.66,219.72s.14.05.35.1a1.21,1.21,0,0,0,.87-.18,2.91,2.91,0,0,0,.75-2.86,4.28,4.28,0,0,0-.7-1.59,1.37,1.37,0,0,0-1.07-.69.6.6,0,0,0-.61.47.69.69,0,0,0,0,.35.38.38,0,0,1-.17-.37.69.69,0,0,1,.17-.49.93.93,0,0,1,.61-.31,1.69,1.69,0,0,1,1.44.75,4,4,0,0,1,.81,1.76,3.11,3.11,0,0,1-1,3.25,1.25,1.25,0,0,1-1.1.06C390.71,219.88,390.64,219.74,390.66,219.72Z" fill="#eb996e"/><path d="M354.15,199.46c-1.2-.36,1.28-4.55,3.66-6.32,3.61-2.68,9.48-5.12,13.39-4.87,4.71.3,8.87,1.72,12,5.27A26.86,26.86,0,0,1,389,206.27a8.35,8.35,0,0,1-.06,4.27c-.61,1.67-2.2,3-1.68,5a2.86,2.86,0,0,1-.25,2.18c-.94,1.56-2.69.67-3.64-.41-2-2.29-2.86-5.36-3.63-8.32a20,20,0,0,1-1-6.42c.09-1.18.38-2.34.41-3.52a4.12,4.12,0,0,0-1.19-3.22,5.74,5.74,0,0,0-.66-.43,7.1,7.1,0,0,0-7.17.18c-3.46,2.13-9.43,5.49-11.37,4.58a10.45,10.45,0,0,1-3.63-2.38Z" fill="#263238"/><path d="M369.76,184.61c.46-.05,11.72-.34,16.39,6.92s4.5,9.89,4.5,9.89a5.38,5.38,0,0,1,1.36.67c.57.41.56,3.08-.9,3.15-11.57-2-24,.68-37.61,4.57L343,212.34c-2.85,1.09-4.08.57-3-.49.81-.8,8.31-6.26,8.31-6.26L349.6,204l2.82-7.11s-.75-.7.14-1.66S360.77,185.6,369.76,184.61Z" fill="#6b8085"/><path d="M349.57,204l.41-.1,1.17-.32c1-.3,2.48-.66,4.31-1.08A84.67,84.67,0,0,1,370,200.67a130.34,130.34,0,0,1,14.66.32c1.88.13,3.39.27,4.44.36l1.2.1h.42l-.41-.06-1.21-.13c-1-.11-2.55-.27-4.43-.41a117.73,117.73,0,0,0-14.67-.38,80.28,80.28,0,0,0-14.56,1.88A55.94,55.94,0,0,0,349.57,204Z" fill="#263238"/><g opacity="0.3"><path d="M380.67,186.82s-11.95,1-16.46,4.82l.52-.45-4.32,3.37a3.14,3.14,0,0,1-2.49.95,23,23,0,0,1,6.39-5.82C368.7,186.85,376.15,184.22,380.67,186.82Z"/></g><path d="M380.85,186.84a8.49,8.49,0,0,0-1.2-.41,15.06,15.06,0,0,0-3.41-.54,17.54,17.54,0,0,0-5.1.54,15,15,0,0,0-5.66,2.67,23.9,23.9,0,0,0-2.4,2.21c-.73.75-1.47,1.44-2.11,2.17a15.38,15.38,0,0,1-1.87,2,5.11,5.11,0,0,1-2.1,1c-2.81.75-4.69.6-4.61.39a.38.38,0,0,0,.28.17,3.32,3.32,0,0,0,.94.07,15.79,15.79,0,0,0,3.42-.51,5.13,5.13,0,0,0,2.17-1,15.62,15.62,0,0,0,1.9-2c.63-.71,1.38-1.41,2.11-2.16a25.84,25.84,0,0,1,2.38-2.18,14.81,14.81,0,0,1,5.59-2.66,17.93,17.93,0,0,1,5.05-.57,15.08,15.08,0,0,1,3.41.48l.9.25Z" fill="#263238"/><g opacity="0.3"><path d="M388,194.59a27.24,27.24,0,0,1-5.91.44c-2.3.07-4.55.24-6.85.21-1.74,0-3.77.07-5.13-.84a2.45,2.45,0,0,0,1.29,2,11.93,11.93,0,0,0,3.88.66,62.39,62.39,0,0,0,13.65-.79,14.27,14.27,0,0,0-.93-1.72"/></g><path d="M385.6,190.74c1.44.24,2.34.42,2.66,1.52.26.91.36,2.09-.51,2.48a2.06,2.06,0,0,1-.85.15l-14.93.74a2.14,2.14,0,0,1-1.46-.27,1.48,1.48,0,0,1,0-2.08,4,4,0,0,1,2-1,49.13,49.13,0,0,1,13-1.51" fill="#6b8085"/><path d="M370.78,195.51a1.41,1.41,0,0,1-.49-.51,1.84,1.84,0,0,1,.13-1.94,4.52,4.52,0,0,1,2.7-1.36c1.15-.23,2.43-.47,3.77-.67a39.22,39.22,0,0,1,6.93-.5c.89,0,1.6.08,2.1.12l.57.06h0l-.57-.09c-.5-.06-1.22-.15-2.11-.18a35.71,35.71,0,0,0-7,.45c-1.34.2-2.62.45-3.77.69a4.59,4.59,0,0,0-2.77,1.44,1.9,1.9,0,0,0-.09,2.06,1.08,1.08,0,0,0,.42.4Z" fill="#263238"/><polygon points="351.51 199.09 360.39 196.64 360.28 199.35 350.51 201.61 351.51 199.09" fill="#fff"/><path d="M367,203.6s-4.13.39-9.22,1-9.2,1.12-9.2,1.17,4.14-.39,9.22-1S367,203.65,367,203.6Z" fill="#263238"/><path d="M341.37,258.13l9,21.84,4-16.79a19.93,19.93,0,0,1,4.71-8.66,21.23,21.23,0,0,1,2.6-2.32h0l7.07,32.38s-6,18.44-20.25,18.87c-4.14.12-10.45-2.51-12.42-7.12-1-2.28-13.67-32.36-13.67-32.36Z" fill="#e0e0e0"/><polygon points="345.22 275.59 345.73 272.36 335.12 263.36 333.24 265.47 327.19 272.4 350.05 290.94 355.56 284.32 345.22 275.59" fill="#263238"/><path d="M430.94,316.05c.3-4.5-5.16-56-5.16-56l-11.71-17.3-22.33-3.93c-.34,2.72-2.09,9.82-11.3,12.44-4.74,1.35-9.89-3.38-9.89-3.38l-8.87,4.31,3.37,24.12,4.35,27.52,61.77,17.56S430.64,320.56,430.94,316.05Z" fill="#e0e0e0"/><polygon points="372.17 306.69 369.4 273.49 401.7 266.95 430.73 309.91 431.58 324.59 386.94 323.2 372.17 306.69" fill="#6b8085"/><path d="M363.83,263.55a9.31,9.31,0,0,1,.37,1.56c.21,1,.47,2.48.77,4.29.59,3.64,1.25,8.69,1.91,14.27s1.25,10.62,1.75,14.27c.25,1.75.45,3.2.6,4.31a9.43,9.43,0,0,1,.17,1.59,9.31,9.31,0,0,1-.37-1.56c-.21-1-.47-2.47-.76-4.29-.6-3.64-1.26-8.68-1.91-14.26s-1.26-10.63-1.76-14.27c-.24-1.75-.44-3.21-.6-4.32A9.43,9.43,0,0,1,363.83,263.55Z" fill="#263238"/><path d="M345.29,275.53s4.33.55,5.85,1.34,5.95,3.72,5.95,3.72l8.92,1.69L363.84,297l-6-3-13.16,1.31s-2.87-.66-2.87-2.71a5.43,5.43,0,0,1-2.55-3.86,56.52,56.52,0,0,1-3.84-5.51c-.32-.89,1.47-3,1.47-3s3.76,3.19,6,3.69,4.35-.4,4.55-1.87C347.89,279.12,345.29,275.53,345.29,275.53Z" fill="#ffbe9d"/><g opacity="0.3"><path d="M368.91,301s30,10.74,40,10.1c8.51-.54,12.7-4.53,13.38-10.1s1.61-29.26,1.61-29.26l-16,27.87-39.1-1.23Z"/></g><path d="M417.55,299.46c2.16-6.16,4.53-18,4.53-18l3.73-19.73A21.47,21.47,0,0,0,421,247.59c-2.45-2.94-5.88-5.45-10.46-5.43-9.69,0-9.35,17.91-9.35,17.91l-2.64,25.59-37.94-6.2-2.41,18.24,44.62,9.63a13.3,13.3,0,0,0,11-2.11A11.56,11.56,0,0,0,417.55,299.46Z" fill="#e0e0e0"/><path d="M411.56,243.73c0,.08-.77.12-1.95.44a10.42,10.42,0,0,0-7,6c-.49,1.13-.64,1.89-.72,1.88a4.3,4.3,0,0,1,.37-2,9.72,9.72,0,0,1,7.22-6.24A4.44,4.44,0,0,1,411.56,243.73Z" fill="#263238"/><path d="M425.81,261.72a2,2,0,0,1-.06.48c-.06.31-.14.79-.24,1.38l-1,5.32c-.43,2.31-.95,5.14-1.55,8.41s-1.31,7-2.26,11.09c-.47,2.05-1,4.19-1.58,6.4-.29,1.11-.62,2.23-1,3.37a25,25,0,0,1-1.31,3.43,11,11,0,0,1-2.21,3.11,11.79,11.79,0,0,1-3.31,2.13,13.89,13.89,0,0,1-8.08.85l-35.28-7.59-9.86-2.1h-.24v-.23c.83-6.3,1.64-12.4,2.41-18.25v-.25h.25l38,6.28-.21.16c.85-7.93,1.54-14.32,2-18.75.24-2.18.44-3.88.57-5.06.07-.56.12-1,.16-1.31s.07-.45.07-.45v.45c0,.29-.06.76-.11,1.32-.11,1.18-.27,2.88-.48,5.07-.43,4.44-1.07,10.83-1.85,18.77v.19h-.19l-38-6.12.28-.21c-.76,5.84-1.56,11.94-2.39,18.24l-.13-.3,9.91,2.13,35.26,7.63a13.36,13.36,0,0,0,7.8-.8,10.93,10.93,0,0,0,3.19-2,10.41,10.41,0,0,0,2.14-3,25.3,25.3,0,0,0,1.29-3.36c.35-1.13.68-2.25,1-3.35.61-2.21,1.13-4.34,1.61-6.38,1-4.08,1.72-7.79,2.33-11.07s1.19-6.08,1.64-8.39.8-4.06,1.05-5.3c.12-.58.22-1,.29-1.37A1.39,1.39,0,0,0,425.81,261.72Z" fill="#263238"/><path d="M402.91,292.14a18,18,0,0,1-2.53-3.35c-.64-1-1.19-1.89-1.58-2.49a2.05,2.05,0,0,0-.89-.7.5.5,0,0,1,.36-.05,1.63,1.63,0,0,1,.81.52c.61.78,1.19,1.59,1.73,2.43A17.14,17.14,0,0,1,402.91,292.14Z" fill="#263238"/><path d="M396.42,268.71s-6.75-17.12.29-25.49a8,8,0,0,1,6.72-2.76c2.22.17,5.17.6,7.06,1.69,0,0-6-1.07-8.49,1.58-1.84,2-6.27,8.31-1.6,23.48Z" fill="#6b8085"/><path d="M369.52,274.29l-6.88-22.56a3.9,3.9,0,0,1,4.14-1.94l6.64,24.5Z" fill="#6b8085"/><path d="M347.09,282.27c-.09.11-3.82-2.7-8.34-6.28a102.16,102.16,0,0,1-8-6.68c.09-.11,3.82,2.7,8.34,6.28A95.28,95.28,0,0,1,347.09,282.27Z" fill="#455a64"/><polygon points="329.15 270.16 327.1 268.27 328.08 267.06 330.46 268.66 329.15 270.16" fill="#455a64"/><path d="M309.87,240.66a3.56,3.56,0,0,1,2.44-4.29c3.72-1.1,9.46-2.47,11-1,2.37,2.17,8,7.42,8,7.42L339.13,259l-12.66,3.73-3.6-12.35s-5.76.31-5.25-2.78c0,0-2.88-1.13-2.47-2.88s2.78-2.16,2.78-2.16l-.51-3.09-7.57,1.33Z" fill="#ffbe9d"/><path d="M316.1,245h-6.38v-7.49h6.38a3.76,3.76,0,0,1,3.76,3.76h0A3.78,3.78,0,0,1,316.1,245Z" fill="#455a64"/><path d="M321,241.05l-9.58-2.47s-2.57-.72-1.23,2.06,5.35,2.16,6.89,3.81,2.42,4.43,8.81,5.46" fill="#ffbe9d"/><path d="M325.85,249.91a6.1,6.1,0,0,1-1.27-.14,13.89,13.89,0,0,1-3.31-1.06,8.47,8.47,0,0,1-2-1.35,15,15,0,0,1-1.82-2.08c-1-1.73-3.36-1.64-5.44-2.59a4.69,4.69,0,0,1-1.42-1,4.45,4.45,0,0,1-.87-1.45,3.44,3.44,0,0,1-.19-.83,1.1,1.1,0,0,1,.34-.89,1.92,1.92,0,0,1,1.65-.16l4.94,1.33,3.32.94a7.39,7.39,0,0,1,1.2.41,5.36,5.36,0,0,1-1.25-.21l-3.37-.79-5-1.22a1.42,1.42,0,0,0-1.19.08c-.25.19-.18.71,0,1.16a4.06,4.06,0,0,0,.76,1.28,4.62,4.62,0,0,0,1.27.87,26.38,26.38,0,0,0,3,1,5.56,5.56,0,0,1,1.47.66,5.22,5.22,0,0,1,1.12,1.13,14.93,14.93,0,0,0,1.74,2.06,9.66,9.66,0,0,0,1.89,1.34A26.59,26.59,0,0,0,325.85,249.91Z" fill="#eb996e"/><path d="M325.29,296.57a6.65,6.65,0,0,1-5.56-3.31,9.85,9.85,0,0,1-.4-8.77c.08-.18.16-.37.25-.54l-.09-.23a16.45,16.45,0,0,1-.9-5.25c-.36-5.86-.7-11.31-1-16.75s-.66-10.92-1-16.79h.5c.36,5.87.7,11.33,1,16.79s.66,10.89,1,16.75a16.31,16.31,0,0,0,.81,5,4.85,4.85,0,0,1,2.89-2.36,3.15,3.15,0,0,1,2.51.52,2.87,2.87,0,0,1,1.25,2.09,3.19,3.19,0,0,1-3,3.38h-.38a4.51,4.51,0,0,1-3.34-2.52l-.08.18a9.38,9.38,0,0,0,.36,8.31,5.85,5.85,0,0,0,6.7,2.81c2.33-.84,4.15-3.65,4.42-6.85a17,17,0,0,0-2-8.71c-.64-1.34-1.38-2.65-2.09-3.92s-1.48-2.64-2.13-4a7.33,7.33,0,0,1-.91-3.23,3,3,0,0,1,1.62-2.86,1.82,1.82,0,0,1,2.29,1.17,1.9,1.9,0,0,1,.09.67h-.49a1.33,1.33,0,0,0-1.29-1.38,1.21,1.21,0,0,0-.42.05,2.55,2.55,0,0,0-1.3,2.4,7.16,7.16,0,0,0,.86,3c.64,1.37,1.39,2.7,2.12,4s1.45,2.59,2.1,3.95a17.51,17.51,0,0,1,2,9c-.24,2.86-1.8,6.22-4.74,7.28A5.14,5.14,0,0,1,325.29,296.57ZM320.1,284a4.26,4.26,0,0,0,3.12,2.58,2.54,2.54,0,0,0,2-.81,2.47,2.47,0,0,0,.77-2,2.43,2.43,0,0,0-1-1.73,2.62,2.62,0,0,0-2.1-.45,4.63,4.63,0,0,0-2.76,2.41Z" fill="#455a64"/><path d="M383.49,388.55l23.12-7.91s15.8,20.82,20.22,19.82l-13.72-45.4L376.57,365.9Z" fill="#455a64"/><path d="M400.4,367.2a1.93,1.93,0,0,1,1.73-1.92,1.86,1.86,0,0,1,1.92,1.69,2.05,2.05,0,0,1-1.84,2,1.93,1.93,0,0,1-1.8-2" fill="#e0e0e0"/><path d="M414.05,354.74l-3.54,1L424,399.3s1.5,1.76,2.85,1.1Z" fill="#e0e0e0"/><path d="M406.6,381.46c.22-.07,0-1.21.37-2.51s1.14-2.17,1-2.35-1.33.54-1.77,2.13S406.41,381.55,406.6,381.46Z" fill="#263238"/><path d="M410,385.61c.23,0,.32-1.09,1-2.13s1.63-1.55,1.56-1.77-1.38,0-2.24,1.33S409.8,385.67,410,385.61Z" fill="#263238"/><path d="M416.52,386.59c0-.22-1.21-.19-2.25.75s-1.21,2.11-1,2.15.67-.8,1.54-1.55S416.57,386.82,416.52,386.59Z" fill="#263238"/><path d="M401.13,382.66c.18-.15-.44-1.08-.73-2.36s-.19-2.37-.42-2.43-.73,1.12-.36,2.62S401,382.82,401.13,382.66Z" fill="#263238"/><path d="M380.68,326.89c-.89-.24-40.05,41.76-40.94,48.71s.53,13,5.16,16.9,57.31-8.9,57.31-8.9l-5-22.07,19-6.4-17-31.15Z" fill="#6b8085"/><g opacity="0.3"><path d="M371.41,336.2l-1.25,1.35s22.44,23.55,29.33,23.22l11-3.73-37.2-22.88Z"/></g><path d="M397.36,362.11c0,.14-8.13,2.66-18.24,5.63s-18.36,5.27-18.4,5.13,8.13-2.65,18.25-5.63S397.29,362,397.36,362.11Z" fill="#263238"/><path d="M348.46,364.54l7.61,24.14s-22,15.85-21,20.45l47.35-13.08-10.31-38.11Z" fill="#455a64"/><path d="M370.14,382.59a2,2,0,0,1,1.95,1.83,1.92,1.92,0,0,1-1.81,2,2.12,2.12,0,0,1-2-2,2,2,0,0,1,2.1-1.81" fill="#e0e0e0"/><path d="M382.71,397l-1-3.7-45.42,12.91s-1.86,1.5-1.21,2.92Z" fill="#e0e0e0"/><path d="M355.29,388.65c.08.23,1.26,0,2.6.45s2.22,1.23,2.41,1.08-.53-1.39-2.16-1.88S355.13,388.46,355.29,388.65Z" fill="#263238"/><path d="M350.84,392.08c0,.24,1.11.35,2.17,1.11s1.57,1.74,1.79,1.66,0-1.42-1.31-2.34S350.78,391.86,350.84,392.08Z" fill="#263238"/><path d="M349.66,398.8c.22,0,.22-1.25-.72-2.35s-2.16-1.31-2.21-1.09.81.71,1.57,1.63S349.42,398.84,349.66,398.8Z" fill="#263238"/><path d="M354.11,383c.15.18,1.13-.43,2.46-.7s2.46-.14,2.53-.38-1.14-.78-2.71-.44S354,382.81,354.11,383Z" fill="#263238"/><g opacity="0.3"><polygon points="382.74 388 379.82 376.55 382 375.54 368.75 339.48 366.22 341.68 376.63 374.71 380.36 388.5 382.74 388"/></g><path d="M351.48,298.74a18.55,18.55,0,0,0-14.9,3.2A13.65,13.65,0,0,0,331,315.61c2.13,15,21.24,66,21.24,66l26.44-7.95c.15,0,.3-.48.21-.35-.21.35-13.41-42.16-13.08-41.66s26.68,21.81,37.62,25.67A24.28,24.28,0,0,0,431.17,349c2.56-3.58,2.74-19.32,0-27.64,0,0-76.3-21.63-77.73-22.16A14.67,14.67,0,0,0,351.48,298.74Z" fill="#6b8085"/><path d="M350.4,314.3a35.88,35.88,0,0,1,15.5,25.16" fill="#6b8085"/><path d="M432.29,348.52,432,349a16,16,0,0,1-1.07,1.39,24,24,0,0,1-5.21,4.37,26.71,26.71,0,0,1-10.12,3.85,23.13,23.13,0,0,1-6.85.09,22.51,22.51,0,0,1-7.38-2.22c-1.26-.53-2.45-1.25-3.72-1.9s-2.51-1.43-3.77-2.23q-3.78-2.36-7.78-5.12-8-5.52-16.64-12.42l-2.16-1.75-1.08-.9-.29-.27-.14-.13c.09,0-.25-.12.19.06.35-.37.1-.18.18-.22v.07l.19.68c.56,1.8,1.12,3.63,1.7,5.49q1.77,5.55,3.59,11.37c2.48,7.76,5.06,15.86,7.73,24.23l.08.24-.25.08-26.77,8.06-.24.07-.08-.23c-1.71-4.58-3.48-9.45-5.25-14.4-3.84-10.74-7.49-21.26-10.7-31.53-1.61-5.13-3.11-10.2-4.31-15.25-.15-.63-.32-1.25-.44-1.89s-.23-1.27-.35-1.9a17,17,0,0,1-.37-3.83,13.53,13.53,0,0,1,2.12-7.23,17.41,17.41,0,0,1,12.16-7.35,19,19,0,0,1,7,.29l1.67.43,1.61.48,3.19.95,23.41,7,33.9,10.16,9.21,2.79,2.39.73.81.27s-.28-.06-.83-.22l-2.4-.68-9.24-2.7-34-10-23.44-6.94-3.19-.94-1.64-.47-1.61-.4a18.91,18.91,0,0,0-6.79-.28,16.93,16.93,0,0,0-11.82,7.16,12.84,12.84,0,0,0-2,7,16.29,16.29,0,0,0,.37,3.75c.11.62.23,1.25.35,1.88s.29,1.25.43,1.88c1.2,5,2.7,10.08,4.32,15.21,3.21,10.25,6.86,20.77,10.7,31.51,1.77,4.94,3.54,9.82,5.24,14.39l-.31-.16,26.78-8-.17.31c-2.66-8.37-5.23-16.47-7.7-24.23q-1.83-5.84-3.58-11.39c-.57-1.85-1.13-3.69-1.69-5.5l-.19-.69v-.1c.08-.06-.18.08.17-.29.47.19.15.06.26.12l.12.1.24.21,1.07.9,2.15,1.75c5.75,4.59,11.3,8.76,16.59,12.45,2.64,1.86,5.23,3.56,7.75,5.14,1.25.79,2.52,1.5,3.74,2.23a32.21,32.21,0,0,0,3.69,1.91,23.77,23.77,0,0,0,14.06,2.16,26.6,26.6,0,0,0,10.07-3.75,24.73,24.73,0,0,0,5.23-4.28c.39-.43.75-.89,1.1-1.36A1.64,1.64,0,0,1,432.29,348.52Z" fill="#263238"/><path d="M353.75,319.93a9.75,9.75,0,0,1,2.2,1.19,32.9,32.9,0,0,1,4.74,3.74,29.09,29.09,0,0,1,3.92,4.59,8.41,8.41,0,0,1,1.22,2.19,18.47,18.47,0,0,1-1.52-2,37.3,37.3,0,0,0-4-4.43,45.24,45.24,0,0,0-4.59-3.81A16.53,16.53,0,0,1,353.75,319.93Z" fill="#263238"/><path d="M362.78,317a8.32,8.32,0,0,1,1,2,36.13,36.13,0,0,1,1.55,5.1,33.45,33.45,0,0,1,.75,5.27,9.08,9.08,0,0,1,0,2.21c-.16,0-.33-3.35-1.24-7.37S362.63,317,362.78,317Z" fill="#263238"/><path d="M421.29,315.94l9.66-2.78,6.31,1.14,3,10.54c3,9.32,2.33,14.66-3.85,18.75-1.81,1.2-3.53,1.86-4.78,1.33C427.29,343.08,421.29,315.94,421.29,315.94Z" fill="#455a64"/><polygon points="430.91 313.16 369.26 303.02 369.4 303.84 430.91 322.24 430.91 313.16" fill="#455a64"/></g><g id="freepik--character-1--inject-12"><path d="M52.86,363.23,46.8,384.56S66.11,398,65.37,402L24.22,391.56,32.33,358Z" fill="#455a64"/><path d="M34.52,379.47a1.74,1.74,0,0,0-1.64,1.63,1.68,1.68,0,0,0,1.6,1.67A1.85,1.85,0,0,0,36.21,381a1.71,1.71,0,0,0-1.85-1.54" fill="#e0e0e0"/><g opacity="0.6"><path d="M24.22,391.56l1-3.35,39.1,11.25s1.63,1.28,1.1,2.53Z" fill="#fff"/></g><path d="M47.52,384.46c-.06.2-1.08,0-2.23.45s-1.89,1.12-2.06,1,.43-1.23,1.83-1.7S47.61,384.29,47.52,384.46Z" fill="#263238"/><path d="M51.39,387.37c0,.2-1,.33-1.85,1s-1.32,1.55-1.52,1.49,0-1.25,1.09-2.08S51.43,387.17,51.39,387.37Z" fill="#263238"/><path d="M52.55,393.22c-.2,0-.22-1.09.57-2.07S55,390,55,390.15s-.69.64-1.32,1.45S52.75,393.25,52.55,393.22Z" fill="#263238"/><path d="M48.37,379.46c-.13.16-1-.35-2.14-.56s-2.13-.07-2.19-.27,1-.72,2.33-.45S48.51,379.32,48.37,379.46Z" fill="#263238"/><path d="M38.44,368.24l-1,22.12s21.88,8.42,22.1,12.53l-42.37-.33L17.26,368Z" fill="#455a64"/><path d="M24.38,388.4a1.76,1.76,0,0,0-1.21,2,1.67,1.67,0,0,0,1.94,1.24,1.86,1.86,0,0,0,1.27-2.08,1.73,1.73,0,0,0-2.15-1.06" fill="#e0e0e0"/><g opacity="0.6"><path d="M17.17,402.56l.14-3.48,40.61,1.62s1.88.85,1.66,2.2Z" fill="#fff"/></g><path d="M38.17,390.15c0,.21-1,.3-2.07,1s-1.57,1.55-1.76,1.46.13-1.29,1.38-2.07S38.22,390,38.17,390.15Z" fill="#263238"/><path d="M42.61,392.1c0,.2-.86.55-1.57,1.44s-.92,1.82-1.12,1.8-.33-1.19.57-2.27S42.6,391.85,42.61,392.1Z" fill="#263238"/><path d="M45.09,397.47c-.19,0-.47-1,.07-2.16s1.52-1.59,1.6-1.42-.51.79-.94,1.74S45.3,397.45,45.09,397.47Z" fill="#263238"/><path d="M37.84,385.1c-.09.19-1-.1-2.21,0s-2.08.44-2.19.26.78-.93,2.16-1S38,384.92,37.84,385.1Z" fill="#263238"/><path d="M12.2,206.31v17.5L16.84,292S14,325,12.18,343.71c-1.54,16.21,1,44.44,1,44.44h27L49.84,294l6-58.72,10.4-26.72Z" fill="#263238"/><path d="M78.51,206.31l2.61,71c-.18,13.33-3.85,38.22-8.62,50.65l-21.69,47.7L49.56,380l-16.13-4,12-168.44Z" fill="#263238"/><path d="M59.83,225.1a3.08,3.08,0,0,1,0,.43v6c0,4.17,0,10.2-.13,17.65s-.36,16.32-.89,26.16-1.24,20.76-3.55,31.92C53.26,318.43,51,329,49,338.67S45.2,357,43.87,364.33s-2.3,13.28-2.89,17.41c-.31,2.06-.47,3.67-.62,4.75-.07.53-.13.94-.17,1.24a1.84,1.84,0,0,1-.08.42,1.55,1.55,0,0,1,0-.43c0-.3.06-.71.11-1.24.12-1.09.25-2.7.53-4.77.49-4.14,1.38-10.1,2.66-17.45s3-16,5-25.69,4.24-20.24,6.37-31.41c2.3-11.13,3-22,3.58-31.78s.82-18.69,1-26.14.25-13.47.3-17.64v-6A3,3,0,0,1,59.83,225.1Z" fill="#455a64"/><path d="M93.82,188.15a12,12,0,0,1,.4,4.09c-.2,2.09-.3,7.25-5.88,9s-10.85-2.43-12.55-4.32-1.51-8.08-1.51-8.08l9.17-4.08Z" fill="#6b8085"/><path d="M30.43,109.42l-4.64,7.46L7,124.88l4.67,77.22,3.38,14L77.7,214l1.55-10.84V151.1c-1.42-13.36-7.87-21.66-13.86-25l-3.91-2.68L60,118.56l-5.52-5.17L36.77,108.8Z" fill="#6b8085"/><g opacity="0.3"><path d="M9.61,196.22a19.2,19.2,0,0,0,18.92,8.42c6.29-1.06,11.6-5.21,17.63-7.28,10.49-3.62,22.46-.74,32.8-4.77.2-1.78.08-4,.2-5.18-5.17-.27-10.68-.56-15.25-3l-4.15-1.53Z"/></g><path d="M7,124.89s-9,7.64-6.38,27.56C3,171,7.3,196.73,13,199.72s17.9,1.49,26.87-3.62,35-18.84,35-18.84L64.12,158.15,29.43,171.61s-4.49-30.7-7.18-36" fill="#6b8085"/><path d="M22.25,135.63s.1.19.27.58c.08.2.2.44.31.74l.34,1.05c.51,1.58,1.12,4,1.78,7.07,1.34,6.21,3,15.25,4.66,26.51l-.25-.15L64,157.93l.19-.08.11.18c3.4,6,7,12.48,10.77,19.13l.13.23-.25.17-22.24,12-10.91,5.87a49.42,49.42,0,0,1-5.43,2.76,44.84,44.84,0,0,1-5.67,2,37.32,37.32,0,0,1-11.57,1.34,16.65,16.65,0,0,1-5.56-1.17l-.65-.29a5.38,5.38,0,0,1-.63-.39,6.31,6.31,0,0,1-1-1,14.59,14.59,0,0,1-1.47-2.36,53.07,53.07,0,0,1-3.47-10c-.88-3.33-1.57-6.6-2.19-9.76C3,170.22,2,164.28,1.28,158.85A88.26,88.26,0,0,1,0,144.1a36.89,36.89,0,0,1,2-11,24.58,24.58,0,0,1,3.29-6.25,16,16,0,0,1,1.19-1.4A6,6,0,0,1,7,125l-.43.45c-.27.31-.67.78-1.14,1.43a25.82,25.82,0,0,0-3.18,6.26A36.62,36.62,0,0,0,.38,144.1c-.17,4.34.52,9.26,1.3,14.69s1.72,11.35,3,17.67c.63,3.16,1.33,6.42,2.21,9.73a54.13,54.13,0,0,0,3.46,9.91,13.38,13.38,0,0,0,1.42,2.28,5.84,5.84,0,0,0,.93.93,3.55,3.55,0,0,0,.55.34l.62.28a16.17,16.17,0,0,0,5.4,1.12,36.33,36.33,0,0,0,11.35-1.52,44.12,44.12,0,0,0,5.6-1.94c1.83-.79,3.57-1.78,5.37-2.74L52.51,189l22.25-12-.1.35-10.75-19,.29.1L29.49,171.78l-.21.09v-.24c-1.66-11.25-3.26-20.31-4.49-26.53-.63-3.11-1.21-5.5-1.68-7.09-.12-.4-.22-.75-.32-1.06l-.28-.74C22.42,136,22.33,135.83,22.25,135.63Z" fill="#263238"/><polygon points="25.24 146.97 47.77 145.49 52.75 154.86 27.5 159.4 25.24 146.97" fill="#6b8085"/><path d="M25.24,147q.12.45.21.9c.12.63.29,1.46.5,2.5.42,2.19,1,5.25,1.74,9l-.23-.16,22.73-4.11,2.52-.45-.19.37c-1.74-3.3-3.42-6.45-5-9.37l.23.12-16.14.94-4.68.25H25.61l1.2-.11,4.62-.37,16.29-1.19h.16l.07.14,5,9.36.17.31-.35.07-2.51.45-22.76,4h-.19v-.19c-.64-3.82-1.17-6.94-1.55-9.17-.17-1-.3-1.85-.4-2.46A5.72,5.72,0,0,1,25.24,147Z" fill="#263238"/><path d="M29.43,171.61c.14.11-1.88,2.48-3.56,5.86s-2.4,6.42-2.58,6.37a6.56,6.56,0,0,1,.38-2A24,24,0,0,1,28,173.1,6.88,6.88,0,0,1,29.43,171.61Z" fill="#263238"/><path d="M52,128.68a7.13,7.13,0,0,1-1.25-.89l-3.27-2.6h.28a30.19,30.19,0,0,1-4.47,5.61l-.16.16-.18-.15-3.45-2.87c-3.7-3-7.16-5.64-9.68-7.5l-3-2.21a6.59,6.59,0,0,1-1.06-.85,6.92,6.92,0,0,1,1.24.72c.74.47,1.8,1.17,3.09,2.07,2.58,1.79,6.08,4.37,9.79,7.4,1.21,1,2.38,2,3.45,2.89H43a31.81,31.81,0,0,0,4.5-5.46l.12-.19.16.15L51,127.62A12.44,12.44,0,0,1,52,128.68Z" fill="#263238"/><path d="M61.32,124a3.82,3.82,0,0,1,.18,1.25,18.6,18.6,0,0,1-.11,3.34l-.07.59-.34-.5a42.1,42.1,0,0,0-2.68-3.46c-.4-.47-.81-.91-1.21-1.33-.19-.21-.38-.4-.58-.59s-.17-.13-.35.06l-1.66,2.31a12.14,12.14,0,0,1-1.64,2.07,13.76,13.76,0,0,1,1.34-2.28L55.78,123a.66.66,0,0,1,.88-.24h0l.12.08c.26.22.42.4.64.62.41.42.83.87,1.24,1.35a31.57,31.57,0,0,1,2.66,3.55l-.42.1C61.35,125.79,61.21,124,61.32,124Z" fill="#263238"/><path d="M21.22,132.56a11.82,11.82,0,0,1-1.4-1.66,18.16,18.16,0,0,0-3.69-3.58,12.15,12.15,0,0,0-4.74-1.76,15.59,15.59,0,0,1-2.14-.33,6.71,6.71,0,0,1,2.19,0,11,11,0,0,1,5,1.79,15.27,15.27,0,0,1,3.7,3.78A7.44,7.44,0,0,1,21.22,132.56Z" fill="#263238"/><path d="M70.17,146.42a24.7,24.7,0,0,1-1.78-4.8,25.16,25.16,0,0,1-1.29-5,26.29,26.29,0,0,1,1.79,4.81A26.12,26.12,0,0,1,70.17,146.42Z" fill="#263238"/><path d="M79,190.56a8.44,8.44,0,0,1,.2,2c.08,1.22.22,2.9.3,4.77a30.86,30.86,0,0,1-.1,4.81,5.48,5.48,0,0,1-.43,2,11.18,11.18,0,0,1,.06-2v-4.76c0-1.86-.16-3.55-.14-4.78A6.36,6.36,0,0,1,79,190.56Z" fill="#263238"/><path d="M38.15,153.56a1.21,1.21,0,1,0,.3-.23" fill="#e0e0e0"/><g opacity="0.3"><polygon points="23.74 140.22 30.06 158.94 50.89 155.2 30.81 163.07 29.12 169.56 23.74 140.22"/></g><g opacity="0.3"><path d="M26.36,117.71,45,134.56l2.88-7.88,3,1L47.67,125s-3.54,5.44-4.48,5.54Z"/></g><path d="M61.85,158.1a5.56,5.56,0,0,1-.38-1.13c-.23-.84-.53-1.89-.88-3.13-.74-2.64-1.81-6.27-3.12-10.25s-2.63-7.52-3.61-10.09c-.45-1.2-.84-2.21-1.15-3a5.45,5.45,0,0,1-.38-1.14,5.67,5.67,0,0,1,.56,1.06c.33.69.78,1.71,1.32,3,1.06,2.53,2.43,6.08,3.75,10.06s2.34,7.65,3,10.32c.33,1.33.57,2.42.72,3.17A4.83,4.83,0,0,1,61.85,158.1Z" fill="#263238"/><path d="M61.58,137.28C65.1,140.79,74,150,74,150l2.39-1.44L63.84,135.1a1.58,1.58,0,0,0-2-.24h0a1.58,1.58,0,0,0-.47,2.17A2.76,2.76,0,0,0,61.58,137.28Z" fill="#263238"/><path d="M64.12,158.15l3-8.44a4.74,4.74,0,0,1,4.33-3.24h.45c1.8.2,11,.8,11,.8l3.55,4a1.86,1.86,0,0,1,0,2.41h0l1,7.17-2,1.37.2,5s-1.8,1.2-2.59.8l-.8-.4-1.2-1.2-3.39,4.79L73,173.92Z" fill="#ffbe9d"/><path d="M86.46,154.1a13.38,13.38,0,0,0-1.29-1.4,6.5,6.5,0,0,0-1.71-1,13.71,13.71,0,0,0-2.48-.34,41.38,41.38,0,0,1-6.55-.87,41.54,41.54,0,0,1,6.6.35,11.86,11.86,0,0,1,2.59.41,5.7,5.7,0,0,1,1.8,1.21A3.16,3.16,0,0,1,86.46,154.1Z" fill="#eb996e"/><path d="M86.26,160.65a16.07,16.07,0,0,0-.74-1.84,7.17,7.17,0,0,0-3.54-3,14.08,14.08,0,0,0-4.69-.79,9.58,9.58,0,0,1-2-.06,5.68,5.68,0,0,1,2-.3,11.78,11.78,0,0,1,4.89.67,7,7,0,0,1,3.68,3.28A3.11,3.11,0,0,1,86.26,160.65Z" fill="#eb996e"/><path d="M85.36,166.81a3.87,3.87,0,0,1-.48-2,6.4,6.4,0,0,0-.45-2.06,2.6,2.6,0,0,0-1.89-1.43,36.3,36.3,0,0,0-4.77-.69,5.13,5.13,0,0,1-2-.46,16.64,16.64,0,0,1,2,.1,23.47,23.47,0,0,1,4.88.55,3.87,3.87,0,0,1,1.35.62,2.64,2.64,0,0,1,.84,1.12,6.28,6.28,0,0,1,.37,2.22C85.25,166.1,85.42,166.78,85.36,166.81Z" fill="#eb996e"/><polygon points="90.35 150.96 50.81 191.8 52.33 193.34 80.66 190.15 118.78 153.83 118.74 152.09 90.35 150.96" fill="#455a64"/><g opacity="0.3"><path d="M92.91,176.62a7.47,7.47,0,0,0-5.71-1.91,10.49,10.49,0,0,0-5.63,2.39,7.62,7.62,0,0,0-2.8,4c-.66,2.83,1.22,5.79,3.78,7.16l.35-.41L92.64,180a2.7,2.7,0,0,0,1.13-1.44A2.29,2.29,0,0,0,92.91,176.62Z"/></g><path d="M88.74,172.8s3.83.08,5.08.7,4.69,4.29,4.69,4.29,0,2.49-1,2.59a9.74,9.74,0,0,1,.2,1.69c.1,1.4.3,2.2-1.6,3.39,0,0,.2,2.3-.5,2.89a13.31,13.31,0,0,1-1.49,1.1s-2.19,2.69-3.49,2.49-3.17,1.4-3.17,1.4-7-2.92-6.3-3.75l2.44-2.7s-4.83-3.52-4.73-4.62.5-1.19.5-1.19-.2-2.1,1.49-2.3c0,0,1.3-2.59,2.59-2.69s10.07,3.09,10.07,3.09l-3.29-2.79s-3.29-.5-3.19-1.59S88.74,172.8,88.74,172.8Z" fill="#ffbe9d"/><path d="M88.15,185.94c-.08.12-2-1-4.44-2.16a44.56,44.56,0,0,1-4.46-2.15,16.17,16.17,0,0,1,4.68,1.68A15.5,15.5,0,0,1,88.15,185.94Z" fill="#eb996e"/><path d="M92.72,182.88A33.86,33.86,0,0,1,87,181a33.25,33.25,0,0,1-5.54-2.35,35.78,35.78,0,0,1,5.72,1.88A36.62,36.62,0,0,1,92.72,182.88Z" fill="#eb996e"/><path d="M118.63,153.76a2.26,2.26,0,0,1-.52,0H116.6l-5.67-.07-19.71-.38.18-.07-9.91,10.32c-8,8.25-15.25,15.7-20.54,21.15l-6.27,6.39L53,192.8a4.27,4.27,0,0,1-.63.57,5.81,5.81,0,0,1,.56-.65l1.65-1.78,6.15-6.48,20.43-21.25L91.07,153l.07-.08h.11l19.71.57,5.66.21,1.51.07A2.07,2.07,0,0,1,118.63,153.76Z" fill="#263238"/><path d="M70.18,72.43a7.55,7.55,0,0,0-4.86-2.5,4.81,4.81,0,0,0-3.15.24,3.79,3.79,0,0,0-1.62,3.64,15,15,0,0,0,1.21,4,7.27,7.27,0,0,1,.57,4.11l3.59,8.55a4.52,4.52,0,0,0,2.65-5.82h0a5.32,5.32,0,0,0-.32-.69A4.38,4.38,0,0,0,70,78a4.51,4.51,0,0,0-.47-.7C71.17,76.43,71.3,73.92,70.18,72.43Z" fill="#263238"/><path d="M37,94.75,36.6,77.47,25.66,77A3.66,3.66,0,0,0,23,81.4a3.6,3.6,0,0,0,1.34,2A4.5,4.5,0,0,0,25,91.86a4.51,4.51,0,0,0,.66,6.33,4.43,4.43,0,0,0,2.24,1c0,2,1.14,4.24,3.1,4.8s4.26-.93,5.18-2.87A14,14,0,0,0,37,94.75Z" fill="#263238"/><path d="M25.4,75.1s1.08,14.3,2.48,18.66a43.91,43.91,0,0,0,4.48,9.06l33.36-10.4c1.13-7.72,2.3-15.48,1.82-21.56L56.9,67.1Z" fill="#263238"/><path d="M32.46,93.72A71.5,71.5,0,0,1,29.21,82,24.56,24.56,0,0,1,30,69.89c.2-.59,2-4.5,2.6-4.44.44,0-.64,3.67-.41,4a21,21,0,0,1,2.53,12.18,55.64,55.64,0,0,1-2.27,12" fill="#263238"/><path d="M55.62,120.49v-9.68s9.86-1.14,10.4-10.93c.25-4.73,0-14.51-.41-23.35A18.28,18.28,0,0,0,48,59h-.94c-10.21.19-15.75,9-15.27,19.18v33.16L52,125.9Z" fill="#ffbe9d"/><path d="M55.64,110.81A23.58,23.58,0,0,1,43,106.56s2.83,7.25,12.64,6.75Z" fill="#eb996e"/><path d="M62.39,84.9A1.39,1.39,0,0,1,61,86.26,1.31,1.31,0,0,1,59.64,85v0h0A1.41,1.41,0,0,1,61,83.56h0a1.32,1.32,0,0,1,1.4,1.24h0A.12.12,0,0,1,62.39,84.9Z" fill="#263238"/><path d="M63.34,80.56c-.18.17-1.21-.65-2.72-.71s-2.64.66-2.79.47.11-.41.61-.74a3.79,3.79,0,0,1,2.24-.6,3.7,3.7,0,0,1,2.15.79C63.28,80.1,63.43,80.43,63.34,80.56Z" fill="#263238"/><path d="M48.9,85.1a1.4,1.4,0,0,1-1.4,1.36,1.33,1.33,0,0,1-1.4-1.27v0h0a1.41,1.41,0,0,1,1.41-1.36,1.33,1.33,0,0,1,1.38,1.28v0Z" fill="#263238"/><path d="M48.57,80.56c-.18.18-1.21-.65-2.72-.7s-2.63.65-2.79.46.11-.41.61-.74a3.94,3.94,0,0,1,2.24-.6,3.83,3.83,0,0,1,2.16.79C48.51,80.1,48.66,80.46,48.57,80.56Z" fill="#263238"/><path d="M53.52,92.32A10.12,10.12,0,0,1,56,92c.38,0,.75-.08.83-.34a2,2,0,0,0-.22-1.15c-.32-1-.66-2-1-3-1.41-4.23-2.42-7.7-2.25-7.76s1.46,3.33,2.87,7.56c.34,1,.67,2,1,3a2.28,2.28,0,0,1,.15,1.52,1,1,0,0,1-.66.54,2.39,2.39,0,0,1-.66.06A9.55,9.55,0,0,1,53.52,92.32Z" fill="#263238"/><path d="M49,93.19c.24,0,.18,1.63,1.53,2.84s3.1,1.1,3.11,1.33-.4.3-1.14.29a4,4,0,0,1-2.59-1,3.56,3.56,0,0,1-1.19-2.38A1.81,1.81,0,0,1,49,93.19Z" fill="#263238"/><path d="M49.26,75.37c-.16.4-1.66.15-3.43.29s-3.22.57-3.44.2c-.1-.18.16-.56.75-.93a5.83,5.83,0,0,1,5.24-.41C49,74.84,49.33,75.18,49.26,75.37Z" fill="#263238"/><path d="M62.91,75.48c-.28.33-1.3-.06-2.55-.13s-2.34.14-2.54-.25c-.1-.17.08-.51.56-.81a3.55,3.55,0,0,1,2.09-.48,3.62,3.62,0,0,1,2,.76C62.9,75,63,75.32,62.91,75.48Z" fill="#263238"/><path d="M32.35,85.47c-.16-.08-6.65-2.26-6.7,4.45s6.69,5.37,6.71,5.18S32.35,85.47,32.35,85.47Z" fill="#ffbe9d"/><path d="M30.33,92.56a1.41,1.41,0,0,1-.32.17,1.1,1.1,0,0,1-.87,0,2.85,2.85,0,0,1-1.32-2.63,3.87,3.87,0,0,1,.34-1.67,1.39,1.39,0,0,1,.88-.89.62.62,0,0,1,.69.33c.09.18,0,.32.08.33s.15-.11.09-.39a.7.7,0,0,0-.26-.42,1,1,0,0,0-.64-.18,1.65,1.65,0,0,0-1.23,1,4,4,0,0,0-.42,1.89A3,3,0,0,0,29,93a1.3,1.3,0,0,0,1.07-.17C30.31,92.7,30.35,92.56,30.33,92.56Z" fill="#eb996e"/><path d="M61.23,65.43c1.09-.6-2.17-4.11-4.84-5.32-4-1.82-10.19-2.94-13.91-1.88C38,59.51,34.3,61.74,32,65.82a26.38,26.38,0,0,0-2.9,13.47,8,8,0,0,0,1,4.09c.94,1.48,2.74,2.41,2.66,4.46a2.79,2.79,0,0,0,.7,2c1.23,1.31,2.73.08,3.42-1.15,1.47-2.63,1.63-5.77,1.75-8.78a19.79,19.79,0,0,0-.43-6.37c-.33-1.12-.86-2.17-1.13-3.31a3.37,3.37,0,0,1,1-3.9A7,7,0,0,1,45,65c3.78,1.33,10.23,3.31,11.91,2a10.21,10.21,0,0,0,3-3Z" fill="#263238"/><path d="M42.27,51.3c-.47,0-11.94,2.24-15.08,10.63s-2.38,11-2.38,11a5.56,5.56,0,0,0-1.22,1c-.49.54.11,3.23,1.6,3,11.29-4.55,24.47-4.6,39.12-3.66l11.23.24c3.13.47,4.27-.33,3-1.16-1-.64-9.8-4.52-9.8-4.52L67,66.47,62.6,59.89s.6-.88-.51-1.66S51.6,50.32,42.27,51.3Z" fill="#6b8085"/><path d="M67,66.47h-.44l-1.25-.07c-1.09-.08-2.66-.12-4.61-.14a89,89,0,0,0-15.11,1.3A134.72,134.72,0,0,0,30.79,71.1c-1.87.54-3.37,1-4.41,1.34l-1.2.36-.43.12.41-.15,1.19-.4c1-.34,2.54-.84,4.4-1.4a128,128,0,0,1,14.79-3.61A83.78,83.78,0,0,1,60.7,66.1C64.6,66.17,67,66.47,67,66.47Z" fill="#263238"/><g opacity="0.3"><path d="M31.71,56S44,54.38,49.45,57.21l-.63-.34L54,59.32a3.21,3.21,0,0,0,2.74.42A24.25,24.25,0,0,0,49,55.25C43.84,53.34,35.71,52.32,31.71,56Z"/></g><path d="M31.53,56a8.57,8.57,0,0,1,1.12-.68A15.66,15.66,0,0,1,36,54a18.13,18.13,0,0,1,5.28-.57,15.39,15.39,0,0,1,6.33,1.46,28.15,28.15,0,0,1,2.92,1.7c.9.6,1.8,1.14,2.61,1.74A17.13,17.13,0,0,0,55.49,60a5.27,5.27,0,0,0,2.36.55c3,.15,4.88-.42,4.76-.61a.56.56,0,0,1-.25.23,4.25,4.25,0,0,1-.94.28,16.51,16.51,0,0,1-3.58.24,5.37,5.37,0,0,1-2.45-.54A17,17,0,0,1,53,58.5c-.8-.59-1.71-1.13-2.61-1.73a28.53,28.53,0,0,0-2.89-1.67,15.15,15.15,0,0,0-6.25-1.46,19,19,0,0,0-5.25.53,16.75,16.75,0,0,0-3.34,1.23c-.38.19-.66.35-.85.46Z" fill="#263238"/><g opacity="0.3"><path d="M26,65.43a26.63,26.63,0,0,0,6.09-.86c2.34-.43,4.66-.75,7-1.29,1.76-.41,3.84-.77,5-2a2.56,2.56,0,0,1-.86,2.36,12,12,0,0,1-3.78,1.52,64.35,64.35,0,0,1-14,2.22,13.79,13.79,0,0,1,.56-2"/></g><path d="M27.58,61c-1.41.56-2.28.94-2.36,2.12-.07,1,.09,2.21,1.06,2.41a2.72,2.72,0,0,0,.9,0L42.46,63a2.28,2.28,0,0,0,1.42-.6,1.55,1.55,0,0,0-.45-2.1,4.23,4.23,0,0,0-2.31-.6A51,51,0,0,0,27.58,61" fill="#6b8085"/><path d="M43.64,62.56a1.43,1.43,0,0,0,.43-.65A1.91,1.91,0,0,0,43.51,60a4.81,4.81,0,0,0-3-.78c-1.22,0-2.56.06-4,.15a41.92,41.92,0,0,0-7.13,1c-.89.21-1.61.44-2.1.59l-.57.18-.2.06a.34.34,0,0,0,.19-.09l.56-.22c.69-.25,1.39-.47,2.09-.65A37.72,37.72,0,0,1,36.5,59.1c1.41-.09,2.76-.12,4-.13a4.86,4.86,0,0,1,3.12.85,2,2,0,0,1,.54,2.06,1.25,1.25,0,0,1-.33.51Z" fill="#263238"/><polygon points="63.96 61.95 54.42 61.43 55.13 64.15 65.53 64.28 63.96 61.95" fill="#fff"/><path d="M49.23,69.94s4.27-.51,9.55-1,9.58-.9,9.58-.85-4.27.51-9.56,1S49.23,70,49.23,69.94Z" fill="#263238"/><rect x="7.65" y="204.88" width="73.47" height="12.27" fill="#455a64"/><path d="M9.9,210.81h34v34.48A6.91,6.91,0,0,1,37,252.21H16.82a6.92,6.92,0,0,1-6.92-6.92h0Z" fill="#455a64"/><path d="M43.92,222a15,15,0,0,1-.14-2.13,25.05,25.05,0,0,0-.75-5.71,4,4,0,0,0-.88-1.58,9.19,9.19,0,0,0-5.86-2.6c-3.2-.24-6.79-.13-10.53-.1s-7.35-.3-10.48.39a6.9,6.9,0,0,0-3.9,2,6.71,6.71,0,0,0-1.24,3.63c-.23,2.43-.18,4.42-.22,5.79v1.58a5,5,0,0,1,0,.55,1.66,1.66,0,0,1-.06-.55c0-.42,0-.94,0-1.58,0-1.37-.12-3.35.06-5.82A7.17,7.17,0,0,1,11.14,212a7.27,7.27,0,0,1,4.14-2.17,22.63,22.63,0,0,1,5.12-.44h5.46c3.75,0,7.3-.13,10.58.14A10.7,10.7,0,0,1,40.87,211a9.84,9.84,0,0,1,1.66,1.34,4.21,4.21,0,0,1,1,1.75,22.77,22.77,0,0,1,.6,5.81v1.58A4.87,4.87,0,0,1,43.92,222Z" fill="#263238"/><path d="M43.67,225.65c0,.15-7.48.26-16.71.26s-16.71-.11-16.71-.26,7.48-.26,16.71-.26S43.67,225.56,43.67,225.65Z" fill="#263238"/><path d="M19.64,252.56c-.15,0-.26-6.05-.26-13.51s.11-13.52.26-13.52.26,6,.26,13.52S19.78,252.56,19.64,252.56Z" fill="#263238"/><path d="M35,252.47c-.14,0-.26-6-.26-13.38s.12-13.39.26-13.39.26,6,.26,13.39S35.12,252.47,35,252.47Z" fill="#263238"/><path d="M81.12,204.88l4.24,5.93s3.79,35.34,2.1,37-7.37,1.62-7.37,1.62L78.54,207.1Z" fill="#455a64"/><path d="M67.81,216.66a39.05,39.05,0,0,1-.16-11.92,54.63,54.63,0,0,1,.14,6A53.15,53.15,0,0,1,67.81,216.66Z" fill="#263238"/><path d="M81.2,205.1a7.72,7.72,0,0,1,.45,2c.2,1.24.4,3,.51,4.89a10.46,10.46,0,0,1-.11,2.74,3.43,3.43,0,0,1-1.15,2,2.36,2.36,0,0,1-1.43.58c-.38,0-.56-.09-.56-.11a2.89,2.89,0,0,0,1.74-.75,3.11,3.11,0,0,0,.93-1.8,11.56,11.56,0,0,0,.06-2.63C81.44,208.17,81,205.1,81.2,205.1Z" fill="#263238"/></g></g></g></svg>