<svg xmlns="http://www.w3.org/2000/svg" xmlns:xlink="http://www.w3.org/1999/xlink" viewBox="0 0 236.43 273.2"><defs><clipPath id="clip-path" transform="translate(30.47 26.16)"><path d="M67.49,33.76c47.35-6.64,55,28.81,57.4,53.11,1.47,14.64.86,28.86,2.72,43.47q3.26,25.66,8.24,51.06c.71,3.6,1.44,7.36.47,10.9s-4.21,6.75-7.86,6.35c-4-.43-6.69-4.84-10.68-5.58-7.57-1.41-10.88,10-18,13-7.63,3.23-15.81-4.42-24.07-3.77-7.76.6-14.17,8.46-21.85,7.18-8.45-1.4-12-12.78-20.24-15.05-3.88-1.06-8.36.08-11.82-2-4.75-2.86-4.58-9.69-3.83-15.18,1.56-11.3,6.15-22.92,6-34.15-.16-12.19-3-24.32-6.49-35.93C4.67,65,31.54,38.8,67.49,33.76Z" fill="none"/></clipPath><clipPath id="clip-path-2" transform="translate(30.47 26.16)"><path d="M91.28,77.5c-5,10.26-21.3,12.17-24.63,5.41s-6.71,18.92,14.86,16.18C101.42,96.56,93.7,72.48,91.28,77.5Z" fill="#400651"/></clipPath><clipPath id="clip-path-3" transform="translate(30.47 26.16)"><path d="M160.26,116.86l-11-71.47,12.26-3.63,3.66,74.6a2.48,2.48,0,0,1-2.89,2.57h0A2.47,2.47,0,0,1,160.26,116.86Z" fill="none"/></clipPath><clipPath id="clip-path-4" transform="translate(30.47 26.16)"><circle cx="151.58" cy="31.39" r="31.39" transform="translate(4.28 78.97) rotate(-29.6)" fill="none"/></clipPath></defs><g style="isolation:isolate"><g id="Layer_2" data-name="Layer 2"><g id="OBJECTS"><path d="M122.21,78.53c3.66,23.75,22.42,14.9,32.43.6s35.49,9.14,8.89,32.88-54.34-1.6-54.11-11.79" transform="translate(30.47 26.16)" fill="#e8e8f7"/><path d="M67.49,33.76c47.35-6.64,55,28.81,57.4,53.11,1.47,14.64.86,28.86,2.72,43.47q3.26,25.66,8.24,51.06c.71,3.6,1.44,7.36.47,10.9s-4.21,6.75-7.86,6.35c-4-.43-6.69-4.84-10.68-5.58-7.57-1.41-10.88,10-18,13-7.63,3.23-15.81-4.42-24.07-3.77-7.76.6-14.17,8.46-21.85,7.18-8.45-1.4-12-12.78-20.24-15.05-3.88-1.06-8.36.08-11.82-2-4.75-2.86-4.58-9.69-3.83-15.18,1.56-11.3,6.15-22.92,6-34.15-.16-12.19-3-24.32-6.49-35.93C4.67,65,31.54,38.8,67.49,33.76Z" transform="translate(30.47 26.16)" fill="#fff"/><g clip-path="url(#clip-path)"><path d="M34.09,114.34c4.06,9.85,9.62,19.36,10.77,30,.82,7.51-.64,15.31,1.54,22.55s10.39,13.62,17.05,10c2.56-1.37,4.33-3.92,6.91-5.25,5.85-3,12.56,1.36,18.15,4.82s14.15,5.56,17.71,0c1.37-2.12,1.52-4.88,3-6.89,3.32-4.38,10.06-2.49,15.55-2.2a22.18,22.18,0,0,0,20.61-12.21,64.93,64.93,0,0,1,18.46,30c1.18,4.2,1.92,8.77.46,12.88-1.38,3.92-4.56,6.89-7.72,9.58A180.76,180.76,0,0,1,104,238.91c-10.36,4-21.17,7-32.23,7.88-36.9,3-73.59-19.85-90.51-52.78-13.86-26.95-15-59.28-5.95-87.93C-20.22,92-13,73.1-.24,64.33c12.62-8.67,26.36-13.42,35.76-27.27C20.7,58.91,24.58,91.26,34.09,114.34Z" transform="translate(30.47 26.16)" fill="#e8e8f7"/></g><path d="M87.63,68.27a5,5,0,1,0,4.25-5.64A5,5,0,0,0,87.63,68.27Z" transform="translate(30.47 26.16)" fill="#400651"/><path d="M83.24,54.12c1.73-3.21,7.18-6.63,9.2-4.31S82,56.43,83.24,54.12Z" transform="translate(30.47 26.16)" fill="#400651"/><path d="M67.92,71a5,5,0,1,1-5.64-4.25A5,5,0,0,1,67.92,71Z" transform="translate(30.47 26.16)" fill="#400651"/><path d="M68.24,56.22c-2.54-2.61-8.72-4.4-10-1.61S70.08,58.1,68.24,56.22Z" transform="translate(30.47 26.16)" fill="#400651"/><path d="M91.28,77.5c-5,10.26-21.3,12.17-24.63,5.41s-6.71,18.92,14.86,16.18C101.42,96.56,93.7,72.48,91.28,77.5Z" transform="translate(30.47 26.16)" fill="#400651"/><path d="M91.28,77.5c-5,10.26-21.3,12.17-24.63,5.41s-6.71,18.92,14.86,16.18C101.42,96.56,93.7,72.48,91.28,77.5Z" transform="translate(30.47 26.16)" fill="#400651"/><g clip-path="url(#clip-path-2)"><path d="M93.7,94.8c-9.66-7.47-26.42-.71-26.84,7.58s25.91,3.42,30.4-1.32S93.7,94.8,93.7,94.8Z" transform="translate(30.47 26.16)" fill="#f22977"/></g><path d="M100.46,77.94a4.83,4.83,0,1,0,4.11-5.45A4.82,4.82,0,0,0,100.46,77.94Z" transform="translate(30.47 26.16)" fill="#fb80fd" opacity="0.45"/><circle cx="53.56" cy="84.51" r="4.83" transform="translate(-2.64 60.68) rotate(-27.66)" fill="#fb80fd" opacity="0.45"/><path d="M89.47,101.52c-4.87,4.34-10.88,4-14.13,3.47s2.06,8.34,8.26,6.78S91.37,99.83,89.47,101.52Z" transform="translate(30.47 26.16)" fill="#e8e8f7"/><path d="M41.19,112.94c-22.77,7.68-10.84,24.64,5,32S43.26,181.52,15.3,159.4,5.24,93.67,30.81,96.46" transform="translate(30.47 26.16)" fill="#fff"/><path d="M41.19,112.94c-3.61,1.42-7.22,3.22-9.72,6.11a11.2,11.2,0,0,0-1.54,2.35,9.25,9.25,0,0,0-.74,2.66,10.29,10.29,0,0,0,.91,5.4,24.1,24.1,0,0,0,7.08,8.71,45,45,0,0,0,9.76,6,11,11,0,0,1,4.81,4.26,10.52,10.52,0,0,1,1.36,6.36,15.37,15.37,0,0,1-6.49,10.6,19.62,19.62,0,0,1-11.85,3.53,28.68,28.68,0,0,1-11.84-3,45.51,45.51,0,0,1-10-6.72,38.12,38.12,0,0,1-7.77-9.25A37.64,37.64,0,0,1,.24,126.65,38.93,38.93,0,0,1,9.66,105a28.82,28.82,0,0,1,9.58-7,21.82,21.82,0,0,1,11.57-1.56A22.66,22.66,0,0,0,19.55,98.7a27.93,27.93,0,0,0-8.85,7.2A36.68,36.68,0,0,0,5,115.78a38.83,38.83,0,0,0-2.56,11.08,35.93,35.93,0,0,0,5,21.69,36.34,36.34,0,0,0,7.29,8.55,43.33,43.33,0,0,0,9.42,6.25,25.87,25.87,0,0,0,10.66,2.79,17.2,17.2,0,0,0,10.25-2.95,12.81,12.81,0,0,0,5.58-8.68,8.17,8.17,0,0,0-.94-4.92A8.7,8.7,0,0,0,46,146.12a45.39,45.39,0,0,1-10-6.54A25.37,25.37,0,0,1,28.83,130a11.5,11.5,0,0,1-.69-6.06,9.9,9.9,0,0,1,1-2.91,11.75,11.75,0,0,1,1.8-2.44,18,18,0,0,1,4.79-3.49A35.5,35.5,0,0,1,41.19,112.94Z" transform="translate(30.47 26.16)" fill="#d2cff0"/><path d="M160.26,116.86l-11-71.47,12.26-3.63,3.66,74.6a2.48,2.48,0,0,1-2.89,2.57h0A2.47,2.47,0,0,1,160.26,116.86Z" transform="translate(30.47 26.16)" fill="#b68aec"/><g clip-path="url(#clip-path-3)"><path d="M174,57.64c-2,7.11-13,7.31-16.72,13.69-1.46,2.51-1.53,5.57-1.54,8.48,0,13.08.44,26.24,3.2,39,.15.69.7,1.57,1.32,1.23-4.33-2.94-7.17-7.6-9.4-12.32A79.75,79.75,0,0,1,148,47.44c.66-1.83,1.46-3.74,3-4.89a9.2,9.2,0,0,1,4.62-1.43,22.71,22.71,0,0,1,12.12,1.76,13.54,13.54,0,0,1,7.59,9.25" transform="translate(30.47 26.16)" fill="#b68aec" opacity="0.37" style="mix-blend-mode:multiply"/></g><circle cx="151.58" cy="31.39" r="31.39" transform="translate(34.75 105.13) rotate(-29.6)" fill="#e03461"/><g clip-path="url(#clip-path-4)"><path d="M151.58,31.39s-14-12.07-15.36-39.61,16.19-15.16,16.19-15.16S147.26,17.89,151.58,31.39Z" transform="translate(30.47 26.16)" fill="#ff6e88"/><path d="M151.58,31.39s-17.43,6.06-42-6.5-5-21.6-5-21.6S137.73,28.38,151.58,31.39Z" transform="translate(30.47 26.16)" fill="#ff6e88"/><path d="M151.58,31.39S148.12,49.52,125,64.5s-21.22-6.44-21.22-6.44S142.05,41.88,151.58,31.39Z" transform="translate(30.47 26.16)" fill="#ff6e88"/><path d="M151.58,31.39s14,12.07,15.36,39.61-16.18,15.16-16.18,15.16S155.91,44.89,151.58,31.39Z" transform="translate(30.47 26.16)" fill="#ff6e88"/><path d="M151.58,31.39s17.44-6.06,42,6.5,5,21.6,5,21.6S165.44,34.4,151.58,31.39Z" transform="translate(30.47 26.16)" fill="#ff6e88"/><path d="M151.58,31.39s3.47-18.13,26.63-33.11,21.22,6.44,21.22,6.44S161.11,20.9,151.58,31.39Z" transform="translate(30.47 26.16)" fill="#ff6e88"/><path d="M157.55-3.21C121.22,23.44,129.41,51.25,153.24,54s38.3-28.24,38.3-28.24L183.19,70l-63.66-2.4L102.68,24.27,115.19-2.1l32.23-11.27Z" transform="translate(30.47 26.16)" fill="#ff6e88" opacity="0.37" style="mix-blend-mode:multiply"/></g><path d="M164.94,77c-22.47,9-11.64,36.84,5.13,25.64" transform="translate(30.47 26.16)" fill="#e8e8f7"/><path d="M164.94,77a35.34,35.34,0,0,0-4.84,3.38,21.51,21.51,0,0,0-3.79,4.21A15.08,15.08,0,0,0,153.74,95a10.76,10.76,0,0,0,5.49,8.53,9.23,9.23,0,0,0,5.28.83,18.4,18.4,0,0,0,5.56-1.68,14,14,0,0,1-5.29,3,10,10,0,0,1-6.41-.16,11.09,11.09,0,0,1-5.16-4.08,14.51,14.51,0,0,1-2.28-6.12,15.65,15.65,0,0,1,3.62-12,18.78,18.78,0,0,1,4.75-4A21.66,21.66,0,0,1,164.94,77Z" transform="translate(30.47 26.16)" fill="#b9b8d8"/></g></g></g></svg>