<svg xmlns="http://www.w3.org/2000/svg" viewBox="0 0 500 500"><g id="freepik--Character--inject-8"><polygon points="294.1 403.86 304.06 402.41 301.55 379.11 291.58 380.56 294.1 403.86" style="fill:#e8bfbf"></polygon><path d="M311.72,402.76a3.89,3.89,0,0,0,2.32-1,1.34,1.34,0,0,0,.23-1.22.78.78,0,0,0-.5-.56c-1.33-.48-5,2.21-5.38,2.51a.25.25,0,0,0-.09.27.23.23,0,0,0,.22.15A18,18,0,0,0,311.72,402.76Zm1.4-2.34a1,1,0,0,1,.45,0,.31.31,0,0,1,.21.23.9.9,0,0,1-.15.81c-.51.63-2.14,1-4.4,1a13,13,0,0,1,3.92-2Z" style="fill:#37474F"></path><path d="M308.58,402.92l.08,0c1.11-.73,3.1-3.27,2.72-4.36a.88.88,0,0,0-1-.53,1.75,1.75,0,0,0-1.26.59c-1.07,1.24-.86,4-.86,4.08a.28.28,0,0,0,.1.21A.27.27,0,0,0,308.58,402.92Zm1.67-4.42.14-.07c.44,0,.49.15.5.2.24.67-1.09,2.62-2.19,3.52a5.43,5.43,0,0,1,.77-3.29,1.22,1.22,0,0,1,.8-.37Z" style="fill:#37474F"></path><path d="M303,398.28l-8.83,2.11a.79.79,0,0,0-.63.85l.29,12.79a1.63,1.63,0,0,0,1.84,1.39,1.08,1.08,0,0,0,.19,0c3.82-1,5.63-1.6,10.49-2.73,3-.68,12.43-1.4,16.3-3.12s2.36-5.64.6-5.27c-5.68,1.22-13-1.21-17.11-4.91C305.62,399.08,303.65,398.13,303,398.28Z" style="fill:#263238"></path><polygon points="301.55 379.11 302.84 391.12 292.88 392.58 291.58 380.57 301.55 379.11" style="opacity:0.2"></polygon><path d="M306.87,386.18l-18.43,3.44s-8.95-12.78-10.64-21.85c-1.76-9.45.12-41.61,0-42-5.21-17.6-19.38-63.2-26.21-80-3.79-9.3-6.45-15.56-6.45-15.56l1.91-.43,15.05-6.16,11,2.06s33.31,67.37,36.8,92.71C312.47,337.29,306.87,386.18,306.87,386.18Z" style="fill:#37474F"></path><path d="M306.87,386.18l-18.43,3.44s-8.95-12.78-10.64-21.85c-1.76-9.45.12-41.61,0-42-5.21-17.6-19.38-63.2-26.21-80-3.79-9.3-6.45-15.56-6.45-15.56l1.91-.43,15.05-6.16,11,2.06s33.31,67.37,36.8,92.71C312.47,337.29,306.87,386.18,306.87,386.18Z" style="fill:#fff;opacity:0.30000000000000004"></path><path d="M273.46,310.49c-5.21-17.6-15.73-44.29-22.57-61.07l-4.53-16-.87-3.08,1.59,2.91,17.85,39.54C272.81,288,273.58,310.92,273.46,310.49Z" style="opacity:0.2;isolation:isolate"></path><polygon points="192.57 398.38 201.45 402.12 210.92 381.79 202.05 378.05 192.57 398.38" style="fill:#e8bfbf"></polygon><path d="M207.23,406.37a3.64,3.64,0,0,0,2.36.53,1.26,1.26,0,0,0,.87-.81.72.72,0,0,0-.07-.71c-.76-1.12-5.09-1.11-5.57-1.11a.27.27,0,0,0-.22.16.24.24,0,0,0,.08.25A16.57,16.57,0,0,0,207.23,406.37Zm2.4-1a.85.85,0,0,1,.35.27.3.3,0,0,1,0,.29.88.88,0,0,1-.57.54c-.76.2-2.21-.44-4-1.72a12.45,12.45,0,0,1,4.2.63Z" style="fill:#37474F"></path><path d="M204.72,404.72h.08c1.27.07,4.24-.77,4.57-1.82a.85.85,0,0,0-.47-1,1.62,1.62,0,0,0-1.3-.25c-1.54.34-2.91,2.57-3,2.66a.25.25,0,0,0,0,.22A.23.23,0,0,0,204.72,404.72Zm3.79-2.47.14,0c.35.23.29.39.27.44-.19.64-2.31,1.4-3.67,1.48a5.17,5.17,0,0,1,2.44-2.11,1.19,1.19,0,0,1,.84.17Z" style="fill:#37474F"></path><path d="M203.06,398l-8-3.36a.76.76,0,0,0-1,.3l-7,10a1.56,1.56,0,0,0,.63,2.12l.17.08c3.49,1.43,5.25,1.95,9.64,3.83,2.69,1.16,10.39,5.95,14.35,6.8s5-3,3.44-3.73c-5.07-2.27-9.33-8.27-10.44-13.46C204.6,400.08,203.62,398.23,203.06,398Z" style="fill:#263238"></path><polygon points="211.31 382.03 206.18 392.38 197.39 388.44 202.51 378.08 211.31 382.03" style="opacity:0.2"></polygon><path d="M213.16,393.31l-17.68-9.42s-3.39-12.59,0-20.62c6.52-15.45,23.5-38.17,23.61-38.6,4.53-17.78,12.47-66.49,15.19-84.4,1.5-9.93,2.39-12.07,2.39-12.07l1.87.61,27,.05s5.1,41-14.46,104.4c-4.86,15.78-13,28.9-26.43,46.65A170.43,170.43,0,0,1,213.16,393.31Z" style="fill:#37474F"></path><path d="M213.16,393.31l-17.68-9.42s-3.39-12.59,0-20.62c6.52-15.45,23.5-38.17,23.61-38.6,4.53-17.78,12.47-66.49,15.19-84.4,1.5-9.93,2.39-12.07,2.39-12.07l1.87.61,27,.05s5.1,41-14.46,104.4c-4.86,15.78-13,28.9-26.43,46.65A170.43,170.43,0,0,1,213.16,393.31Z" style="fill:#fff;opacity:0.30000000000000004"></path><path d="M289.56,195.39a16.35,16.35,0,0,1,3.95-8.76c.55-.58,2.66-1.46,3.86-2.24,5.87-3.85,17.63-8.66,17.63-8.66l3.63,3.16s-7.16,6.92-11.42,10.24c-.84.66-1.81,1.45-2.83,2.29-1.86,1.54-10.58,7.29-12.24,8.74Z" style="fill:#e8bfbf"></path><path d="M325.34,173.94l-6.71,5-3.76-2.77a38.56,38.56,0,0,1,3.11-3.48,3.56,3.56,0,0,0,1.08-2.54,8.55,8.55,0,0,1,1-4.45.56.56,0,0,1,0-.08,3.11,3.11,0,0,1,5.54,1l1,3.58A3.55,3.55,0,0,1,325.34,173.94Z" style="fill:#e8bfbf"></path><path d="M291.7,196.73l-1.77,1.62c-.55-.44-1.42-1.15-2.52-2.07-8.62-7.15-30.23-24.51-21.62-29.46,7.39-4.25,15.23,8.74,19.14,12.65a33.18,33.18,0,0,1,4.74,6.47C291.51,189.26,292.87,193.27,291.7,196.73Z" style="fill:#263238"></path><path d="M289.66,184.39a28.85,28.85,0,0,0-7.63,8.32,17.31,17.31,0,0,0,9.48,10.74,38,38,0,0,0,3.13-18.09C293.08,185,291.22,184.73,289.66,184.39Z" style="fill:#263238"></path><path d="M242.21,165.81c-3.09,1-6.62.19-8.6,2.76s-2.57,5.94-2.57,9.18a59.85,59.85,0,0,0,2.06,13.33q1.86,8,3.73,15.95c.85,3.64-.05,20.55.86,20.83,0,0,28.27-.55,35.36-1.55,0,0,.61-17.38,1.18-23.3.13-1.31,2.12-6.89,2.35-8.29,1.11-6.6-1.06-11.25-3.34-17.55,0,0-5-10.07-7.45-10.35C261.44,166.33,250.8,163,242.21,165.81Z" style="fill:#263238"></path><path d="M241,174.14c-.1-.58-5.12-10.72-9.93-3.63-6.69,9.86-7.14,22.24-7.14,22.24s-4.11,12-1.25,14.66,6,4.32,8,2.83a12.9,12.9,0,0,0,3.3-4.47S242.78,184.46,241,174.14Z" style="fill:#263238"></path><path d="M240.69,162.05a4.3,4.3,0,0,0,.5,6.78,5.68,5.68,0,0,0,7.65,6.8c-.84,1.52.11,3.53,1.58,4.47a12.11,12.11,0,0,0,5,1.34,8.33,8.33,0,0,1,4.8,1.81l5.34-7.69a6.63,6.63,0,0,0,1.47-3.29c.05-1.21-.87-2.55-2.08-2.46a3.55,3.55,0,0,0-4.79-5.21,2.72,2.72,0,0,0-1.22-2.73,6.38,6.38,0,0,0-3-.91Z" style="fill:#263238"></path><path d="M243.9,149c1.39,5.1,3.08,14.51-.29,18.23a48.89,48.89,0,0,1,16.33,11.49,7.87,7.87,0,0,0,1.86-9,7.7,7.7,0,0,0-4.28-4.23c-3.72-1.58-3.75-5.23-3.13-8.74Z" style="fill:#e8bfbf"></path><path d="M246,157.69l3.51.95a11.26,11.26,0,0,0,4.62.27h0a7.34,7.34,0,0,0,.33,3.21,6.5,6.5,0,0,1-6.94-1.47A11.36,11.36,0,0,1,246,157.69Z" style="opacity:0.2;isolation:isolate"></path><path d="M237.09,144.65c3.71,7.84,5.12,11.24,10.84,13.74,8.62,3.77,17.42-2.53,16.12-11.32-1.18-7.91-7.06-19.42-16.21-19.46a11.83,11.83,0,0,0-10.75,17Z" style="fill:#e8bfbf"></path><path d="M241.17,129.67c-2.71-1.26-6.07-.23-8.33,1.75s-3.69,4.84-5,7.59a20.11,20.11,0,0,0-1.8,4.63,6.72,6.72,0,0,0,.62,4.83,5.13,5.13,0,0,0,4,2.41,2.74,2.74,0,0,1,2.33,1.61,5.4,5.4,0,0,1,0,2.56,5.46,5.46,0,0,0,0,2.48,3.72,3.72,0,0,0,3.23,2.26,11.1,11.1,0,0,0,4.09-.66,2.37,2.37,0,0,1,2.35.48,2,2,0,0,1,.4.51A1.09,1.09,0,0,0,245,160c1.21-2.88-.55-7.47-3.17-11-1.39-1.86-1.32-1.39-1.86-3.65-.46-1.88.23-3.84,1.07-5.58,1.13-2.33,2.57-4.59,2.12-7.37A3.62,3.62,0,0,0,241.17,129.67Z" style="fill:#263238"></path><path d="M237.32,152.68a6.79,6.79,0,0,0,4.74,2.13c2.39.06,3-2.22,1.84-4.17-1-1.75-3.54-3.88-5.7-3S235.82,151,237.32,152.68Z" style="fill:#e8bfbf"></path><path d="M252,143.26c.28.68.83,1.05,1.26.87s.54-.83.3-1.5-.82-1-1.26-.87S251.77,142.6,252,143.26Z" style="fill:#263238"></path><path d="M259.35,140.1c.27.69.82,1.05,1.25.88s.54-.83.3-1.5-.82-1-1.25-.87S259.09,139.45,259.35,140.1Z" style="fill:#263238"></path><path d="M259.46,138.73l1.39-1.09S260.55,139.19,259.46,138.73Z" style="fill:#263238"></path><path d="M257.45,141.57c1.7,1.68,3,2,4.82,3.14a2.16,2.16,0,0,1-1.59,2Z" style="fill:#ed847e"></path><path d="M259.9,149.92a5.94,5.94,0,0,0,.92-.43.2.2,0,0,0,.08-.27h0a.22.22,0,0,0-.28-.08,5.56,5.56,0,0,1-5.08.26.21.21,0,0,0-.28.09.2.2,0,0,0,.08.28A5.87,5.87,0,0,0,259.9,149.92Z" style="fill:#263238"></path><path d="M251.76,137.81a.44.44,0,0,1-.32.4c-1.92.57-2.77,3-2.77,3a.43.43,0,0,1-.82-.27c.07-.1,1-2.89,3.34-3.59a.45.45,0,0,1,.54.3A.32.32,0,0,1,251.76,137.81Z" style="fill:#263238"></path><path d="M260.61,136.63a.44.44,0,0,1-.51,0c-1.56-1.26-4.05-.57-4.06-.56a.43.43,0,0,1-.54-.29.44.44,0,0,1,.29-.54c.12,0,3-.82,4.85.7a.45.45,0,0,1,.07.61A.36.36,0,0,1,260.61,136.63Z" style="fill:#263238"></path><path d="M252.16,141.87l1.39-1.08S253.23,142.34,252.16,141.87Z" style="fill:#263238"></path><path d="M241.77,128.36a7.26,7.26,0,0,0-5.44,3.26c-.8,1.24-1.08,3.12.1,4a3.76,3.76,0,0,0,2,.55c3,.27,6.79-2.08,6.79-2.08-1.17-5,9.26-8.82,14.4-1.12,1.51,2.26,1.1,3.9,3.61,4.95,1.18.49,2.74.35,3.5,1.39,1.25,1.71-1.16,4.61.37,6.08,1.05,1,3.43.62,3.58,2.07.06.68-.38,1.66.27,1.86.36.11.7-.22.93-.52a5.87,5.87,0,0,0,1.34-2.36,2.07,2.07,0,0,0-.95-2.34c-.64-.29-2.33,0-2.22.72a21.92,21.92,0,0,1-.25-4.8c.28-1.34,1.56-2.51,1.17-3.83s-2.08-2-3.53-2.18-3.1-.39-4-1.55-.54-3.16-.86-4.77a6.6,6.6,0,0,0-4-4.46C252.73,120.72,243.76,121.08,241.77,128.36Z" style="fill:#263238"></path><path d="M258.24,155l-20,10.05A14.23,14.23,0,0,0,231.38,183L241,207.6a14.26,14.26,0,0,0,17.22,8.49l21.5-6.2A14.24,14.24,0,0,0,289.05,191L277.9,162.58A14.25,14.25,0,0,0,258.24,155Zm-3.31,42.24a8.67,8.67,0,1,1,4.91-11.23A8.67,8.67,0,0,1,254.93,197.28Z" style="fill:#37474F"></path><path d="M258.24,155l-20,10.05A14.23,14.23,0,0,0,231.38,183L241,207.6a14.26,14.26,0,0,0,17.22,8.49l21.5-6.2A14.24,14.24,0,0,0,289.05,191L277.9,162.58A14.25,14.25,0,0,0,258.24,155Zm-3.31,42.24a8.67,8.67,0,1,1,4.91-11.23A8.67,8.67,0,0,1,254.93,197.28Z" style="fill:#37474F"></path><path d="M289.05,191,277.9,162.58A14.25,14.25,0,0,0,258.24,155L252.43,158l-3.9,2-10.28,5.17A14.23,14.23,0,0,0,231.38,183L241,207.6a14.26,14.26,0,0,0,17.22,8.49l21.51-6.2a14.09,14.09,0,0,0,4.7-2.38,13.61,13.61,0,0,0,2.77-2.8A14.2,14.2,0,0,0,289.05,191Zm-34.12,6.26A8.67,8.67,0,1,1,259.84,186,8.67,8.67,0,0,1,254.93,197.28Z" style="fill:#fff;opacity:0.1"></path><path d="M258.44,156.92l-18.75,9.42a13.35,13.35,0,0,0-6.44,16.8l9.05,23.06a13.37,13.37,0,0,0,16.15,8l20.16-5.82a13.35,13.35,0,0,0,8.73-17.7L276.89,164A13.37,13.37,0,0,0,258.44,156.92Zm-14.75,35.45a8.67,8.67,0,1,1,11.24,4.91A8.66,8.66,0,0,1,243.69,192.37Z" style="fill:#37474F"></path><path d="M258.44,156.92l-18.75,9.42a13.35,13.35,0,0,0-6.44,16.8l9.05,23.06a13.37,13.37,0,0,0,16.15,8l20.16-5.82a13.35,13.35,0,0,0,8.73-17.7L276.89,164A13.37,13.37,0,0,0,258.44,156.92Zm-14.75,35.45a8.67,8.67,0,1,1,11.24,4.91A8.66,8.66,0,0,1,243.69,192.37Z" style="fill:#37474F;opacity:0.1"></path><path d="M351.62,148l-.57,1-.32.58-.91,1.65.38,4.23a1.19,1.19,0,0,1-.06.53,1.35,1.35,0,0,1-.77.82l-7.9,3.09a1.29,1.29,0,0,1-1.12-.08,1.11,1.11,0,0,1-.3-.22l-4.47-4.55h0l-6.36,2.49.92,2.35-6.35,2.48,1.51,3.87-4.67,1.83a1.42,1.42,0,0,1-1.16-.06,1.23,1.23,0,0,1-.33-.23l-2.69-2.53-6.36,2.48,1.52,3.87-6.68,2.62,1.52,3.88a1.23,1.23,0,0,1-.7,1.6l-18.29,7.16-7.94-20.25,66.18-25.91,1,.53,3.35,1.73A3.65,3.65,0,0,1,351.62,148Z" style="fill:#37474F"></path><g style="opacity:0.1"><path d="M351.62,148l-.57,1-.32.58-.91,1.65.38,4.23a1.19,1.19,0,0,1-.06.53,1.35,1.35,0,0,1-.77.82l-7.9,3.09a1.29,1.29,0,0,1-1.12-.08,1.11,1.11,0,0,1-.3-.22l-4.47-4.55h0l-6.36,2.49.92,2.35-6.35,2.48,1.51,3.87-4.67,1.83a1.42,1.42,0,0,1-1.16-.06,1.23,1.23,0,0,1-.33-.23l-2.69-2.53-6.36,2.48,1.52,3.87-6.68,2.62,1.52,3.88a1.23,1.23,0,0,1-.7,1.6l-18.29,7.16-7.94-20.25,66.18-25.91,1,.53,3.35,1.73A3.65,3.65,0,0,1,351.62,148Z" style="fill:#fff"></path></g><path d="M351.36,145.72l-70.76,27.7-2.06-5.2L346,141.81l3.36,1.72C350.64,144.19,351.37,144.8,351.36,145.72Z" style="fill:#37474F"></path><path d="M351.36,145.72l-70.76,27.7-2.06-5.2L346,141.81l3.36,1.72C350.64,144.19,351.37,144.8,351.36,145.72Z" style="opacity:0.1"></path><path d="M350,149.62l-.68,1.54a.19.19,0,0,0,0,.08l.39,4.18a1.33,1.33,0,0,1,0,.45.16.16,0,0,1-.1.11l-8.59,3.38a.14.14,0,0,1-.14,0,1,1,0,0,1-.23-.19l-4.92-4.94a.15.15,0,0,0-.17,0l-7,2.74a.17.17,0,0,0-.09.21l.83,2.11a.16.16,0,0,1-.09.21l-5.95,2.34a.16.16,0,0,0-.09.21l1.43,3.63a.15.15,0,0,1-.09.21l-4.36,1.72a.14.14,0,0,1-.14,0,1.18,1.18,0,0,1-.25-.19l-3.2-2.94a.16.16,0,0,0-.16,0l-6.93,2.73a.15.15,0,0,0-.09.21l1.46,3.72a.15.15,0,0,1-.09.21l-26.61,10.47a.16.16,0,0,1-.2-.09L281.2,175a.17.17,0,0,1,.09-.21l69.34-27.29a.16.16,0,0,1,.2.22Z" style="fill:#37474F"></path><path d="M350,149.62l-.68,1.54a.19.19,0,0,0,0,.08l.39,4.18a1.33,1.33,0,0,1,0,.45.16.16,0,0,1-.1.11l-8.59,3.38a.14.14,0,0,1-.14,0,1,1,0,0,1-.23-.19l-4.92-4.94a.15.15,0,0,0-.17,0l-7,2.74a.17.17,0,0,0-.09.21l.83,2.11a.16.16,0,0,1-.09.21l-5.95,2.34a.16.16,0,0,0-.09.21l1.43,3.63a.15.15,0,0,1-.09.21l-4.36,1.72a.14.14,0,0,1-.14,0,1.18,1.18,0,0,1-.25-.19l-3.2-2.94a.16.16,0,0,0-.16,0l-6.93,2.73a.15.15,0,0,0-.09.21l1.46,3.72a.15.15,0,0,1-.09.21l-26.61,10.47a.16.16,0,0,1-.2-.09L281.2,175a.17.17,0,0,1,.09-.21l69.34-27.29a.16.16,0,0,1,.2.22Z" style="opacity:0.1"></path><line x1="310.67" y1="171.27" x2="284.06" y2="181.74" style="fill:#37474F;opacity:0.1"></line><path d="M248.07,179a10.87,10.87,0,1,0,14.1,6.16A10.85,10.85,0,0,0,248.07,179Zm6.86,18.3a8.67,8.67,0,1,1,4.91-11.23A8.67,8.67,0,0,1,254.93,197.28Z" style="fill:#fff;opacity:0.30000000000000004"></path><path d="M287.21,204.7a13.56,13.56,0,0,1-2.76,2.8l-35.93-47.59,0,0s3.17-1.59,3.89-2.07a.37.37,0,0,0,.05.15C254,161.32,282.24,198,287.21,204.7Z" style="fill:#fff;opacity:0.1"></path><path d="M282,209c-.22.1-10.69,3.29-10.69,3.29l-11.67-15.45A10.87,10.87,0,0,0,248.07,179a8.48,8.48,0,0,0-1.39.67L236.36,166s9.07-4.32,10.07-5C246.7,162.93,282,208.6,282,209Z" style="fill:#fff;opacity:0.1"></path><path d="M239.19,133.94a5.95,5.95,0,0,0,2,9.21c.86.4,1.8.59,2.64,1a2.83,2.83,0,0,1,1.72,2.09c.1,1-.67,2-.59,3a3.44,3.44,0,0,0,1.55,2.29,6.29,6.29,0,0,1,2,2,1.71,1.71,0,0,1-.78,2.38,1.27,1.27,0,0,0,0,1.25.82.82,0,0,0,1,.13,5.09,5.09,0,0,0,2.39-4.17,4.42,4.42,0,0,0-2.54-3.95,2.34,2.34,0,0,1,.17-1.82c.45-1.14.91-2.29,1.37-3.43a2,2,0,0,0-.29-1.65,3.26,3.26,0,0,0-1.21-.77l-2.95-1.26c-1.11-.48-4.42-4.9-.5-6.19a3,3,0,0,0-2.62-1.72A3.92,3.92,0,0,0,239.19,133.94Z" style="fill:#263238"></path><path d="M244.54,129.18l-.3,3.49c1-1.6,2.79-4.71,2.73-4.59C246.2,128.5,245.31,128.76,244.54,129.18Z" style="fill:#263238"></path><path d="M245.86,131.09l4.1-3.79a3,3,0,0,0-3.11.72C246.88,127.93,246.24,129.87,245.86,131.09Z" style="fill:#263238"></path><path d="M237.53,225.7c-5.33,6.62-3.56,11.69-10.92,23.41,9.29,6.88,19.47,8,32.12,7,1.5-2.65,2.25-5.41,3.75-8.06,2.14,2.66,3.86,4.89,6,7.56,6.63-1,14.51-2.91,19.75-6.29-4.63-5.31-7.51-11.94-10.47-17.79-1.39-2.75-.81-3.9-4.5-7.5-11.75.54-23.4.82-35.14,1.37C238.44,225.45,237.22,225.68,237.53,225.7Z" style="fill:#263238"></path><path d="M239,224.59l-.73,3.09c-.11.25.18.48.57.45l32.39-1.43a.53.53,0,0,0,.57-.37l.17-3.07c0-.2-.27-.38-.61-.35l-31.81,1.4A.63.63,0,0,0,239,224.59Z" style="fill:#37474F"></path><path d="M239,224.59l-.73,3.09c-.11.25.18.48.57.45l32.39-1.43a.53.53,0,0,0,.57-.37l.17-3.07c0-.2-.27-.38-.61-.35l-31.81,1.4A.63.63,0,0,0,239,224.59Z" style="fill:#37474F"></path><path d="M246.13,228.14l-.94,0c-.18,0-.33-.08-.32-.19l.25-4c0-.12.17-.22.35-.22l.95-.05c.17,0,.32.08.31.2l-.25,4C246.47,228,246.31,228.13,246.13,228.14Z" style="fill:#263238"></path><path d="M269.51,227.13l-.94,0c-.18,0-.33-.08-.32-.19l.25-4c0-.12.17-.23.35-.23l.94,0c.18,0,.32.08.31.19l-.25,4C269.85,227,269.7,227.12,269.51,227.13Z" style="fill:#263238"></path><path d="M250.31,208.72c.06.29,2.57,4.29,4.55,4h0a1.62,1.62,0,0,1,1.5.61c.79,1,1.27,1.62,1.8,2.3a3,3,0,0,0,3.65.86c.37-.17.74-.36,1.11-.56a3,3,0,0,0,1.52-3.39,16.5,16.5,0,0,0-1.69-4.21,2.89,2.89,0,0,0-1-1.16,24.75,24.75,0,0,0-6.47-1.52C253.58,205.72,251.92,208,250.31,208.72Z" style="fill:#e8bfbf"></path><path d="M255.38,205.53s-26.58-8.05-32.32-2.69c-3.37,3.15-1.78,6.13.11,8,1.4,1.43,4.45,1.08,6.45,1l20.94-2.06Z" style="fill:#e8bfbf"></path><path d="M240.1,201.85a4.37,4.37,0,0,0-2.55-3.28,13,13,0,0,0-4.19-1l-10-1.27a12.87,12.87,0,0,0-2.87,7.82,12.14,12.14,0,0,0,2.86,7.52c1.6-3.09,3.71-6.27,6.83-7.81S236.68,201.23,240.1,201.85Z" style="fill:#263238"></path><path d="M233.25,153.3c0-.06,0-.09,0-.1C233.46,153.14,233.43,153.18,233.25,153.3Z" style="fill:#fff;opacity:0.1"></path></g></svg>