<svg xmlns="http://www.w3.org/2000/svg" viewBox="0 0 89.36 129.25"><g id="Layer_2" data-name="Layer 2"><g id="OBJECTS"><path d="M43.61,88.26a25.93,25.93,0,0,1-3.17-.19A24.86,24.86,0,0,1,33.12,86a44.76,44.76,0,0,1-1.54,11c1.12,1.18,6,5.9,12.28,5.9,4.08,0,8-2,11.65-5.93-.33-1.29-1.45-5.89-2.22-10.51A26.88,26.88,0,0,1,43.61,88.26Z" fill="#fdce9f"/><path d="M2.89,33.59c-2,7.09-2,16.44,0,25C5.25,68.74,9.21,74.72,15.3,77.44A58.57,58.57,0,0,0,25.9,81a26.6,26.6,0,0,1-3.54-4.42c-5-7.83-8.37-19.19-8.84-29.84-1.15.1-2.3.16-3.46.16s-2.16,0-3.24-.13A.66.66,0,0,1,6.21,46a.68.68,0,0,1,.72-.61,39.24,39.24,0,0,0,6.94-.08.6.6,0,0,1,.27-.07l.15,0a44.93,44.93,0,0,0,32.49-20.4.65.65,0,0,1,.52-.3.61.61,0,0,1,.56.25A75.55,75.55,0,0,0,61.62,38.05c6.1,4.53,12.6,8.21,18.74,4.45a.67.67,0,0,1,.92.23.66.66,0,0,1-.22.92A11.36,11.36,0,0,1,76,45.33l0,1.08c-.27,14.78-4.56,25.89-13.1,34-.46.44-1,.83-1.44,1.24A82.27,82.27,0,0,0,76,77.53l.24-.1c3.84-1.47,6.16-2.36,7.86-6,1.49-3.19,1.9-6.79,2.3-10.27.07-.64.14-1.28.22-1.91a76.23,76.23,0,0,0,.13-18.65C85.05,27,79,15.78,69.77,9a40.4,40.4,0,0,0-24-7.67,44.89,44.89,0,0,0-14.43,2.4,43,43,0,0,0-12.48,6.6A45.64,45.64,0,0,0,2.89,33.59Z" fill="#f58d78"/><path d="M14.76,78.66a61.31,61.31,0,0,0,13.12,4.08,24.11,24.11,0,0,0,3.92,2.58c-.12,3.55-.49,8.39-1.6,11.57-2.19,5-5.28,5.65-8,5.65a30.28,30.28,0,0,1-3.42-.26,29,29,0,0,0-3.26-.25,7.14,7.14,0,0,0-3.77.88c-5.15,3.09-8.81,12-9,12.37a.67.67,0,0,0,.2.77,70.11,70.11,0,0,0,41,13.2h.93A124.35,124.35,0,0,0,89,120.49a.67.67,0,0,0,.36-.82c-.2-.59-.39-1.2-.58-1.82-1.8-5.81-4-13-15.09-13.36a22.75,22.75,0,0,1-16.8-7.66c-.21-.83-1.48-6-2.29-10.94a28.1,28.1,0,0,0,4.54-2.52,83,83,0,0,0,17.35-4.59l.24-.1c3.87-1.48,6.66-2.55,8.59-6.67,1.59-3.39,2-7.1,2.42-10.68.07-.64.14-1.28.22-1.91a77.35,77.35,0,0,0,.13-19c-1.72-14-7.94-25.53-17.5-32.52A41.71,41.71,0,0,0,45.74,0,46.13,46.13,0,0,0,30.88,2.47,44.24,44.24,0,0,0,18,9.28,47,47,0,0,0,1.6,33.22C-.52,40.63-.53,50,1.57,58.92,4,69.34,8.34,75.79,14.76,78.66Zm31-77.32A40.4,40.4,0,0,1,69.77,9c9.26,6.77,15.28,18,17,31.6a76.23,76.23,0,0,1-.13,18.65c-.08.63-.15,1.27-.22,1.91-.4,3.48-.81,7.08-2.3,10.27-1.7,3.63-4,4.52-7.86,6l-.24.1a82.27,82.27,0,0,1-14.54,4.08c.48-.41,1-.8,1.44-1.24,8.54-8.07,12.83-19.18,13.1-34l0-1.08a11.36,11.36,0,0,0,5.06-1.68.66.66,0,0,0,.22-.92.67.67,0,0,0-.92-.23c-6.14,3.76-12.64.08-18.74-4.45A75.55,75.55,0,0,1,47.86,24.81a.61.61,0,0,0-.56-.25.65.65,0,0,0-.52.3,44.93,44.93,0,0,1-32.49,20.4l-.15,0a.6.6,0,0,0-.27.07,39.24,39.24,0,0,1-6.94.08.68.68,0,0,0-.72.61.66.66,0,0,0,.61.72c1.08.09,2.16.13,3.24.13s2.31-.06,3.46-.16c.47,10.65,3.82,22,8.84,29.84A26.6,26.6,0,0,0,25.9,81a58.57,58.57,0,0,1-10.6-3.51c-6.09-2.72-10-8.7-12.43-18.82-2-8.59-2-17.94,0-25A45.64,45.64,0,0,1,18.83,10.34a43,43,0,0,1,12.48-6.6A44.89,44.89,0,0,1,45.74,1.34ZM87.87,119.5a124,124,0,0,1-43,8.41H44A69.31,69.31,0,0,1,4.21,115.32c.82-1.86,4.09-8.78,8.22-11.26a5.86,5.86,0,0,1,3.08-.69,26.94,26.94,0,0,1,3.11.24,32.23,32.23,0,0,0,3.57.27c2.82,0,6.32-.66,8.82-5.58,1.74,1.74,6.58,5.89,12.85,5.89,4.37,0,8.52-2,12.35-6a24,24,0,0,0,17.41,7.68c10.08.29,12.09,6.73,13.85,12.42Zm-44-16.64c-6.27,0-11.16-4.72-12.28-5.9a44.76,44.76,0,0,0,1.54-11,24.86,24.86,0,0,0,7.32,2.09,25.93,25.93,0,0,0,3.17.19,26.88,26.88,0,0,0,9.68-1.84c.77,4.62,1.89,9.22,2.22,10.51C51.86,100.85,47.94,102.86,43.86,102.86ZM40.61,86.74A23.5,23.5,0,0,1,23.49,75.81C18.58,68.15,15.3,57,14.86,46.56A46.37,46.37,0,0,0,47.4,26.36,77.14,77.14,0,0,0,60.82,39.13c4.27,3.16,9,6.1,13.84,6.24v1c-.27,14.41-4.42,25.2-12.69,33A26.44,26.44,0,0,1,40.61,86.74Z" fill="#826355"/><path d="M62,79.39c8.27-7.81,12.42-18.6,12.69-33v-1c-4.8-.14-9.57-3.08-13.84-6.24A77.14,77.14,0,0,1,47.4,26.36a46.37,46.37,0,0,1-32.54,20.2C15.3,57,18.58,68.15,23.49,75.81A23.5,23.5,0,0,0,40.61,86.74,26.44,26.44,0,0,0,62,79.39Z" fill="#fdce9f"/><path d="M73.62,105.83a24,24,0,0,1-17.41-7.68c-3.83,4-8,6-12.35,6-6.27,0-11.11-4.15-12.85-5.89-2.5,4.92-6,5.58-8.82,5.58a32.23,32.23,0,0,1-3.57-.27,26.94,26.94,0,0,0-3.11-.24,5.86,5.86,0,0,0-3.08.69c-4.13,2.48-7.4,9.4-8.22,11.26A69.31,69.31,0,0,0,44,127.91h.91a124,124,0,0,0,43-8.41l-.4-1.25C85.71,112.56,83.7,106.12,73.62,105.83Z" fill="#a68c88"/><path d="M32.28,94.13c2.08-.15,4.15-.33,6.22-.56a35.63,35.63,0,0,0,10.59-2.41,16.44,16.44,0,0,0,4.52-2.94c-.11-.59-.22-1.19-.32-1.8a26.88,26.88,0,0,1-9.68,1.84,25.93,25.93,0,0,1-3.17-.19A24.86,24.86,0,0,1,33.12,86,57.37,57.37,0,0,1,32.28,94.13Z" fill="#fab381"/><path d="M47.4,26.36a46.37,46.37,0,0,1-32.54,20.2c.08,2,.27,4,.55,6A47.17,47.17,0,0,0,48.3,35.82c4.39,3.82,8.92,7.6,14.14,10.17a27.81,27.81,0,0,0,12.11,3c0-.87.08-1.74.1-2.64v-1c-4.8-.14-9.57-3.08-13.84-6.24A77.14,77.14,0,0,1,47.4,26.36Z" fill="#fab381"/><path d="M61,104.39a8.69,8.69,0,0,0,1.28-1.5,22.4,22.4,0,0,1-6.11-4.74c-3.83,4-8,6-12.35,6-6.27,0-11.11-4.15-12.85-5.89a11.54,11.54,0,0,1-2.52,3.42c.06.11.11.22.18.33a15.71,15.71,0,0,0,8.52,6.74c5.61,1.83,11.55.48,17.08-1A15.69,15.69,0,0,0,61,104.39Z" fill="#c0a19c"/><path d="M63.71,31.55c-5.81-3-11-7.87-13-14.12C45.9,20.4,42,24.67,37.5,28.18A51.54,51.54,0,0,1,5.83,39.08C2.59,46.73,4.68,55.53,7.35,63.4A61.78,61.78,0,0,0,13,76.19a17.46,17.46,0,0,0,2.29,1.25A58.57,58.57,0,0,0,25.9,81a26.6,26.6,0,0,1-3.54-4.42c-5-7.83-8.37-19.19-8.84-29.84-1.15.1-2.3.16-3.46.16s-2.16,0-3.24-.13A.66.66,0,0,1,6.21,46a.68.68,0,0,1,.72-.61,39.24,39.24,0,0,0,6.94-.08.6.6,0,0,1,.27-.07l.15,0a44.93,44.93,0,0,0,32.49-20.4.65.65,0,0,1,.52-.3.61.61,0,0,1,.56.25A75.55,75.55,0,0,0,61.62,38.05c6.1,4.53,12.6,8.21,18.74,4.45a.67.67,0,0,1,.92.23.66.66,0,0,1-.22.92A11.36,11.36,0,0,1,76,45.33l0,1.08c-.27,14.78-4.56,25.89-13.1,34-.46.44-1,.83-1.44,1.24a83.78,83.78,0,0,0,11.74-3.08c3.29-7.7,6.88-15.23,9.18-23.32.85-3,2-6.33,2.22-9.45.21-2.93-1.11-5.59-2.19-8.26C76,36.06,69.52,34.59,63.71,31.55Z" fill="#f26f5e"/><path d="M35.58,47.49C34.4,45.14,28.19,46.2,28.12,49a.59.59,0,0,0,.58.57c1,.09,1.93-.62,2.95-.65s2.15.63,3.21.36A1.22,1.22,0,0,0,35.58,47.49Z" fill="#f26f5e"/><path d="M34.65,55v-.5a2,2,0,0,0-2-2c-2.43,0-2.27,3.58-2,5.2l.07,0a1.93,1.93,0,0,0,1.4,1.49,2.12,2.12,0,0,0,2.59-1.47A7.75,7.75,0,0,0,34.65,55Z" fill="#826355"/><path d="M50.34,47.49c1.18-2.35,7.39-1.29,7.46,1.49a.58.58,0,0,1-.57.57c-1,.09-1.94-.62-3-.65s-2.15.63-3.21.36A1.22,1.22,0,0,1,50.34,47.49Z" fill="#f26f5e"/><path d="M51.28,55c0-.16,0-.32,0-.5a2,2,0,0,1,2-2c2.43,0,2.27,3.58,2,5.2l-.07,0a1.93,1.93,0,0,1-1.4,1.49,2.12,2.12,0,0,1-2.59-1.47A7.54,7.54,0,0,1,51.28,55Z" fill="#826355"/><path d="M44.28,62.79a5.29,5.29,0,0,0-1.57.28,2.59,2.59,0,0,1-1.62-.23,1,1,0,0,0-1,1.67c1.36.83,4,1.28,4.93-.38A.91.91,0,0,0,44.28,62.79Z" fill="#fab381"/><path d="M45.28,69.83A6.06,6.06,0,0,1,42.6,71a8.17,8.17,0,0,1-2.81-.81,1.16,1.16,0,0,0-1.42,1.41c1.29,4,7.31,3.69,9.38.69C48.81,70.76,46.77,69,45.28,69.83Z" fill="#f48a6d"/><path d="M33.07,53.3a1,1,0,0,0,0,2A1,1,0,0,0,33.07,53.3Z" fill="#fff"/><path d="M54,53.3a1,1,0,0,0,0,2A1,1,0,0,0,54,53.3Z" fill="#fff"/></g></g></svg>